<svg xmlns="http://www.w3.org/2000/svg" viewBox="0 0 586.68 598.24"><g style="isolation:isolate"><g id="C"><path d="M411.87,287.22c3.61-16.87.27-36-1.61-37.36-5.45-4-37.45,5-40.26,5s-11.25-9.24-11.25-12.46c0-2.06,1.29-8.68,1.77-12.74a13,13,0,0,0-3.21-3.32c-.67-.66-1.21-3.24-1.51-5,1.06-1.87,1.06-1.52,1.06-1.52l-2.81-1.62-2.23-3.37,2.2-7.94s-10.82-4.05-11.63-5.25-4.37-5.49-4.37-7.5,6.22-9.64,6.62-11.25,6.56-12.18,7-13.79,4.66-11.79,3.86-15S349.6,143,349.2,141s4.41-14.46,4.82-16.07,5.22-18.45,7.63-22.07S374.5,94.39,383.75,90,437.18,75.1,441.19,74.7s55.44,9.24,59.06,14.06,24.5,47.81,23.3,56.65-26.51,69.5-26.11,72.31,3.21,45.8,2.41,51.42-76.73,50.22-76.73,50.22Z" transform="translate(-36.48 -42.19)" fill="#e0b899"/><path d="M233.14,410.75c-.58-.38-5.57-13.43-5.57-15s1.53-11.32,2.11-13.63-6.91-21.88-6.91-23.41-1-21.89-.58-23.81,5-9.4,4.42-10.55-6.53-3.26-8.45-2.5-10.94,10.94-11.9,15.55.2,24.76-1.53,26.3-9,5.95-11.13,6.33-10.18-2.69-11.14-3.84-2.68-7.87-2.68-8.64-2.69-18.81-3.08-20.53-3.45-13.82-4.41-14.59-6.33-1.15-7.1-.19,2.11,12.67,2.11,13.82-1,20-1,20.53a10.82,10.82,0,0,1-.38,1.92s-5-9.4-5.38-10.17-4.41-15.16-5.18-15.93-6.14-9-7.68-9.41-5-.95-6.14.2,5.18,13,5.37,14.58,6,23.42,7.3,25.53,4.22,5.76,4.22,5.76-16.7-14.59-17.28-15-6.91-22.27-7.67-23.23-13.82-8.25-15.55-8.83-5.37,1.35-5.57,1.92-1.53,2.5-1.15,3.08,9,12.09,9.22,13.24,5.37,27.45,7.87,29.75,25.91,21.31,28,22.84,49.52,41.85,49.52,41.85Z" transform="translate(-36.48 -42.19)" fill="#e0b899"/><path d="M251.87,415.63c-1.06-.88-12.66-11.95-14.59-12.65s-8.61-.18-9.84,1-31.1,29.53-30.23,30.93,16.7,24.43,18.1,25S251.87,415.63,251.87,415.63Z" transform="translate(-36.48 -42.19)" fill="#dddad0"/><path d="M208.43,453.36c1.88-2.35,24.93-26.82,27.75-29.64s14.12-15.05,14.12-15.05,34.81,30.1,36.69,32.46,13.65,13.17,16,13.17h6.11s15.53-72,18.35-79.51,15.06-30.11,15.06-30.11,2.35-5.64,3.76-7.05,36.23-24,39.52-25.41,112.91-27.28,115.26-26.34,23.05,7.05,23.05,7.05,17.41,9.41,20.23,10.35,28.23,8,31,8.47,33.41,21.17,36.23,27.76,6.11,118.55,7.06,138.31,5.64,58.81,4.23,61.16-24,26.82-26.82,27.76-10.35,6.11-15.52,8-31,15.52-31,15.52V618s-22.11,6.11-41.87,8-55.05,2.35-59.75,2.35-24.93-1.88-26.35-1.88-15.52,3.76-16.93,3.76-52.69,12.23-57.4,9.88-21.64-13.64-21.64-13.64-2.35-38.11-2.35-39.52-50.81-55.05-57.87-64.45-51.75-56.46-52.22-59.28S208.43,453.36,208.43,453.36Z" transform="translate(-36.48 -42.19)" fill="#534e63"/><path d="M130.4,227.41s13.25-16.87,15.32-17,13.25-.69,14.46,1-4.3,29.78-5.51,30.12-24.62-1.2-24.62-2.23.87-7.41.87-7.41,11.7,1,12.22.52,2.75-10.84,2.06-10.84-8.95,10.67-8.95,10.67Z" transform="translate(-36.48 -42.19)" fill="#edad66"/><path d="M124,241.18c0-.52,15.15.86,15.32-.34s-2.75-14.81-3.1-15.32-5.51-1.9-6.37-2.42-18.24.35-18.93,1.73-6.2,16.52-5,16.69S124,241.18,124,241.18Z" transform="translate(-36.48 -42.19)" fill="#edad66"/><path d="M183.8,250.43c8.57.11,18.43.22,23.14-.32s24.32-2,24.32-1.5,23,.11,26.35.11,15.22,1.71,15.22,1.71-.65,18.22-.43,20,1,12.1,1,12.1,8.46.11,10.61.22,7.92.64,7.92.64-.75,9.64-.75,10.28,0,12.64-.21,15.75a38.86,38.86,0,0,0-.11,4.61c-17.35,0-53.67,1.5-57.95,1.5s-72.42-.32-72.42-.32L162.59,286s11.78.11,13.5.11,6.75.1,6.75.1.64-5.89,1.07-9,.21-16.29.64-18.11S183.8,250.43,183.8,250.43Z" transform="translate(-36.48 -42.19)" fill="#959984"/><path d="M267.82,253.43c-.9-.15-10-.75-13.56-.82s-19.56-.68-20.53-.68-2.33-.07-2.33-.07-6.89.15-7.41.07-12.14,1.65-15.44,1.5-19.63.6-19.63.6l10.49.6c1.42.07,11.16.22,12.89.15s16-1.43,16.48-1.43h2.32s13.12-.15,13.72,0,11.91.6,14.16.6,8.91.3,8.91.3Z" transform="translate(-36.48 -42.19)" fill="#7e826b"/><path d="M269.09,256.65s-13.33-.07-15.21-.37-22.7-.9-23-.9-5.32.6-7.64.67-20.53-.07-23.31.23-11.61.15-11.61.15l-.37,1.5s.07.37,5.32-.15,18.58-.6,20-.6,17.46-.38,17.83-.3,15.14.22,16.86.22,10.27.68,13,.68,8,.52,8,.52Z" transform="translate(-36.48 -42.19)" fill="#7e826b"/><path d="M270.29,260.92c-.67-.07-11.24-.9-14.16-.9s-18.13-1-20.83-1-4.72-.07-4.72-.07-14.61-.08-15.29,0-16.85.75-17.83.75-10.19.37-10.19.37l-.37,2.25s7.71-.9,10.49-1.2,20.9-.45,22.18-.6,11.16,0,11.16,0,11.39.53,15.88.6,15.37.9,16.19.83S270.29,260.92,270.29,260.92Z" transform="translate(-36.48 -42.19)" fill="#7e826b"/><path d="M267.67,263.77s-10,.22-15.21-.08-21.73-.37-21.73-.37-2.47,0-4.5-.07-15.88-.3-18.65-.08-17.31,1.27-17.31,1.27,18.43.08,18.81,0,11.16.15,16.18.08,18.88,1,24.05,1.05,18.51,0,18.51,0Z" transform="translate(-36.48 -42.19)" fill="#7e826b"/><path d="M267.74,267.82s-15,.22-18.8.22-12.82-.52-17.31-.45-9.29,0-13.71-.07-16.71-.38-17.46-.38-8.77-.37-8.77-.37l17.91,1.42c.9.08,11.46.15,18.43.3s18.06.9,24.95,1.12,15.14-.07,15.14-.07Z" transform="translate(-36.48 -42.19)" fill="#7e826b"/><path d="M271.49,272s-7.27,1.35-12,1-12.51-.83-15.51-.9-14,.15-14.91.15-12-.6-13.79-.53-15.06.08-15.06.08,11.62,1.95,16.26,1.8,12.29.82,22.86.07a221.51,221.51,0,0,1,22.63-.15l8.69.15Z" transform="translate(-36.48 -42.19)" fill="#7e826b"/><path d="M271.12,276.36c-.23,0-13.34-.45-16.71-.38s-20.16.3-20.16.3a70.53,70.53,0,0,0,9.52.83c5.09.07,17.38.3,19.25.3s7.87.22,7.87.22Z" transform="translate(-36.48 -42.19)" fill="#7e826b"/><path d="M270.29,279.28s-4,.3-5.77.22-12.66-.52-14-.44-15.43.67-15.43.67,12.81.3,13.71.3,16.86.9,18,.82,4.72.15,4.5.08A7.81,7.81,0,0,1,270.29,279.28Z" transform="translate(-36.48 -42.19)" fill="#7e826b"/><path d="M196,276.21c.68,0,5.55.45,8.4.52s12.81.53,12.81.53l.37,1.5s-4.94.37-7.42.37-11.61-.45-11.61-.45Z" transform="translate(-36.48 -42.19)" fill="#7e826b"/><path d="M199,281.68c.3,0,5.09.52,7,.45s9.29-.23,9.29-.23l.68,1.65s-4.42-.22-6.82-.37-9.22.07-9.22.07Z" transform="translate(-36.48 -42.19)" fill="#7e826b"/><path d="M287.38,286.4c-1.35,0-4.95.22-9.6.15s-25.32.07-25.7,0-16.85-.15-17.08-.15,1.05,1.72,1.05,1.72a64.15,64.15,0,0,0,8.62.38c3.14-.23,27.42-.3,30.87-.45s12.51.89,12.51.89Z" transform="translate(-36.48 -42.19)" fill="#7e826b"/><path d="M287.23,291.57c-.38,0-7.35.37-12.74.3s-22.93-.38-25.85-.3-14-.75-14-.75l.3,1.42s15.43.15,24.12.53,22.86.6,23.46.52S287.23,291.57,287.23,291.57Z" transform="translate(-36.48 -42.19)" fill="#7e826b"/><path d="M285.58,296.66a109.07,109.07,0,0,1-11.69.38c-8.24-.08-18.88,0-19.93,0s1.42-.38-2.33-.08-17.23-.07-17.23-.07.83,1.72,1.13,1.72,8.76.3,13.48.08,21.21-.45,23.83-.45,14.61.45,14.61.45Z" transform="translate(-36.48 -42.19)" fill="#7e826b"/><path d="M287.38,302.21c-.45-.08-2.63.82-12.82.67s-29.59.75-32.29.45a29.39,29.39,0,0,0-4.27-.22l1.57,2.39s3.6-.45,9.82-.67,15.73-.23,21.13-.3,13.41-.07,13.41-.07Z" transform="translate(-36.48 -42.19)" fill="#7e826b"/><path d="M286.18,307a66.56,66.56,0,0,0-8.4-.15c-5.09.15-23.9.15-23.67.15s6.89.6,10.41.68l21.43.45,1.65.15Z" transform="translate(-36.48 -42.19)" fill="#7e826b"/><path d="M287.6,310.67c-.45-.07-11.31.3-16,.3s-17.69.3-20.61.38-12.14-.23-12.14-.23.68,1.05,1,1.05,11.46.15,14.76.08-2.18.15,4.87-.08,10.56.23,15.21.15l13.11-.22Z" transform="translate(-36.48 -42.19)" fill="#7e826b"/><path d="M165.92,289.24c2.69-.37,7,1.13,14.31,1s19.78,0,21.13,0,6.59,0,7.12.07,10.56-.52,10.56-.52l-.52-.82s-5.85-.3-10-.15-17.83-.15-19.85-.23-16.11.23-16.11.23Z" transform="translate(-36.48 -42.19)" fill="#7e826b"/><path d="M165.54,292.77c.68,0,8.84-.15,13.34-.15s17.38,1.27,19.71,1.35,21.28-.45,21.28-.45l.37,2.17s-8.92,0-11.91-.08-16.56-.07-18.29-.15-12.43-1-14-1.12-10.64-.07-10.64-.07Z" transform="translate(-36.48 -42.19)" fill="#7e826b"/><path d="M166.07,297c.9-.07,7.49.23,10.49.23s15.81.9,18.35,1,12.67.23,14.77.15,11.08.23,11.08.23a53.12,53.12,0,0,1-7.56.75c-3.3,0-17.16.07-19.26.3s-15.36-.53-19-.3-9.29-.15-9.29-.15Z" transform="translate(-36.48 -42.19)" fill="#7e826b"/><path d="M165.77,302.66c.75,0,7-.38,11.84-.75s17.3.15,17.6.22,13,.08,13.49.08,13.11.6,13.11.6-8.16,1.05-11.39,1.05-24.35-.38-26.74-.38-11.62-.37-11.62-.37a3.17,3.17,0,0,0-1.42-.23C169.89,303,165.77,302.66,165.77,302.66Z" transform="translate(-36.48 -42.19)" fill="#7e826b"/><path d="M166.67,305.8c.22,0,7.79.15,13.93-.22s16.41.6,17.91.6,12.21.22,12.21.22-8.61.3-10,.38-7,.6-14.31.52-15-.37-16.11-.37-4.87.07-4.87.07l-.3-1.2Z" transform="translate(-36.48 -42.19)" fill="#7e826b"/><path d="M167,309.7c.6-.07,12.28.15,14.16,0s10.26-.07,10.26-.07,9.14.22,10.94.29,11.39-.59,11.62-.59l7.34.3-.15,1.49s-15.44.08-18.36.23-12.29.3-12.29.3-15-.68-16.78-.68A45.35,45.35,0,0,1,167,309.7Z" transform="translate(-36.48 -42.19)" fill="#7e826b"/><path d="M254.75,214.4c-.57-11.82-4.95-17.92-6.48-18.49s-6.67-.95-9.33-.95c-.77,0-8.69,6.1-8.2,20,.57,16.39,6.86,20,8.2,20.78s7.24-.39,8.57-.58S255.33,226.22,254.75,214.4ZM242.9,225.64c-2.85.52-4.4-19.39-.26-21.08C246.16,203.12,245.74,225.12,242.9,225.64Z" transform="translate(-36.48 -42.19)" fill="#dd4a66"/><path d="M195.53,271.8c-2.05-.64-8-1.8-10.88-.21s-6.25,8.4-6.78,21.21,6.89,21.65,12.28,21.22,10.55-6.57,11.52-21S197.58,272.45,195.53,271.8Zm-5.82,31.45c-5.06-.32-4.27-24.24.65-23.59C193.59,280.1,194.78,303.58,189.71,303.25Z" transform="translate(-36.48 -42.19)" fill="#dd4a66"/><path d="M190.57,199.37c1.77,0,14.22-.53,14.89-.67s5.23,2.55,5.23,2.55,10.72,51.23,15.15,68.52S236.7,315,236.7,315s-20.65,1.47-20.78.26-21.19-96.14-22.13-101S190,199.37,190.57,199.37Z" transform="translate(-36.48 -42.19)" fill="#dd4a66"/><path d="M167.8,314.88s-.2-44.2-.2-48.62-1.21-25.52-1-26.52-1.2-1.61-1.2-1.61-42-.2-43.2-.4S71,238.74,71,240.14s-1.21,74.14-.41,74.74S167.8,314.88,167.8,314.88Z" transform="translate(-36.48 -42.19)" fill="#eddace"/><path d="M89.26,315.2s.86-40.63.86-48.37,1.38-28.92,2.24-28.92,12.91-.52,14.11-.52a49.33,49.33,0,0,1,5.34.86s-4.31,1.38-4.31,2.07-1,31.67-1.54,42.17-1.21,32.36-1.21,32.36Z" transform="translate(-36.48 -42.19)" fill="#edad66"/><path d="M158.8,315.72s0-41.32-.17-49.41.52-28.92,0-29.09-15.49-.17-15.49-.17l-2.93.86,3.44.69s.52,25,.35,30.64.34,38.73.34,40.28-.51,5.85-.51,5.85Z" transform="translate(-36.48 -42.19)" fill="#edad66"/><path d="M114.39,228.61c0-.69-10.84-11-11.88-11.53S86.16,219,86.16,219.83s4.3,19.8,6.54,20.83,25.13-3.27,25-3.78-4.13-2.24-4.13-2.24-13.26-2.07-13.43-2.58-1.55-6.72-.69-6.37S114.39,228.61,114.39,228.61Z" transform="translate(-36.48 -42.19)" fill="#edad66"/><path d="M412,264.79c3.76-.34,36.92-10.25,41-10.6s40.33-13.33,42-13.33h6.84s1.36,10.94,1.71,13,1,6.84,1,6.84S404.87,425,404.53,426.37s-25.31,62-25.31,62-8.54-56.06-8.54-57.42,17.09-109,17.77-112.81,20.85-53.32,20.85-53.32Z" transform="translate(-36.48 -42.19)" fill="#dddad0"/><path d="M503.65,251.46l1,9.23s-49.56,57.77-54,63.58S398.71,426.13,395,435s-10.6,27.68-10.26,26.66,1.71-76.91,2.39-84.43,9.58-71.1,10.26-74.52,3.76-16.06,3.76-16.06-23.25,20.51-22.9,22.21-7.86,32.82-10.6,68.37,11.55,111.68,11.55,111.68,43.14-76.13,49.29-84.68,40.34-59.82,43.07-62.55,55.38-49.91,55.38-49.91l-18.12-36.23Z" transform="translate(-36.48 -42.19)" fill="#5c5675"/><path d="M409.25,271.23c2-.5,13.55-1.18,13.94-.5s.39,8.64.59,10.33-1.37,6.95-1.37,6.95-14.93.51-14.93-.34-.2-8.81,0-9.66S409.25,271.23,409.25,271.23Z" transform="translate(-36.48 -42.19)" fill="#934558"/><path d="M409.41,273.83c-1.41-2.82-6.35-9.83-7.3-11.41s-6.09-4.47-6.59-5.37-2-.28-2-.28-3.32,15.36-3.54,17.17,1.16,23.34,1.35,23.75,9.85-5,11.44-6.54,8.88-6.72,9.08-7.42S409.41,273.83,409.41,273.83Z" transform="translate(-36.48 -42.19)" fill="#934558"/><path d="M422,273.48c1.22-1.22,5.58-5.76,8.2-8.9s10.47-15.18,11-14.83a5.45,5.45,0,0,1,1.74,1.74c.18.52,2.27,12.91,2.27,14.14s-.7,9.59-.7,10.29,1.4,15.71,1.22,16.41-1.74,6.8-2.26,6.45-8.21-3.84-11.17-6.63-11.52-7.85-11.52-8.72S422,273.48,422,273.48Z" transform="translate(-36.48 -42.19)" fill="#934558"/><path d="M408,318.76c-3.62-.61-3.66,7.52-.53,7.42C410.19,326.28,411.13,319.28,408,318.76Z" transform="translate(-36.48 -42.19)" fill="#755961"/><path d="M404,346.25c-3.26-.77-4.07,7.21-1.35,7.63S407.58,347.09,404,346.25Z" transform="translate(-36.48 -42.19)" fill="#755961"/><path d="M401,373.64c-3.16-.32-3.66,7.31-.42,7.52S404.13,374,401,373.64Z" transform="translate(-36.48 -42.19)" fill="#755961"/><path d="M36.48,313.09c3.51,0,282.07-.7,283.12,1.05l1.06,1.76s-8.76,1-13,3.06c-5.5,2.65-13.63,5.45-13.63,5.45s-238.21-.78-239.62-1.84-7.73-6-9.48-6.67a66.66,66.66,0,0,0-7.8-1.7Z" transform="translate(-36.48 -42.19)" fill="#b8dddd"/><path d="M348,81.18c-1.27,7.17,8.19,17.15,10.24,17.92a19.44,19.44,0,0,0,7.16.76c.77-.25,19.45-6.9,27.13-8.7s45.54-2.81,49.38-.25,1,21.24.26,23.79-6.4,19.71-6.14,22.52,5.88,28.4,5.88,28.4,21.75,11.77,22,13.31,6.65,20,12.53,26.35,20.47,23,21.5,22.52,7.16-5.89,7.67-7.16,5.63-16.12,6.91-17.92,25.33-45.54,26.1-48.61,4.61-46.06,3.07-51.43-23-49.64-33.52-53.22-48.1-8.19-53.22-5.89-45.8,7.93-49.38,7.93-36.34,15.1-38.9,14.84S348,81.18,348,81.18Z" transform="translate(-36.48 -42.19)" fill="#66464f"/><path d="M442.92,169.35c1-1.74,8.22-16.68,9.72-17.93s7-5.23,8.72-5.73,15.19,4.73,15.94,9-2.25,18.18-3.49,23.66-11,15.44-13.45,16.44-7.47,1.74-9,3.74-5.23,6-6.22,6.22l-10,2.49Z" transform="translate(-36.48 -42.19)" fill="#e0b899"/><path d="M353.08,139.14c3.9-.89,11.95-4.66,16.1-4.22a44.21,44.21,0,0,1,14,4.88c2.86,1.78,9.35,9.1,9.35,9.1l-1.3.23s-10.13-7.11-14-8.22a49.35,49.35,0,0,0-10.65-1.55c-1.55,0-9.34,3.33-10.38,2.89S353.08,139.14,353.08,139.14Z" transform="translate(-36.48 -42.19)" fill="#593a44"/><path d="M363,152.07c1.84.4,8.16,2,9.86,2.5s9.28,5.63,8.88,5.76-12.29,1.74-13.48,1.74-3.81-.13-3.81-.13Z" transform="translate(-36.48 -42.19)" fill="#edeae2"/><path d="M363,152.07c.08-.52,5.78,1.26,6.06,1.49a23,23,0,0,1,1.1,4.9,18.78,18.78,0,0,1-.63,3.46l-3.18.23a7.06,7.06,0,0,1-1.9-.21S361.93,159.25,363,152.07Z" transform="translate(-36.48 -42.19)" fill="#936d78"/><path d="M362.8,154.1c.08-.28,1.07-.5,1.43-.36a7.88,7.88,0,0,1,1.79,3.72,4.17,4.17,0,0,1-.57,2.35c-.22.08-1.93.58-1.93.36s-.64-2.28-.72-3S362.8,154.1,362.8,154.1Z" transform="translate(-36.48 -42.19)" fill="#593a44"/><path d="M362.46,153.16A85.53,85.53,0,0,1,372,155.4c2,.72,9.7,4.93,9.7,4.93S373.53,154,373,153.4s-11.15-3.21-11.15-3.21Z" transform="translate(-36.48 -42.19)" fill="#b78b79"/><path d="M357.34,193.56c1.06-.23,3.75-.58,4.1,0s0,6.32,0,6.32l2.34-4.8a15.9,15.9,0,0,0-1.64-3c-.47-.35-5.5.35-5.5.35l-1.87-.47Z" transform="translate(-36.48 -42.19)" fill="#b78b79"/><path d="M351.21,204c-.82-.35-2.61-.8-2.61-1.15a23.88,23.88,0,0,0-.67-2.48,52.33,52.33,0,0,1,5.33,2.55c.47.47,3.22,2.48,3.22,2.48Z" transform="translate(-36.48 -42.19)" fill="#44312a"/><path d="M473.67,158.16c-.2-1.95-8.9-7.27-9.93-7.58s-8.5,4.2-9,4.81-3,8.3-2.36,9.22,5.53,8.19,6.87,8.81,2.55,1,2.55,1-1.84,1-2.76.82a47.48,47.48,0,0,1-6.14-1.43c-1-.52-2.15-3-2.15-3,0,1.43.41,6.45,0,6.65s-4.3,3.89-4.2,4.61a10,10,0,0,1,0,1.22,2.53,2.53,0,0,0,1.47.21c.61-.3,4.51-3.27,5.63-3.48s9.12-3.07,10.14-4.3,1.23-6.65,1.23-7.47-4.92-4.1-5.94-5-4.3-1.33-4.3-1.33l.51-1.54s3.48.31,4.51.51,3.89,2.15,4.2,2,1.94-3.17,1.84-3.89a51.69,51.69,0,0,0-2.77-5.43s3.79,1.13,4.2,1.64,2.26,8.4,2.36,9.83-2.87,10.85-3,11.16-9,4.51-10.14,4.92-8,3.89-8.5,4.19a12.66,12.66,0,0,0-1.63,2.24c0,.19.1.29.2.22.61-.41,13.1-4.3,14.44-4.81a33.19,33.19,0,0,0,7.37-5.53C469.48,176,473.88,160.1,473.67,158.16Z" transform="translate(-36.48 -42.19)" fill="#b78b79"/><path d="M358.42,219.58c1.46.23,4.71.35,6.25.47s5.11-1.29,5.59-1.29.89-.58.89-.58l1.06,2.68a10.83,10.83,0,0,0-1.62-.7c-.25,0-5,1.05-5.52.93s-7.05-.81-7.05-.81Z" transform="translate(-36.48 -42.19)" fill="#44312a"/><path d="M364.57,100.59a26.48,26.48,0,0,1-7.83-.85c-1-.43-8.12-11.68-8.83-12.68s-1-5.27-.57-5.84,15.81-14,16.66-14.53,4.42-1.28,6-2S402.75,51.3,403.75,51s21.94-2.42,28.06-3.56,21.06-3.24,22.08-3.56a49.19,49.19,0,0,1,6.56-1.71c1,0,43.3,3,49.86,6.83s30.77,48,32.33,53.14-2.42,48.86-3.41,52.28-25.5,48-26.5,50-4.84,15-5.7,15.67-8.83,9.55-8.83,9.55-14.67-16.38-17.52-19.09-6.41-8.12-7.55-9.69a27.58,27.58,0,0,1-2.42-5.13s11,14.39,14.24,17,12.25,13.53,12.25,13.53,6.13-3.85,7.84-7.41S510.88,204,511.59,202s19.8-35.18,20.66-37.46,5.55-9.55,5.84-11.4,3.7-47.44,3-49.86-24.22-49-32.2-52.71-39-7.12-47.72-7.41c-1.14,0-8,2.14-8.83,2.14s-22.94,4-23.93,4.27-20.52,2.28-24.22,3.28-33.34,13-34.19,13a15.46,15.46,0,0,0-5.7,1.86c-1.42,1-15,13-15.39,13.81s-.14,4,.57,5.56,7.27,10.26,8.12,10.69,5.42,1.56,6.84,1.13,25.36-8.83,27.5-9,46.58-3.13,50.85.28.57,22.51.57,22.51-6.41,21.66-6.12,23.22,4,26.5,5,27.78,1.71,2.14,1.71,2.14,7.84-13.82,7.7-13.39-6.13,15.24-6.84,15.24-3.71-1.71-3.71-1.71-5.69-28.35-5.69-29.2,6.69-23.51,6.83-24.79,1.74-18.66-.34-21.08c-1.37-.57-38.55-1.85-48.38.43C387.94,92.19,364.57,100.59,364.57,100.59Z" transform="translate(-36.48 -42.19)" fill="#593a44"/><path d="M365.39,99.31c-.35.09-5.19-4.67-6.69-8.89a56.5,56.5,0,0,1-2.55-11.19c0-1,.7-6,1-6.07a16.27,16.27,0,0,0,1.67-2.11s-1.94,7.57-1.76,8,2.46,9.24,3,10.92,7.48,8.54,7.48,8.54Z" transform="translate(-36.48 -42.19)" fill="#593a44"/><path d="M379.74,94.38c-.26-.53-6.33-7-6.51-9.07s-1.41-9.42-.79-11.18,11.44-12.24,12.06-12.86,15.85-7.83,15.85-7.83l3.34-1.06S386,61.62,384.85,62.77,374.2,73.42,373.93,75.45s.62,9.51.88,10.39,7.31,7.48,7.31,7.48Z" transform="translate(-36.48 -42.19)" fill="#593a44"/><path d="M390,90.59c.09-.35,4.5-16.55,5.46-18s25.62-17.61,27.21-18.66,18.75-7.49,19.19-7.58l8.19-1.4s-24.83,8.54-27.29,9.94-25,17.88-25.89,18.85-4.31,16.46-4.4,16.73S390,90.59,390,90.59Z" transform="translate(-36.48 -42.19)" fill="#593a44"/><path d="M408.89,89.27c.17-.35,9.59-16.73,11.62-18.49s38.92-12,42.35-12.59,26,9.07,29.41,11.8S513.66,87.6,515.6,90.5s14.7,20.17,15.5,23.69a151.07,151.07,0,0,0,4.75,14.88,19.42,19.42,0,0,1,1.06,2.82s3.08,11.53,3,11.88-1,6.52-1,6.25-5.37-23.33-6.51-26.5-3.88-12.76-6.52-16.11S515.25,91.56,511.46,88,492.8,72.54,488.75,70,468.14,60.13,466,60s-9.6,1.24-12,1.68S430.9,68,427.2,69.81s-6,2.38-6.69,3.17-9.69,16.73-9.69,16.73Z" transform="translate(-36.48 -42.19)" fill="#593a44"/><path d="M428,52.29c1.5-.7,24.39-4.66,30.91-4.93s32.58,2,34.42,2.47,18,7.39,20.78,9.07,9,7.92,9,7.92l1.94,4s-9.77-9.68-12.59-11.09-17.08-8.45-21.31-9.07-25.79-2.11-32.22-1.85S439,51,435.74,51.5,422.09,55,422.09,55Z" transform="translate(-36.48 -42.19)" fill="#593a44"/><path d="M463.48,58.28c2.55-.09,24.12,2.47,26.59,3s20.42,9.6,24.39,12.51,20,19.89,21.3,21,5.9,7.86,5.9,7.86v5.43s-5.72-11.35-10.21-15.76S513.84,74.48,510.93,73s-19.19-10-23.24-10.83-21.57-2.81-21.57-2.81Z" transform="translate(-36.48 -42.19)" fill="#593a44"/><path d="M426.23,88.66c1.41-.8,15.67-9.69,16.73-10s13.12-3.35,18.14-2.55,30.38,11.09,31.34,11.62,17.35,19.54,18.67,20.87,6.25,14.7,7,15.93,4.58,9.16,6.78,12,8.89,11.62,9.42,12.85.53,12,.27,12.68-1.76,4.23-1.76,4.23.88-12.95.7-13.83-4.67-9.42-6.25-11.18-5.64-6.69-6-7.57-7-15.15-7.83-16.55-2.91-6.87-3.88-7.66-16-19.46-19-21.14-25.27-10.56-29.67-10.83S446.3,79,443.84,79.94,429.49,89,429,89.18s-4.58.36-4.58.36Z" transform="translate(-36.48 -42.19)" fill="#593a44"/><path d="M440.05,89.71c.27.09,6.25-1.23,8.72-.79s25.27,4.14,29.5,5.28,19.72,8.28,21.65,9.25S513.83,117.71,514,118s2.56,4.75,2.56,4.75-13.12-15.41-16.2-17.34-21.05-10.13-26.24-10.92-24-3.88-25.18-4a57.52,57.52,0,0,0-6,.61Z" transform="translate(-36.48 -42.19)" fill="#593a44"/><path d="M443.4,107.32c.35-.17,15.72-1,22.5.92s11.93,5.6,21.35,8.68,21.39,9,21.83,9.16a132.1,132.1,0,0,1,11.62,13c3,4.14,5.9,23.33,6.08,24.92S522.2,186,522.2,186l-2.9,4.84s4.66-19.9,5-22.45-.45-14-1.41-18.31-5.46-12.24-7.66-15.59-8.1-7.83-9.07-8.36-21-8.54-24.39-9.6-14.39-6.21-15.8-6.57-17-1.69-17.83-1.69a44.76,44.76,0,0,0-4.93,1.22Z" transform="translate(-36.48 -42.19)" fill="#593a44"/><path d="M436.63,136c1.12-.56,18.45-8.33,22.39-8.44s24.53,3,26.55,3.94,11.25,8.21,14.07,13.28,9.79,24.86,10.12,26.32,3.72,15,4,16.32-1.8,15.19-1.8,15.19l-1.35,4.61s1.8-18.23,1.58-20-6.3-22.95-8.78-28.13L501,153.92s-5.85-11.7-8.22-13.95-8.55-6.64-12.94-7.77-16.87-3.37-19.69-3-12.71,4.16-16.2,5.28-7,4.84-7,4.84Z" transform="translate(-36.48 -42.19)" fill="#593a44"/><path d="M457.56,147.62c.9-.56,5.17-4.05,6.19-4.05s9.78,1.69,12.93,3,9.23,10,10.47,11.81.79,24,.34,27.9-2.14,15.87-.91,21.72,2.26,9.22,2.26,9.22a39.8,39.8,0,0,1-3.38-3c-.11-.34-1-9.45-.9-11.48s1.8-21.94,1.8-24.53-.22-17.44-1-18.9-7.88-11.14-9.9-11.81-10.13-2.48-11.37-2.37S457.56,147.62,457.56,147.62Z" transform="translate(-36.48 -42.19)" fill="#593a44"/><path d="M476.91,162s-2.25,15.53-2.93,16.65-3.26,6-3.26,6l4-4.62,1.13-3.71s.78,9.9.56,11.25-.9,12-1.13,13.05a11.6,11.6,0,0,0-.11,2.59L478,206s-.67-13.27-.67-13.95.9-8.44.9-9.56-.45-9.9-.56-11.14S476.91,162,476.91,162Z" transform="translate(-36.48 -42.19)" fill="#593a44"/><path d="M498.17,145.93s3.15,24.64,3.15,31.62v8.89s-1.57,3.6-.67,13.05,3,21.82,3,21.82l2-2.13s-2.7-12.72-3-15.08-1.23-10.8-.56-13.73a35.36,35.36,0,0,0,.68-7.2c0-.67-.57-19.46-1.13-21.83s-1.57-11.58-1.57-11.58Z" transform="translate(-36.48 -42.19)" fill="#593a44"/><path d="M524,148.47c.39.1,4.5,11.2,5.46,12.73s1.15,9.37,1.15,9.37l-1.44,2.4a82.88,82.88,0,0,0-.29-9.09,47.27,47.27,0,0,0-2.48-7.37c-.48-1-2-5.07-2-5.07l-1.25-5Z" transform="translate(-36.48 -42.19)" fill="#593a44"/><path d="M486.51,158.52c1.7,2.54,6.5,13.7,7.77,18.22s6.06,18.78,6.22,20.76,1.69,10.88,1.69,10.88-5.51-16.95-7.06-22.74a185.94,185.94,0,0,0-6.36-18.5c-.7-1.28-2-3.82-2-3.82Z" transform="translate(-36.48 -42.19)" fill="#593a44"/><path d="M513.81,187.45c-.32-2.19,2.19-21.35,2.19-26.37s-1.92-20.49-3.84-24-9.43-13.27-10.17-13.56-4.13-1.48-4.13-1.48,6.49,7.52,8.7,10.77a59.38,59.38,0,0,1,6.93,17.39c1,5.61.59,21.23.15,22.86S512,183.94,512,183.94Z" transform="translate(-36.48 -42.19)" fill="#593a44"/></g><g id="S" style="mix-blend-mode:multiply"><path d="M130,237.56c.26.46-.67,57.22-.67,59.9s-.51,15.44-.51,15.44-58.22,1.18-58.39.5-.17-73.15.34-73.15S129.31,236.39,130,237.56Z" transform="translate(-36.48 -42.19)" fill="#e6e8e7"/><path d="M226.59,324.94a57.38,57.38,0,0,1-9.23,4.62c-1.38.3-7.69,4.15-7.84,4.61s-2,25.22-2.31,25.84-2.15,6.3-2.15,6.3l-6,2.93s12.46-.31,11.84.15-9.84,2-8.76,2.31,9.53,6.92,9.07,6.76-19.53-2.92-20.61-3.07-4.46-.92-5.54-2.92-2.92-6.46-2.92-6.46,7.38,4.15,10.77,4,11.38-4.77,11.84-7.39.77-23.53,1.23-25.53S214.29,324,215.06,324l11.53.15Z" transform="translate(-36.48 -42.19)" fill="#e5dbda"/><path d="M141.68,324s.37,2.46.86,2.71,7.27,3,8.26,3.7,5.79,5.91,5.79,5.91-.25-2.59-.86-3.2-6.9-9.37-6.9-9.37Z" transform="translate(-36.48 -42.19)" fill="#e5dbda"/><path d="M112.48,324.62c.49.12,5.66.73,7,1.23s13.06,5.54,13.43,5.79a9.18,9.18,0,0,1,1.23,1.48,14.36,14.36,0,0,0-.74-2.1c-.24-.37-12.44-7.39-12.81-7.39s-7.89-.37-7.89-.37Z" transform="translate(-36.48 -42.19)" fill="#e5dbda"/><path d="M114.94,324.49a14.92,14.92,0,0,0-.74,2.22s7.27,6.41,7.39,7.27,9.25,28.46,9.74,30.31,15.52,13.93,16.76,14.91,9.73,10.47,10.47,11.09S163,392,163,392.38s9,9.25,9.73,10.11,10.35,12.94,10.35,12.94-25.75-21.32-26.37-21.81S128.12,370.33,127.88,370s-7.76-29.57-7.76-29.94-9-12.57-9-12.94a39.87,39.87,0,0,1,1.6-3.82Z" transform="translate(-36.48 -42.19)" fill="#e5dbda"/><path d="M153.16,359.5c.71.71,9.89,10.85,9.89,11.32s-.12,2.15-.12,2.15a24.55,24.55,0,0,1-3.45-2.62c-.36-.6-5.13-6.68-5.37-7.16s-2.5-7.86-2.5-7.86Z" transform="translate(-36.48 -42.19)" fill="#e5dbda"/><path d="M165.2,324.21l.6,2.62s4.29-.35,5.12.12a40.73,40.73,0,0,1,4.05,4.29s-1.55-6.91-2.14-7.15S165.2,324.21,165.2,324.21Z" transform="translate(-36.48 -42.19)" fill="#e5dbda"/><path d="M168.71,400.36c-.65-.65-4.07-14.38-3.81-15.82s-.29-17.58-.29-17.58-3.71,16.87-3.71,17.78-.73,7.68-.07,8.2S168.71,400.36,168.71,400.36Z" transform="translate(-36.48 -42.19)" fill="#e5dbda"/><path d="M213,417.94s-12.1,12.24-12.51,12.78-3,3.54-3,3.95,12.24,17.13,12,17.54-.95,1.36-.95,1.36,4.07,7.61,4.35,8.43,1,2.58,1,2.58,30,33.73,35.22,39.3,34.13,39,38.48,43.52,31.69,35.36,32.64,35.9a21.7,21.7,0,0,1,3.13,3.27s5.2-37.82,4.95-39.82.75-27.75.75-29.5,1-23.75.75-25-5.75,28-6.75,29a56.81,56.81,0,0,1-7.75,5.25c-3,1.75-3.75,6.25-5.75,6s-36-25.5-39-26.75-12.25-11.5-14-12.75-20-23.75-24-27.25S225,448.5,225,448.5s-5.25-3-5-3.75,12.25-16.25,12.25-16.25-15.75,10-16,9-5.25-4.25-5.5-5.25a44.64,44.64,0,0,0-2.25-4.75Z" transform="translate(-36.48 -42.19)" fill="#e5dbda"/><path d="M391.27,298l12.25-9.22s-4.19-.62-3.66-1.36,2.3-3.45,2-3.77-7.22-4.6-6.07-4.71,11.52-1.57,11.52-1.57.63,7.85,1.78,7.85,10.68.32,10.78-.21,2.51-10.78,2.83-10.36,1.57,5.44,1.88,5.44,3.14,1.68,3.14,2.31,12.35,9.84,12.88,9.31,2.4-2.82,2.3-3.35-4.81-7.53-4.5-7.64,2.83-1.78,2.72-2.2-2-2.3-1.57-2.93,5.65-10.36,5.65-9.84.74,13.09.74,14,2.4,15.18,2,15.91-2.19,6.81-2.51,6.81-7.85-1.47-9.1-2.1-11.83-4.39-12.25-4.29-1.57,1.15-2,1.15-10.47.42-10.78.11a17.55,17.55,0,0,0-2.73-2.2c-.42-.11-8.68,6-8.68,6s-3.67,24.28-4.61,30.67-6,38.52-6.28,43.86-2.2,26.07-2.2,33.5.31,33.5.73,33.39a46.88,46.88,0,0,0,5.66-6.91c.2-.73,19.47-36.43,19.15-35.69s-14.13,35.59-15.39,39.88-8.47,19.79-9.1,21-2.72,9.53-3.35,8.06S382,454.75,382,454.33s-.32-64.59-.32-66.79,3.66-32,4.5-36.85,5.76-30.15,6.18-32.66,2.93-17.27,2.51-17.59-4.71,1.05-4.71,1.05Z" transform="translate(-36.48 -42.19)" fill="#e5dbda"/><path d="M495.81,317.25c-1.78,1.77-24.73,22.14-25.54,23.44s-33.79,49-35.73,51.89-33,56.9-34.27,59.17-18.1,32-18.1,32l-2.59,2.1-4.2-18.59,2.74,22s-.13,5.2-.29,11a39.62,39.62,0,0,0,3.2-4.19l.06-.1c.09-1.79.18-3.12.27-3.84l3.39-7.11s20.37-35.41,23.12-40.09,27-41.55,29.26-46.08S448.45,381.1,450.71,378s14.23-20.86,17-24.9,5.34-7.92,6.79-9.37,19.89-17.95,22.47-20.53,12.61-13.58,13.91-15,12.61-13.58,12.61-13.58C522.81,294.94,497.59,315.47,495.81,317.25Z" transform="translate(-36.48 -42.19)" fill="#e5dbda"/><path d="M529.85,359.17c.64.95,3.81,26,3.49,28.21s-6.66,35.19-6.66,37.09,6.66,25.36,5.07,28.21a34.33,34.33,0,0,0-3.48,13c0,3.8,3.8,58.32,2.85,61.49s-19.33,57.06-18.07,59.28,7,9.82,6,10.46-21.56,22.18-21.56,22.18,6,2.54,4.76,2.86-14.58,5.39-12.37,5.07,24.09-1.9,31.7-3.17,27.26-4.12,27.26-5.71,1.27-27.57,1.27-27.57,32-17.12,35.5-18.39,11.41-4.44,12.05-5.39,24.09-27.57,24.09-27.57-21.56,15.53-25.68,16.48-16.8,2.22-18.07-.32-12.68-19.33-11.09-19.33,18.38,4.43,17.12,2.85-19-13.31-21.56-17.12,7.61,1.9,7,.32-1-9.83-3.17-11.41-8.56-15.22-9.2-17.12-8.87-55.15-9.51-57.69,0-21.87.95-24.72,7-23.78,5.71-22.19-9.51,10.78-9.51,9.82,1.27-16.79.32-17.43-6.66-2.85-6.66-2.85l-2.22.95Z" transform="translate(-36.48 -42.19)" fill="#e5dbda"/><path d="M354,94.28c1.4,1.17,5.59,2.1,6.52,2.1s.93-3.26.93-3.26l-3-5.83s4.9,3,7,3.5,7.45-.47,7.45-1.17.7-6.29.7-6.29,6.76,3.27,8.62,2.1,13.28-11.64,13.28-11.64,1.16,4.65,3.26,5.12,20.73-6.76,20.73-6.76-2.1,7.69-1.4,8.16,15.6-1.4,18.4-2.1,16.77-1.16,16.77-1.16h7.92s-3.73,1.86-3.26,3.72,4,7,7.22,7.92,15.37,7,15.37,7-10.71-.47-10.71.7,2.09,9.08,4.65,10.71,9.32,9.08,9.32,9.08-15.14-.93-16.3-.23-4.9,7.46-4.9,7.46,4.9,5.35,4.2,5.35-12.58,4.43-12.81,5.59-.7,8.39,0,8.62,14-2.8,16.53-1.63,18.17,11.88,20,14.91,6.29,17.23,6.29,17.23,3.73-7.92,4.2-6.29-.47-16.3-.47-16.3,4.66,8.15,5.12,9.78,4.66,2.56,5.36,1.4,2.33-17,2.33-17,3.49,13,4.66,12.34,3.49-10.25,3.26-11.18-3.5-9.55-3.5-9.55,5.36,4,5.36,2.8.47-4.66.47-4.66l8.61,12.57s2.8-4.89,2.8-5.59,1.63-7.22,1.63-7.22,3.49,16.31,2.56,17.71-16.3,30-19.1,35.63-9.78,19.8-9.78,21.66-3.26,8.62-3.73,9.32-8.61,9.08-8.61,9.08l.93,11.65a15,15,0,0,1-3.26,1.39c-.7,0-24.69,7.92-24.69,7.92s6.06-14,5.82-14.9-4-9.78-5.82-14.68-10.71-20.26-10.71-20.26-9.09,5.12-9.79,4.89-6.52-.93-6.52-1.63-2.79-9.55-2.79-10.25,1.4-12.34,1.16-13-4-4.89-4-5.59-4-24.92-4.89-26.09-4.42-10.24-4-11.17,10.25-24.93,10-26.79-1.87-11.88-2.57-12.58-33.3-3-37.49-3-20.5,4.89-22.83,4.89-11.88,2.09-11.88,2.09l-7.45-1.16Z" transform="translate(-36.48 -42.19)" fill="#ede0df"/><path d="M357.85,226.35c.71-.15,5.22,0,5.22,0s0,3.1-.14,3.66-3.53,7.06-3.39,6.63,1.13-6.35.85-6.91S357.85,226.35,357.85,226.35Z" transform="translate(-36.48 -42.19)" fill="#e5dbda"/><path d="M351.93,214.92c.56,0,5.92.7,6.49,1.27s5.92,2.54,7.05,2.68,4.94.42,4.94.42-5.5,1.41-5.93,1.41-6.2-.7-6.2-.7c-1.27,0-4.38-1.55-4.38-1.55Z" transform="translate(-36.48 -42.19)" fill="#e5dbda"/><path d="M347.41,197.71c-.41.09-4.51,1.27-4.93,1.41s-4-3.81-4.38-4.23c-.28.56,4.24,7.05,4.24,7.05l11.56,5.22-.42,1.84,5.64-1.13s.28-4.09.28-4.52c1.27-.15,3.41-.59,3.48-.88s1.7-6.34,1.62-6.56-2.13-2.79-2.13-2.79-.45,7.14-.89,7.28-5.74,1.48-6,1.4S347.63,197.67,347.41,197.71Z" transform="translate(-36.48 -42.19)" fill="#e5dbda"/><path d="M355.92,140.51c.32,1,5.59,12.68,5.7,13.22s1.4,4,1.4,4,.75-2.8,1.07-2.8a72,72,0,0,1,7.31,1.72c.54.32,9,4.09,8.71,4.09s-3.87.86-3.87.86,8.71-.43,8.81-.76,7.1-11.28,7.1-11.28-10.64-8-12-8.93-12.69-3.54-13.33-3.54S355.92,140.51,355.92,140.51Z" transform="translate(-36.48 -42.19)" fill="#ede0df"/><path d="M112.54,225.65c1.51-.17,8.55.5,8.89,2s4.53,10.41,3.35,10.24-6.54-.17-6.54-.17L95.76,238.9s-2.69,35.74-3,41.62-.17,33.05-.17,33.05l-5.87-.17s1.67-33.55,1.67-40.1.84-34.4.84-34.4h4l-1-9.39S95.42,234,95.42,233s.5-10.57,1.51-9.9,9.23,1.68,9.23,1.68-6.88.5-6.88,1,.17,6.37,1.17,6.37,7.39,1.34,7.39,1.34S110,228,109.52,228a23.66,23.66,0,0,1-3-.84h5.87Z" transform="translate(-36.48 -42.19)" fill="#e5dbda"/><path d="M135,226.66l2.35,4.19s7.55-10.24,7.72-9.23-1.68,10.57-1.68,10.57l-5.54.17.34,5.2,3.69.5s-1.85,58.9-2,61.42-1.68,14.09-1.18,14.09,8.22-.5,8.22-.5-.5-26.68-.33-35.07-.34-40.1-.34-40.1,6.71,0,6.21-.17-3.86-2-3.86-2.52S150,222.12,150,221.45s-2.35-4.86-2.35-4.86l-2.85,2-2-.84Z" transform="translate(-36.48 -42.19)" fill="#e5dbda"/><path d="M112.22,230a9.11,9.11,0,0,1,4.89.61c.61.46,2.75,6,2.75,6a16.45,16.45,0,0,0-3.21-2.14c-.76-.15-6-.46-6-.46Z" transform="translate(-36.48 -42.19)" fill="#bc9393"/><path d="M53,318.5c.33,1.33,3.83,3,4.5,2.83s219.5,1,218.83.84-42.5-2.67-42.83-3.34a14.47,14.47,0,0,1-.67-2.5l-183.16.17Z" transform="translate(-36.48 -42.19)" fill="#e6e8e7"/><path d="M230.33,249.33c0,1.17.5,15.67.34,17.84s.66,14.33.66,14.33h-2.16s-9-32.5-8.17-32.5S230.33,249.33,230.33,249.33Z" transform="translate(-36.48 -42.19)" fill="#e6e8e7"/><path d="M202,250.5l7,31.83-7.83.17s-2.17-9.83-5.67-10.83-9.5-1.17-11.33.5a106.78,106.78,0,0,0,.66-11.67c0-1.5.67-2.67.17-4.5a40.83,40.83,0,0,1-.83-5Z" transform="translate(-36.48 -42.19)" fill="#e6e8e7"/><path d="M188,282.67l4,.33s-.33-3.33-1.67-3.33S188.67,281.5,188,282.67Z" transform="translate(-36.48 -42.19)" fill="#e6e8e7"/><path d="M201.33,283.83s7.84-.5,7.84,0,6.16,28.84,6.16,28.84l-21.66-.17s4.66-2.17,6.83-11.33A49.24,49.24,0,0,0,201.33,283.83Z" transform="translate(-36.48 -42.19)" fill="#e6e8e7"/><path d="M187.5,283.67l4.5.16s3.5,16.67-1.83,19.34S186,288.5,187.5,283.67Z" transform="translate(-36.48 -42.19)" fill="#e6e8e7"/><path d="M167.83,287l10.5.33s-1,8.5.17,13.5,5.33,10.84,7.67,11.84l-18.17-.5Z" transform="translate(-36.48 -42.19)" fill="#e6e8e7"/><path d="M229.17,281.5c1.16-.33,19.66.67,19.66,1.17s-.66,4.16-1,7.66-.16,16.67-.16,17.5.16,4.84.16,4.84l-11.66.16Z" transform="translate(-36.48 -42.19)" fill="#e6e8e7"/><path d="M195.83,283.33c-2.16-11.66-7.18-12.56-8.66-12.33-8.67,1.33-10.5,19.83-8.84,27.67s5,15.5,11.17,13.83S198,295,195.83,283.33Zm-5.66,19.84s-1.84,1.66-4.5-.67-1-18.33-.17-21.17,2.83-1.83,4.83-1.66Z" transform="translate(-36.48 -42.19)" fill="#e5dbda"/><path d="M205.17,198.67c0,1.33,15.66,72.83,16.5,75.83s6.16,31.17,6.33,32.33,1.5,6,1.5,6l-14.17-.16-3.66.66-6-29.66,1.66.33-7.66-33.17,2.33-.33-11.5-51.17Z" transform="translate(-36.48 -42.19)" fill="#e5dbda"/><path d="M239.17,195.17c-6.34,2.83-9,14.33-7.84,25.33s6.5,15.17,9.17,15.17,8.83-5,8.83-19.5S241.5,195,239.17,195.17ZM238.5,226c-5.17-9.33-1.17-19.83-.67-21s3.5-.83,5.17-.67c-3.67,3-3.33,10.34-2.33,15.67,1,5.58,2.5,6,2.5,6A9.88,9.88,0,0,1,238.5,226Z" transform="translate(-36.48 -42.19)" fill="#e5dbda"/><path d="M549.3,582.27c-.91-2.13-.61-37.49-1.83-46.94S542.9,493,542,486.56s-.31-35.67.3-32.31,5.49,53.34,7,64.31,9.15,26.22,7.62,27.74-5.18,5.79-4.57,9.76,2.14,7.92,1.53,12.5S549.3,582.27,549.3,582.27Z" transform="translate(-36.48 -42.19)" fill="#bfa19f"/><path d="M413.78,91.94c1,0,12,11.45,12,11.45s-19.52,6.51-19.52,8.33S387.23,138,388,139.05s3.65,8.85,3.65,8.85l-7.29,12,14.31,5.21s-15.61,16.92-15.61,17.7,3.64,42.94,5.2,40.6,17.18,5.21,16.66,7-34.88,22.9-33.84,22.9,42.17-7.55,44-7.55,9.63-6.76,9.63-6.76,11.56-27.18,12.23-28.37,6.77-16.92,6.77-18.48,2.6-17.18,1.82-18-5.72-5.73-6-6.77-6-32.27-5.47-33.57,7-24.47,7-25.77S439,91.68,439,91.68Z" transform="translate(-36.48 -42.19)" fill="#ede0df"/><path d="M424.71,261.38c1.63-.36,10.15-1.82,10.15-2.86s14.63-31.11,14.63-29.55-1.1,10.29-.31,7.95,6.5,2.34,6.24,4.42.52,12.49.52,12.49,16.4-3.9,17.7-5.46,7-15.1,7-15.1S464.79,196.05,464.53,195s-6.5-3.9-8.59-3.9-14.83-.26-16.91,1.3-1.57-.52-8.85,7.81-9.11,26-9.37,27.85S424.71,261.38,424.71,261.38Z" transform="translate(-36.48 -42.19)" fill="#ede0df"/><path d="M444.83,201.37c1.47.25,4.9.74,5.15-.49s5.4-7.12,5.4-7.12,7.36-2.94,6.13-1.47-5.15,5.89-5.4,6.63-19.38,23.8-19.38,23.06,5.89-14.23,5.89-14.23Z" transform="translate(-36.48 -42.19)" fill="#e2cdcc"/><path d="M362.56,248.63s6.1,3.7,7,3.7,40.49-7.58,42.16-8.5,9.12-3,11.33-6S434.2,225.07,434.2,226s-7.86,16-8.23,17.1,2,4.25,2.4,5-2,12.94-2,12.94-7.58,2.22-8.32,2.59a39.65,39.65,0,0,1-4.62,1.11s-1.67-13.87-2.59-14.61-4.62-2.22-15.71-.18-24.59,5-25.89,4.8S362.56,248.63,362.56,248.63Z" transform="translate(-36.48 -42.19)" fill="#e2cdcc"/><path d="M360.65,149.65c.22.89,0,13.71-.88,15s-8,17.46-8.4,18.78-4.64,7.52-4.64,7.52,6.85.88,7.51.88,7.3.44,7.3.44,3.75-14.36,4.64-16.13,8.18-12.38,8.18-12.38l-9.73-.88s-2-6-.88-9.51Z" transform="translate(-36.48 -42.19)" fill="#ede0df"/><path d="M182.7,367c.18.74-.37,11.07-.37,12.91s.18,5.17.18,5.17,3.33-3.14,3.88-2.58,16.79,8.67,17,10,6.27,10.14,6.27,10.14-6.82-18.08-6.82-19,4.61-6.09,4.61-6.09l-18.82-4.61Z" transform="translate(-36.48 -42.19)" fill="#e5dbda"/><path d="M379.38,516.83c-3.56-.36-4.12,8.23-.47,8.47S382.91,517.18,379.38,516.83Z" transform="translate(-36.48 -42.19)" fill="#bfa19f"/><path d="M377.83,554.57c-3.56-.36-4.12,8.23-.47,8.46S381.36,554.92,377.83,554.57Z" transform="translate(-36.48 -42.19)" fill="#bfa19f"/><path d="M376.28,592.3c-3.56-.35-4.11,8.24-.47,8.47S379.81,592.66,376.28,592.3Z" transform="translate(-36.48 -42.19)" fill="#bfa19f"/></g><g id="L" style="mix-blend-mode:screen"><path d="M352.86,90.35c-.62-1.25-2.65-3.58-2.8-5s0-4.2.31-3.73,1.24,1.4,1.87,0,2.33-4.83,2.33-4,.47,6.07.47,8.25,2.49,6.22,2,5.75-3.27-4-3-3.42.94,3.11.63,2.65S352.86,90.35,352.86,90.35Z" transform="translate(-36.48 -42.19)" fill="#383232" opacity="0.44"/><path d="M361.32,84.07c-.13-1-1.78-5.83-1.52-7.23s4.44-7.73,4.18-7.1-.51,3.3.13,2.66,5.45-4.69,5.2-4.05,4.31-.38,5.58-1-4.57,5.33-5.07,6.34-.26,11.55-.76,10.28-2-6.85-2.29-5.46-1.27,2.92-1.65,2.54-3-3.3-3-2.66S361.32,84.07,361.32,84.07Z" transform="translate(-36.48 -42.19)" fill="#383232" opacity="0.44"/><path d="M377.05,73.93c0-1.94,9.51-9.39,11.41-10.91S405,53.38,403.05,54.9s-5.83,6-4.69,5.45,8.12-3.42,8-3-3.3,4.31-2.41,4.19-7.48,5.45-9.39,7.35-6.09,7.23-6.09,6.73-1-4.82-1.9-3.81-5.33,4.19-5.45,3.81-1.4-1.78-1.78-1.27-2.66,6.34-3,5.71S377.05,74.56,377.05,73.93Z" transform="translate(-36.48 -42.19)" fill="#383232" opacity="0.44"/><path d="M409.83,67.51c3-2,10.37-8.84,13.26-11.49,3.19-1.51,27-6.14,37.27-5.64a353.06,353.06,0,0,1,35.09,4.37c3.53.84,21,10.41,18.81,9.91s-24.52-8.23-22.67-7.06,8.56,5.38,7.22,4.54-30.89-7-34.59-6.72-39.28,9.07-38.28,7.89,9.24-5,8.06-5S419.56,65.66,419.9,65s3-4.53,2.35-4S409.83,67.51,409.83,67.51Z" transform="translate(-36.48 -42.19)" fill="#383232" opacity="0.44"/><path d="M458.85,44.68c1.46-.4,24.51,1,31.23,2a142.09,142.09,0,0,1,17.8,4.2c.67.33,6.54,5,4.53,4a78.82,78.82,0,0,0-21.83-6.38c-11.41-1.68-24.34-2.86-31.06-2.86C456.33,46,449,47.19,449,47.19S457,45.18,458.85,44.68Z" transform="translate(-36.48 -42.19)" fill="#383232" opacity="0.44"/><path d="M435,70.39c6.33-1.06,26.15-8.26,28.39-7.74s27,14.45,32,17.72,27.7,29.93,25.81,27.7-20.82-19.44-20-17.9,5.34,6.89,4.48,6.37S493,84.67,490.93,83.29s-29.76-10.15-29.25-10.84,8.43.86,7.4.18-5.16-3.62-7.4-3.27-15.82,4-14.62,3.27,11.36-5.34,8.6-4.65S434,70.56,435,70.39Z" transform="translate(-36.48 -42.19)" fill="#383232" opacity="0.44"/><path d="M505.21,76.24c.92,1.23,21.68,23.4,22.88,25s8.95,22.7,8.6,21.33-2.06-10-1.54-9.29,4,3.44,3.44,2.41-4.13-13.94-3.44-13.08,3.09,3.27,2.75,2.58-3.44-6.54-4.65-7.57-17.54-17.89-17.37-17,3.09,5.33,2.06,4.65S504.7,75.55,505.21,76.24Z" transform="translate(-36.48 -42.19)" fill="#383232" opacity="0.44"/><path d="M520,118c.17,1.55,4,10.16,4.47,11.7s5.68,9.81,5.68,8.95-.18-4.82.68-3.61,2.93,2.75,2.76,1.37-5-18.06-5-16.34.17,6.88-.35,5.5-1.72-4.12-1.89-3.26-1.2,3.44-1.55,2.58S520,118,520,118Z" transform="translate(-36.48 -42.19)" fill="#383232" opacity="0.22"/><path d="M479.92,86.91c1.2.68,10.49,4,11.7,5.5s8.95,8.26,7.57,7.57-8.6-2.92-11-4.3-13.42-5.16-12.56-5.16,9.63,1.72,8.6,1-4.81-2.41-3.78-2.24S479.92,86.91,479.92,86.91Z" transform="translate(-36.48 -42.19)" fill="#383232" opacity="0.44"/><path d="M489.21,103.25c1.89,1,10,4.13,11.36,5.33S514,123.21,513.3,122.35s-5.85-2.76-5.16-1.72,6,6.53,4.81,5.67-7.22-5.16-9.12-5.85-15.65-6.53-14.62-6.19,10.84.86,10.15.34-6.88-4.47-6-4.47,3.44-.51,2.06-1.55S489.21,103.25,489.21,103.25Z" transform="translate(-36.48 -42.19)" fill="#383232" opacity="0.22"/><path d="M482.16,120.45c1.55.52,10.84,2.41,13.59,4.48s9.8,12,10.49,13.59,2.76,15,1.9,12.38-4.48-11.69-4.48-9.46,1,5.51.52,4.48a124.57,124.57,0,0,0-8.43-10.5c-1.55-1.55-10.67-6.88-9.64-6.54s8.61,1.38,6.89.35-5.34-3.79-4.3-3.79,3.95.35,2.75-.34S482.16,120.45,482.16,120.45Z" transform="translate(-36.48 -42.19)" fill="#383232" opacity="0.22"/><path d="M473.56,132.5c1.54.68,7.74,2.41,8.94,3.09s9.46,6.2,10.15,7.06a48.55,48.55,0,0,1,3.79,8.6c.17,1.2,2.06,10.67,1.2,8.26s-3.78-10.15-3.78-7.92.51,4.65,0,3.79-6-6.54-6.71-7.57-9.81-6.2-8.61-6,5,.34,3.79-.35-12.73-4.82-11.87-5,7.74.17,6.54-.51a35.46,35.46,0,0,1-3.62-2.76" transform="translate(-36.48 -42.19)" fill="#383232" opacity="0.22"/><path d="M88.31,226.08c-.1-1.46-1.41-4.79-.12-4.93s14.09-2.3,14.38-1.59,7.76,8.05,8.19,7.91a6.71,6.71,0,0,1,1.43-.14l.72-1.59s8.19.87,8.48,1.44,3.59,6.61,3.74,6,2.15-3.16,3.16-2.88,5.17,2.3,5.17,1.58,0-2.87.72-2.44,2.59,1.44,2.59,1.44L135,227s10.21-14.52,10.93-14.37,6,1.15,6,1.58-.57,13.36-.14,12.79,3.74-6.32,3.88-5.61.86,3.45,1,2.59,2.15-12.37,1.43-12.66-11.57-1.2-12.72-.49S133,224.78,133,224.78a19.57,19.57,0,0,0-3.88-1.08c-1,0-16.47.83-17,1a5.69,5.69,0,0,0-1.19.5s-8-7.43-8.89-7.72-14.92,2.27-15.21,2.7S88.31,226.08,88.31,226.08Z" transform="translate(-36.48 -42.19)" fill="#a3986a" opacity="0.33"/><path d="M148.19,239.58c1.56-.52,9-.86,9.16-.34s-.52,64.82-.86,62.92-2.08-32.67-2.42-31.12-1.21,6.23-1.56,5.36-.52-10.71-.52-10.71-3.63,8.47-3.63,6.22S148.19,239.58,148.19,239.58Z" transform="translate(-36.48 -42.19)" fill="#a3986a" opacity="0.33"/><path d="M179.43,387.42c.94-.95,5.65-5.5,6.59-5s16.63,8.31,17.25,9.56,9.26,15.69,8.32,15.06-7.85-9.56-8.32-9.88-1.57-3.92-2.35-3.45-1.73.16-2.82-.63-10-7.68-11.3-7.68S179.43,387.42,179.43,387.42Z" transform="translate(-36.48 -42.19)" fill="#725e4c"/><path d="M221.11,334.56c-.11,1,.44,24.64.66,25.51s7.08,20.93,6.87,21.81-2.29,14.6-2.51,14.17.65-13.85-.33-16-7.52-17.77-7.63-18.31.76-26.06,1.2-26.72,3-4,3-4Z" transform="translate(-36.48 -42.19)" fill="#725e4c"/><path d="M220.88,415.45c.94-1.13,6.58-9,7.52-9.6s7.34-1.88,8.09-1.32,7.91,7.9,7.91,7.9l-11.1,10.35s.94-3.2-.19-3.95-4-3-4-4.33S220.88,415.45,220.88,415.45Z" transform="translate(-36.48 -42.19)" fill="#725e4c"/><path d="M252.11,414.13c2.19,1.75,30.11,27.28,32.74,31.61a35.07,35.07,0,0,0,3.58,5.27l10,5.27,10.72,2.25s5.46-19.75,5.46-20.69-1.13,31.23-1.69,31.42-6.21-6.21-6.21-4.89.19,19.57-.38,18.63-5.08-13.55-5.08-13.55l-5.83,3s-5.08-10.92-7.34-13.55-9.6-11.67-11.1-12.79-23.52-24.65-24.46-24.47-16.75,8.85-16.75,8.85S250.23,412.62,252.11,414.13Z" transform="translate(-36.48 -42.19)" fill="#4c5d70" opacity="0.22"/><path d="M327.9,386.82c1-4.08,5.82-15.34,7.18-18.64s11.65-25.81,13-26.78,26-20,25.82-18.64-4.85,20.19-5.43,18.83-1.17-8.54-2.91-6-7,9.13-8.55,8.74-4.66-.59-5.63,1-16.3,26-17.08,27.37S327.9,386.82,327.9,386.82Z" transform="translate(-36.48 -42.19)" fill="#4c5d70" opacity="0.22"/><path d="M504.74,256.76s3.69,3.88,2.92,4.46-52.42,65-53.78,66.59-21.35,37.66-22.52,39.79-10.67,15.34-10.67,15.34,25.82-58.63,27-60.38,36.11-42.31,39.41-46,15.72-17.09,15.72-17.09Z" transform="translate(-36.48 -42.19)" fill="#4c5d70" opacity="0.22"/><path d="M451.36,260.64c0,2.78,1,31.83,2.13,30.67s5.63-12.42,7.58-11.84,7.37-.39,7.76-1.36,5.05-4.08,6.41-4.66,14.56-13.2,16.3-12.62,7.19-.58,8-1.36,1.94-2.91,1.75-3.49-.39-12-2.33-11.65-15.34,3.5-20.58,5-20.77,7.76-21.93,8S451.36,259.86,451.36,260.64Z" transform="translate(-36.48 -42.19)" fill="#4c5d70"/><path d="M545.5,310.44c4.11.3,24.64,5.14,26.4,5.58s36.38,24.2,36.53,24.79.43,4.54-.15,4-34.47-16.28-36.82-16-25.23,5.43-28.9,8.21-10.85,15-10.85,15,7-17.9,7.92-18.78,23.62-11.88,22.74-12.32-4.4-1.32-4-1.91,2.2-.88.88-1.47S545.5,310.44,545.5,310.44Z" transform="translate(-36.48 -42.19)" fill="#4c5d70" opacity="0.22"/></g></g></svg>