<svg xmlns="http://www.w3.org/2000/svg" xmlns:xlink="http://www.w3.org/1999/xlink" viewBox="0 0 815.63 489.04"><defs><radialGradient id="radial-gradient" cx="-265.13" cy="135.89" r="46.28" gradientTransform="matrix(0, -0.48, 0.91, 0, 127.86, 313.31)" gradientUnits="userSpaceOnUse"><stop offset="0" stop-color="#ffbe55"/><stop offset="1" stop-color="#ffbe55" stop-opacity="0"/></radialGradient><radialGradient id="radial-gradient-2" cx="-262.78" cy="145.62" r="32.33" xlink:href="#radial-gradient"/><radialGradient id="radial-gradient-3" cx="149.21" cy="566.5" r="32.33" gradientTransform="matrix(0, -0.35, 0.85, 0, 159.11, 298.21)" xlink:href="#radial-gradient"/><radialGradient id="radial-gradient-4" cx="158.96" cy="574.03" r="22.9" gradientTransform="matrix(0, -0.35, 0.85, 0, 159.11, 298.21)" xlink:href="#radial-gradient"/><radialGradient id="radial-gradient-5" cx="290.27" cy="597.27" r="22.9" gradientTransform="matrix(0, -1.53, 0.97, 0, 90.44, 623.25)" xlink:href="#radial-gradient"/><radialGradient id="radial-gradient-6" cx="304.24" cy="613.75" r="20.96" gradientTransform="matrix(0, -0.86, 0.64, 0, 281.69, 426.47)" xlink:href="#radial-gradient"/><radialGradient id="radial-gradient-7" cx="414.76" cy="60.93" r="20.96" gradientTransform="matrix(0, -1.1, 0.71, 0, 275.24, 527.22)" xlink:href="#radial-gradient"/></defs><g style="isolation:isolate"><g id="C"><path d="M63.46,263.66c-7.78,3.89-11.85,7.07-11.85,23.21,0,9.59.25,137,1,137.21s45.15,6.81,46.66,6.31,90.55-34.56,90.55-35.31-1.51-139.74-1-143.78-.76-9.83-13.37-10.34-36.32-1-40.61-1-10.09.51-24,6.06S65.48,262.66,63.46,263.66Z" transform="translate(-51.61 -46.61)" fill="#78c1bf"/><path d="M63.55,309.8c-1.24-.1-1.24.17-2.15.09s-5.1,1.26-5.44,7.24,3.63,7.66,4.87,7.57,2.38,0,3.85-.17,4.3-3,4.08-7.49S65.59,310,63.55,309.8Z" transform="translate(-51.61 -46.61)" fill="#d9e2e8"/><path d="M59.34,315.27a3,3,0,0,1,5-.61c.91,1.37.91,13.22.76,26.43s.6,55.9,1.21,61.67,7.75,8.81,7.6-3.19-.31-44.05-.31-44.05l5.77-.91s0,39.49.16,48.31-5.32,13.36-11.09,11.84-7.14-5.62-7.9-17.31S59.34,315.27,59.34,315.27Z" transform="translate(-51.61 -46.61)" fill="#5d606b"/><path d="M82.83,289.63c-.58.9-10.21,15.25-11.54,22.81s.14,50,.4,50.53,6.1,2.25,10.21-.66c.4-1.2.27-6.63.27-6.63s3-2.52,3.18-4-2.52-34.22-2.52-34.22-.26-5.57-.13-10.35,4.51-16.71,4.51-16.71S85.49,285.52,82.83,289.63Z" transform="translate(-51.61 -46.61)" fill="#d9e2e8"/><path d="M115.21,315.15l59.5-22.58s-5-24.47-29.87-19.05C115.68,279.87,115.21,315.15,115.21,315.15Z" transform="translate(-51.61 -46.61)" fill="#a1bbc9"/><path d="M170.53,294.15c-1.1-4.1-7.1-23.68-28.63-19.11a26.62,26.62,0,0,0-9.36,3.77c-17,11.84-17.33,36.34-17.33,36.34Z" transform="translate(-51.61 -46.61)" fill="#d9e2e8"/><polygon points="92.89 250.84 106.27 232.95 107.36 232.95 100.35 252.25 92.89 250.84" fill="#c44762"/><path d="M137.05,307s.23-8.12,7.57-11.51,10.95,4.4,10.95,4.4Z" transform="translate(-51.61 -46.61)" fill="#5d606b"/><path d="M117.82,305.44c.58-.17,5.91-.17,5.91-.17l-.08,1.17-6.08.33Z" transform="translate(-51.61 -46.61)" fill="#5d606b"/><polygon points="72.04 243.33 75.87 245.08 76.62 243.91 72.87 242.08 72.04 243.33" fill="#5d606b"/><polygon points="85.46 231.83 87.21 236.58 88.12 236.25 86.87 231.16 85.46 231.83" fill="#5d606b"/><polygon points="111.2 245 115.2 242 115.79 243.08 111.62 245.66 111.2 245" fill="#5d606b"/><polygon points="103.95 231.16 101.95 235.58 102.87 236 104.87 231.5 103.95 231.16" fill="#5d606b"/><path d="M811.76,256.21c-3.24-1.95-24-3.38-26.67-3s-25,12.15-25.31,14.85,1.35,5.06.33,5.06-14.17,5.74-15.19,6.08-10.12,4.72-11.14,6.41-3.71,106.33-1.68,108.7S743.57,401,744.59,402s1,4.05,1,4.05,30.72,19.24,33.08,20.25,32.74,13.5,48.27,13.84a102.59,102.59,0,0,0,30-4.39l1.69-3.71,4.72-3s5.41-109.7,3.38-117.46S855.64,295,854.63,294.35l-19.58-13.16s-14.18-16.88-15.19-18.57S813.45,257.22,811.76,256.21Z" transform="translate(-51.61 -46.61)" fill="#6980a3"/><path d="M785.48,355.22c0-.61-11.26-70.91-10.65-73.34s7.36-15.44,11-17,25.78,5.39,26.08,6.61c-.3,1.32-3.3,8.72-4.5,13C798,299.3,785.48,355.22,785.48,355.22Z" transform="translate(-51.61 -46.61)" fill="#5d4c68"/><path d="M775.75,279.57a25,25,0,0,1,16.2-3.78c9.25,1.14,15.47,8.75,15.47,8.75l4.5-13s-6.54-10.72-19.8-10c-6.22.33-10.07,6-10.07,6C780.33,269.73,775.75,279.57,775.75,279.57Z" transform="translate(-51.61 -46.61)" fill="#bf9c7c"/><path d="M794.46,264.72c.1-1.33-1.33-8.28,3-13s11.05-11.66,5.63-18.41-14.42-1.13-12.38,7.06c-.1.41-1.94.61-1.94.61s-1.84-9,6.55-12,12.07,5.94,11.45,10.64-5.42,9.52-8,12.69-3.06,6.65-3.06,12.48C795.69,265.13,794.46,264.72,794.46,264.72Z" transform="translate(-51.61 -46.61)" fill="#545763"/><path d="M386.35,235.72c.21-7.49,23.19-19.33,79.71-20.78S545.29,226.3,541.19,234s-21.5,11.59-21.5,11.59-2.18,7.49-44.21,10.63S411,249,411,249,386.1,244.17,386.35,235.72Z" transform="translate(-51.61 -46.61)" fill="#ddcdab"/><path d="M408.71,198.89c.56-7.19,28.66-17,56.77-17.26s49.91,2.44,52.67,15.6-12.83,31.32-17.92,33.42a39.46,39.46,0,0,0-.78,4.87s-11.73,6.2-31.87,6.09-30.21-3.43-30.54-4.1-1.33-5.31-1.77-5.64S407.61,220.69,408.71,198.89Z" transform="translate(-51.61 -46.61)" fill="#ddcdab"/><path d="M417.22,203.35c-2.83-3.82,9.19-14,45.27-15.7s52.2,9.33,49.37,13-17.12,9.9-48.81,9.62S421.46,207,417.22,203.35Z" transform="translate(-51.61 -46.61)" fill="#6d4a3c"/><path d="M490.75,211.9s2.83-10.08,9.14-12.44,13.86.63,13.39,13.39-6.93,23.16-21.59,21c-1.1.16-.31-8.19.48-8.66s9.29-.63,10.55-9c1.29-8.57-4.25-6.15-4.1-.32-.47.63-6.77,1.42-7.24.95S490.75,211.9,490.75,211.9Z" transform="translate(-51.61 -46.61)" fill="#ddcdab"/><path d="M782.79,406.81c-4-1.24-3.4,6.48-.93,6.79S784.79,407.43,782.79,406.81Z" transform="translate(-51.61 -46.61)" fill="#8fa9bc"/><path d="M784.05,388c-4-1.25-3.39,6.48-.92,6.79S786.06,388.57,784.05,388Z" transform="translate(-51.61 -46.61)" fill="#8fa9bc"/><path d="M785.32,368.74c-4-1.25-3.39,6.48-.92,6.79S787.33,369.36,785.32,368.74Z" transform="translate(-51.61 -46.61)" fill="#8fa9bc"/><path d="M437.2,393.45c.36-.69,5.94-.11,5.83.44S436.32,395.1,437.2,393.45Z" transform="translate(-51.61 -46.61)" fill="#edd7be"/><path d="M378.72,497.53c0,3.23.88,17.65,2.36,21.77s22.07,14.72,37.08,15.9,63-.3,70.34-.3,40-9.42,45.91-14.12,12.07-15.6,12.07-19.43-.3-18.83-.89-20.31-66.51-1.17-76.52-.58-59.45,5.59-63,5S378.72,497.53,378.72,497.53Z" transform="translate(-51.61 -46.61)" fill="#edbe85"/><path d="M384.15,482.33c-1.84.57-13,8.49-15.69,10.18S363,497.6,363,498a20.9,20.9,0,0,0,.56,2.4s7.92.56,15.69,1.27,20.08.28,28.56,1.41,23.46,5.23,33.5,4,34.07,2.26,45.09,8.34,15.41,12.16,15.83,12.58a4.23,4.23,0,0,0,1.84.57s17-6.51,23.18-15.69,11.6-13.29,15.27-17.67a69.1,69.1,0,0,1,9.75-9.47,30.77,30.77,0,0,1,4.81-2.27s.14-2.26-.28-2.68-9.33-6.93-13.15-7.78-101.49,7.64-103.76,7.64S384.15,482.33,384.15,482.33Z" transform="translate(-51.61 -46.61)" fill="#fcbe5b"/><path d="M386.49,463.37c-1.53,2.44-6.26,7.48-6.44,10.44s0,15.14,3.83,18.09,1.39,4,7.66,4.35a47.12,47.12,0,0,1,12.18,1.92c4.87,1.22,7.82,3.13,11.3,2.26s11.31-.87,20.71-.7,38.1,3,42.1,1,13.05,3,15.14,1.39,11-4,16.71-4.18,16,.18,17.22-1.21,12.35-2.79,14.62-5.4,5-.17,5.39-7.13,1.22-7.13.7-12.53,2.95-7.13-2.27-10.26-6.43-4.7-15.48-7-12-4.18-30.28-4.7-21.05-1.22-38.45,1-17.74,3.83-36.54,6.61-28,3.66-28.53,3.66S387.36,462,386.49,463.37Z" transform="translate(-51.61 -46.61)" fill="#a57351"/><path d="M548.33,466.83c0,.65-.13,2.33-.26,4.39s-.45,10.15-.84,10.28-1.87-4.33-3.17-3.95-3.87,4.65-4.78,7.62a23.63,23.63,0,0,0-.9,6.46,6.36,6.36,0,0,1-.39,1.55l-5,1.43s-.77-2.07-2.45-5.95-2.71-5.68-5.3-4.52-3.66-.27-5,1.93-3.38,9.56-8.29,8.79c-5.11-.79-2.62-5-9.72-5.66s-10.37-1.05-15.92,2.69-7.11,5.3-11.37,4.65-11.63-4.13-12.27-4.13,42.76-23.25,43.14-23.51,37.21-11.24,37.86-11.24S548.33,466.83,548.33,466.83Z" transform="translate(-51.61 -46.61)" fill="#dd3c3c"/><path d="M538.17,453.25s16.35,8,16.35,9.2a12,12,0,0,1-.82,3.27s-39.85,8-51.9,12.67-18.19,11-30.86,13.48-35.76,5.52-39.64,7.56-8,5.32-8,4.3-4.29-1.84-9.4-7.56-16.76-19.42-17.58-21.87.82-23.29,2.25-24.72,28.61-19,38.83-20.85,63.14-6.54,63.14-6.54Z" transform="translate(-51.61 -46.61)" fill="#fcbe5b"/><path d="M379,459.56c-.59-8.83,2.06-26.78,8.82-36.49s22.37-27.38,47.09-33.26,54.45-4.42,72.11,3.82,33.26,29.73,35.61,36.5S545.59,451,544.12,454c-1,2-23.93,13-30.47,25.44-6.54-6.74-12.81-14-16.55-13.49-5.73,5.72-14.6,7.4-31.47,7.56-6.12.06-11.21,4.64-16.55,3.68-4.7-3.47-12.49-8.26-16.35-15.94-4.22-.19-7.22,9-10.42,8.79-6.75-5.31-10.43-10.83-17.37-14.92-4.9-.24-7.4,16-10.8,15.69-3.79-.39-6.39-.88-7.18-1.51C384,466.92,379,459.56,379,459.56Z" transform="translate(-51.61 -46.61)" fill="#edbe85"/><path d="M382.55,463.09c1.76,0,7.06,4.42,8.24,2.65s2.94-14.71,5-15.89,12.66-6.77,16.19-.89,9.12,15.31,12.36,12.07,7.06-7.65,9.42-6.18,3.82,12.95,16.18,14.42,25.61-2.35,30.91,0S495,451.91,498.8,455.73s12.36,20.31,13.83,18,6.18-10.89,8.54-10.3a19,19,0,0,0,8.24-.3c1.47-.59,7.06-3.82,7.06-3.82s-7.36,11.77-8.54,11.18-5.59-1.18-5.88.59-7.36,19.13-9.42,17.36-11.48-20.6-13.83-18.83-13.54,14.12-16.19,12.95-13.24-5.6-16.77-5.3-15.9,10.89-19.13,8.53S433.76,466,432.58,466.62s-5.59,12.07-7.95,11.48S407,459.56,405.5,459.56s-7.06,23.25-8.83,22.37-10.59-9.13-10.89-10.3S382.55,463.09,382.55,463.09Z" transform="translate(-51.61 -46.61)" fill="#bdd87c"/><path d="M389.41,440.83c-2.55-1.46-3.63,5.39-1.65,5.94S390.18,441.27,389.41,440.83Z" transform="translate(-51.61 -46.61)" fill="#edd7be"/><path d="M398.54,424.88c-1.48-.8-6.16,3.63-4,5.17S399.75,425.54,398.54,424.88Z" transform="translate(-51.61 -46.61)" fill="#edd7be"/><path d="M409.65,415.86c-.54-1.33-3.41.33-3,1.54S409.87,416.41,409.65,415.86Z" transform="translate(-51.61 -46.61)" fill="#edd7be"/><path d="M417.46,429.28c-1.36-.59,2-4.73,3-4.18S419.22,430.05,417.46,429.28Z" transform="translate(-51.61 -46.61)" fill="#edd7be"/><path d="M422.19,436.32c-.83,1.65,2.53,3.41,3.19,2.2S422.63,435.44,422.19,436.32Z" transform="translate(-51.61 -46.61)" fill="#edd7be"/><path d="M440.12,431.48c-1.23-1.23,4.4-4.07,5.28-2.75S441.33,432.69,440.12,431.48Z" transform="translate(-51.61 -46.61)" fill="#edd7be"/><path d="M442,442.37c-1.59.35-.33,5.39,1.43,4.84S444,441.93,442,442.37Z" transform="translate(-51.61 -46.61)" fill="#edd7be"/><path d="M454.86,452.05c-1.83,1.22,2.42,6.38,3.52,4.62S456.84,450.73,454.86,452.05Z" transform="translate(-51.61 -46.61)" fill="#edd7be"/><path d="M474.33,453.15c-.93-1,3.41-4.29,4.84-3.3S476.2,455.13,474.33,453.15Z" transform="translate(-51.61 -46.61)" fill="#edd7be"/><path d="M462.34,436.54c-.61-1.31,5.06-3.63,5.72-1.1S463.11,438.19,462.34,436.54Z" transform="translate(-51.61 -46.61)" fill="#edd7be"/><path d="M449.91,416c.24-2.09,6.27-2.2,6.38.11S449.69,417.84,449.91,416Z" transform="translate(-51.61 -46.61)" fill="#edd7be"/><path d="M423.4,414c-.53-1.14,4.84-4.18,5.61-2.31S424.17,415.64,423.4,414Z" transform="translate(-51.61 -46.61)" fill="#edd7be"/><path d="M406.68,436.32c-.27-1.47,3.85-2.31,4.29-1.1S406.9,437.53,406.68,436.32Z" transform="translate(-51.61 -46.61)" fill="#edd7be"/><path d="M427.69,400.57c-.83-.92,4.29-2.86,5.28-2S428.68,401.67,427.69,400.57Z" transform="translate(-51.61 -46.61)" fill="#edd7be"/><path d="M456.29,402.77c-.88-.94,3.85-3,4.84-1.65S457.83,404.42,456.29,402.77Z" transform="translate(-51.61 -46.61)" fill="#edd7be"/><path d="M494.9,395.4c-1.55.64,2.31,4.84,3.85,3S496.22,394.85,494.9,395.4Z" transform="translate(-51.61 -46.61)" fill="#edd7be"/><path d="M477.19,415.31c-.65-.87,3-3,3.63-1.76S478.18,416.63,477.19,415.31Z" transform="translate(-51.61 -46.61)" fill="#edd7be"/><path d="M483.13,419.05c-.73.45,1.43,4.29,3.08,2.86S484.89,418,483.13,419.05Z" transform="translate(-51.61 -46.61)" fill="#edd7be"/><path d="M505.13,413.77c-.58,1.21,4.29,4.18,5.94,2S506.23,411.46,505.13,413.77Z" transform="translate(-51.61 -46.61)" fill="#edd7be"/><path d="M520.2,412.23c-1.07.51,1.1,3.63,2.2,3.3S522.07,411.35,520.2,412.23Z" transform="translate(-51.61 -46.61)" fill="#edd7be"/><path d="M528.67,429.61c-2.91.73-.22,6.27,1.54,5.39S530.43,429.17,528.67,429.61Z" transform="translate(-51.61 -46.61)" fill="#edd7be"/><path d="M518.33,443.47c-1.46-2-5.94,3.85-3.74,5.39S519.32,444.79,518.33,443.47Z" transform="translate(-51.61 -46.61)" fill="#edd7be"/><path d="M504.69,440.5c-.87.35-.55,5.28.66,4.95S506.34,439.84,504.69,440.5Z" transform="translate(-51.61 -46.61)" fill="#edd7be"/><path d="M203.25,275.58c45.45-17.2,105.31-29.87,173.08-35.82" transform="translate(-51.61 -46.61)" fill="none" stroke="#a2a361" stroke-linecap="round" stroke-linejoin="round" stroke-width="4"/><path d="M363.42,470.46c-2.21-.22-4.4-.45-6.59-.69-79.22-8.66-146.19-26.65-189.78-50.18" transform="translate(-51.61 -46.61)" fill="none" stroke="#e5a05c" stroke-linecap="round" stroke-linejoin="round" stroke-width="4"/><path d="M748.83,425.7c-43.12,20.39-104.58,36-176.14,43.9" transform="translate(-51.61 -46.61)" fill="none" stroke="#7b8260" stroke-linecap="round" stroke-linejoin="round" stroke-width="4"/><path d="M550.21,239.64c67.49,5.81,127.21,18.29,172.76,35.27" transform="translate(-51.61 -46.61)" fill="none" stroke="#ffc278" stroke-linecap="round" stroke-linejoin="round" stroke-width="4"/><path d="M762.89,251.29C745.64,196,699.21,171.09,648,185c-81,22-135,120-158,185" transform="translate(-51.61 -46.61)" fill="none" stroke="#e5a05c" stroke-linecap="round" stroke-linejoin="round" stroke-width="4"/><path d="M167.65,231.36c21.24-41.16,62.19-58.47,106.77-46.36,81,22,135,120,158,185" transform="translate(-51.61 -46.61)" fill="none" stroke="#7b8260" stroke-linecap="round" stroke-linejoin="round" stroke-width="4"/><path d="M444.42,169.41c-14.73-53-65.88-108-136.48-97.93-76.38,10.85-136,95.37-153.69,158" transform="translate(-51.61 -46.61)" fill="none" stroke="#ffc278" stroke-linecap="round" stroke-linejoin="round" stroke-width="4"/><path d="M479.42,169.41c14.78-53,66.1-108,137-97.93,76.64,10.85,136.43,95.37,154.21,158" transform="translate(-51.61 -46.61)" fill="none" stroke="#a2a361" stroke-linecap="round" stroke-linejoin="round" stroke-width="4"/><path d="M312.74,47.16c2.14-.43,3.49-.67,8.7-.48s14.86,8.17,14.49,26.57S323.85,97.7,321.44,97.89s-5.91.38-8.14-.18-12.79-5.78-14.09-23.25S309,47.9,312.74,47.16Z" transform="translate(-51.61 -46.61)" fill="#ffce55"/><path d="M614.19,251.72c-.48-1.13-.75-7.51-.54-10.27s9.2-7.9,29.93-7.7,27.54,6.41,27.75,7.7.43,8.79-.2,10-6.51,6.78-26.19,7.47S615,253.7,614.19,251.72Z" transform="translate(-51.61 -46.61)" fill="#ffce55"/><path d="M206.31,451.36c-.76-2.2-1.2-14.61-.86-20s14.65-15.35,47.64-15,43.85,12.47,44.18,15,.69,17.1-.31,19.4-10.37,13.2-41.7,14.54S207.65,455.2,206.31,451.36Z" transform="translate(-51.61 -46.61)" fill="#ffce55"/><path d="M659.21,144.86c3.27-.65,5.34-1,13.29-.74s22.72,12.49,22.15,40.6-18.45,37.37-22.15,37.65-9,.59-12.43-.26-19.54-8.84-21.53-35.54S653.53,146,659.21,144.86Z" transform="translate(-51.61 -46.61)" fill="#ffce55"/><path d="M225.68,181.58c7.14-3.15,32.75-16.58,35.48-16.16s14.69,2.94,17.84,2.73,25-4.41,25.61-3.78,7.35,15.74,10.71,17,28.76,7.35,28.76,7.35S291.81,215,289.92,212.86s-14.27-10.71-14.07-11.76-2.93-14.48-5-14.48-23.72.42-25.82-.21S225.68,181.58,225.68,181.58Z" transform="translate(-51.61 -46.61)" fill="#d8d8c7"/><path d="M588.28,441.63c3.42,2.8,28.32,39.21,30.81,38.58s18-9,20.53-9,64.11-4,66.29-5.91,24.58-16.49,23.64-18.36S685.37,419.54,681,419.54s-19.91,8.4-22.09,8.4-44.19,1.55-47,1.86S588.28,441.63,588.28,441.63Z" transform="translate(-51.61 -46.61)" fill="#d8d8c7"/><path d="M242.17,252.46c2,1.16,22.91,19.15,24.36,18.57s17.7-10.74,21.47-11,5.22.87,17.4-4.06,19.73-2,19.73-2l7.54-4.35-25.82-13.34s-5.8,5.22-7.25,5.22-18,3.48-19.72,3.48S242.17,252.46,242.17,252.46Z" transform="translate(-51.61 -46.61)" fill="#d8d8c7"/><path d="M632.72,83.83c5.41-3,36.08-13,35.48-13s-19-2.21-21.05-2.81-17.64-5.61-18.84-5.61-6.81,1.61-8.22,1.41-15.83-1.41-17-1.41S578.81,74,578.81,74s21.84,4.61,23.85,4.81,13.83,1,15.43,1.6S632.72,83.83,632.72,83.83Z" transform="translate(-51.61 -46.61)" fill="#d8d8c7"/><path d="M632.72,83.83l7.34-3.37s-19.73-3.4-20.58-3.58-18.33-.29-18.89-.57-12.18-3.21-12.94-3.4-4.44-1.32-4.44-1.32L578.81,74s22.44,5.13,23,5.13,15.2,1,15.58,1.14Z" transform="translate(-51.61 -46.61)" fill="#b2ba99"/><path d="M668.2,70.8s-19.73-2.33-20.39-2.71-18.69-5.56-19.5-5.71-7.79,1.63-8.22,1.41-17-1.41-17-1.41l-4.55,2s20.59,2.36,21,2.36,8.21-1,8.5-.94,17.37,4.91,18.13,5.19,13.6,2.74,13.6,2.74Z" transform="translate(-51.61 -46.61)" fill="#b2ba99"/><path d="M225.68,181.58s18.76,4.54,19.32,4.83,25.36.17,26.19.29,4.25,12,4.66,14.4c.65,1.08,13.65,12.18,14,12.18S303.44,208,303.44,208s-13.7-9.45-14.06-10.63-6.61-14.77-7-15-25.28,1.53-26,.94S234,177.72,234,177.72Z" transform="translate(-51.61 -46.61)" fill="#b2ba99"/><path d="M260.55,165.19s16.78,3.08,18,2.84,25.15-4,26.1-3.66,7.82,16,10.71,17,28.76,7.35,28.76,7.35-11.45,5.89-11.81,5.78-24.22-8.63-24.69-9.1-8-16.19-8.74-16.42-25,1.77-25.76,1.41-18.67-2.6-18.67-2.6Z" transform="translate(-51.61 -46.61)" fill="#b2ba99"/><path d="M266.53,271s15.81-9.24,21-10.86c1.69-.3,5.45-.15,6.71-.37s9.81-3.1,12.17-4,9.36-2.73,10.77-2.73,7.68.76,8,.82,8-4.14,7.29-4.29a50.54,50.54,0,0,1-4.64-2.51s-4.5,2.44-5.53,2.73-9.08.15-9.89.37-10.84,4.21-13.94,4.87-13.5.44-14.38.74-13.28,4.79-14.31,5.46-9.66,5.38-9.66,5.38A31.33,31.33,0,0,0,266.53,271Z" transform="translate(-51.61 -46.61)" fill="#b2ba99"/><path d="M242.17,252.46s19.45-4,21.51-4.39,16.67-3.39,17-3.46,18.07-3,18.36-3a11.76,11.76,0,0,0,1.62-.44,71.93,71.93,0,0,0,5.91-4.94,9.62,9.62,0,0,1,3.68,2.14s-5.6,4.13-5.9,4.13-4.13,1.18-4.5,1.18-18,3.68-18.95,3.83-17.34,4.43-18.07,4.5-15.12,4.43-15.12,4.43S242.48,252.72,242.17,252.46Z" transform="translate(-51.61 -46.61)" fill="#b2ba99"/><path d="M619.09,480.21s19-8.58,20.35-8.58,65.3-4.94,66.35-5.78,2.84-2.73,2.84-2.73,18.61-12.72,19-13.25,1.89-2.63,1.89-2.63l-10.72-7.57s-23,20-24.19,20-55.41,3.89-57,3.78S612,472.69,612,472.69,616.29,478.17,619.09,480.21Z" transform="translate(-51.61 -46.61)" fill="#b2ba99"/><path d="M588.28,441.63s21.48-11.39,23.65-11.83,46.54-1.49,47.7-1.91,16.47-7.77,21.38-8.35c3.33.68,10,4.36,10,4.36s-22.6,8.93-23.44,8.93-42.27,3.37-46.17,4.21-26.18,13.46-26.18,13.46Z" transform="translate(-51.61 -46.61)" fill="#b2ba99"/><path d="M268.12,180.13c.92-.69,11.19-9,17.07-10.49s14.19-3.58,15.57-2.2,6.12,10.27,6.12,10.85-6.12,7.84-8.19,8.77-15.23,5.76-16.61,5.19-6.7-6-8.43-6.58-6-.69-6.46-1S268.12,180.13,268.12,180.13Z" transform="translate(-51.61 -46.61)" fill="#968d78"/><path d="M283.26,245.72c-.64.78-3.14,5.1-3.06,6.05s2.33,4.37,3.93,4.73,13.34.08,14.22-.29,6.41-3.2,6.63-3.79-4.08-6.41-5-6.78-9.33-1.16-9.91-1.16S283.91,244.92,283.26,245.72Z" transform="translate(-51.61 -46.61)" fill="#968d78"/><path d="M606.51,74.89c.27.47,2.62,2.62,4.65,2.79s9.23,1.36,10.84.85a50.45,50.45,0,0,0,8.71-4.74c1-.93,3-7.11,2.21-7.45A46.37,46.37,0,0,0,624.28,65c-2.11,0-7.95,0-8.89.42A99.5,99.5,0,0,0,606.84,71C606.68,71.33,606.17,74.3,606.51,74.89Z" transform="translate(-51.61 -46.61)" fill="#968d78"/><path d="M639.24,433.39c-.84,1.22-.94,10.21-.31,11.78s14.62,16.51,17.45,16.82,19.17.47,22.94-.31,7.7-2.52,8.18-3.46-12.58-16.66-16.51-19-13.2-8-15.09-8.49S640.66,431.34,639.24,433.39Z" transform="translate(-51.61 -46.61)" fill="#968d78"/><path d="M272.27,180.75c1.62-.81,8-7,9.09-7.61s8.11-2.77,10.39-3.47a17.92,17.92,0,0,1,7-.39c.69.3,3.86,3.26,4,4.15a47,47,0,0,1-.3,6.63,50.39,50.39,0,0,1-6.92,4.65c-.89.29-10.88,3.95-12.07,3.36s-6.23-3.86-7.91-4.35-4.85-1.59-4.85-1.59A6.06,6.06,0,0,1,272.27,180.75Z" transform="translate(-51.61 -46.61)" fill="#d3c5a9"/><path d="M283.81,247.75a5,5,0,0,1,2.76-1.8c1.3-.27,10.65,0,11.45.5a49,49,0,0,1,3.8,3.14,4.32,4.32,0,0,1,.07,2.53c-.3.38-4.29,2.72-5.21,2.72s-8.08.34-8.46.23-4.14-1.46-4.48-1.92a12.24,12.24,0,0,1-.89-3.56A9.36,9.36,0,0,1,283.81,247.75Z" transform="translate(-51.61 -46.61)" fill="#d3c5a9"/><path d="M611.08,69.75c-.65.59-1.85,2.16-1.85,2.86a5.32,5.32,0,0,0,1.93,2.93,55.26,55.26,0,0,0,9,.85c1-.15,5.56-1.23,6.8-2.47s3.39-4.32,3.24-4.94-1.16-2-1.7-2-9.73-.54-10.82-.47S611.93,69,611.08,69.75Z" transform="translate(-51.61 -46.61)" fill="#d3c5a9"/><path d="M646.76,433.61c-1.55.44-4.89,2.45-5,2.94s1.71,8.69,2.93,9.67,11.75,9.91,12.85,10.52,11.87,2.2,13.34,2.08,7.83-2,8.07-2.45-5.26-12.11-8.19-14.31-14.81-8.69-16.4-8.94A26.88,26.88,0,0,0,646.76,433.61Z" transform="translate(-51.61 -46.61)" fill="#d3c5a9"/><path d="M300.15,176.61c-.33-.66-.82-4.62-2.06-4.86a46.81,46.81,0,0,0-8.41.16c-1,.25-4.87,1.24-5.12,1.9s-.41,3.22.17,3.55,5,2.06,5.11,2.39.5,1,.17,1a43.79,43.79,0,0,1-5.53-.08c-.91-.25-2.31-2.31-2.56-2.48s-2.72.66-2.64,1.07,2.23,3.22,3.39,3.63,8.82.91,9.23.5,1.66-5.94.91-6.35-4.29-.83-4.29-1.16,3.88-2,4.54-1.9,3,.42,3.13.83,1.32,2.47,1.82,2.39S300.15,176.61,300.15,176.61Z" transform="translate(-51.61 -46.61)" fill="#968d78"/><path d="M297,170.59a60.16,60.16,0,0,0-6.68,4.62,100.28,100.28,0,0,1-8.17,6.35c-1.15.66-3.13,1.9-3.13,1.9s2.14,1.57,2.88,1.24a46.62,46.62,0,0,0,6.68-5.2c1.74-1.73,8.5-6.19,8.75-6.43s2.47-1.41,2.23-1.65a3.53,3.53,0,0,0-1.41-.83Z" transform="translate(-51.61 -46.61)" fill="#968d78"/><path d="M627,69.12a13.32,13.32,0,0,0-3.71-1.05c-.88,0-6.49,0-7.06.28s-2.17,1.38-2,1.7,3.3,1.13,3.67,1.17,2.5.52,2.5.52a5.07,5.07,0,0,1-1.57.37c-.69,0-4.08-.53-4.2-.53s-1.45-.28-1.45-.28l-1.33,1.21a33.82,33.82,0,0,0,3.79,1.25,29.11,29.11,0,0,0,5.89,0A23.31,23.31,0,0,0,624.14,71s-2.7-.49-3.71-.57a10.71,10.71,0,0,1-2.66-.68c.16,0,2.74-.29,3.35-.29s2,.21,3,.33.81.32,1.13.24A15.64,15.64,0,0,0,627,69.12Z" transform="translate(-51.61 -46.61)" fill="#968d78"/><path d="M621.32,67.55a27.61,27.61,0,0,0-2.67,2.9c-.84,1.17-3.51,4.08-3.67,4.2a6.25,6.25,0,0,0,2.34.44,29,29,0,0,1,1.94-3.63c.48-.64,3.43-3.19,3.71-3.43l.81-.72Z" transform="translate(-51.61 -46.61)" fill="#968d78"/><path d="M295.14,246.52c-.68,0-4.56-.25-5.32-.17a12.4,12.4,0,0,0-3.72,1.27,6.5,6.5,0,0,0-1.56,2.28c0,.42.59,1.52,1.1,1.52a29.26,29.26,0,0,0,4.43-.46,43.2,43.2,0,0,1,4.94-1.23c.34.05,1.56.34,1.56.34a3.19,3.19,0,0,1-.88.55c-.47.17-3.38,1-3.93,1.18a15.42,15.42,0,0,1-2.66.21c-.21,0-1.61.59-1.48.68a8,8,0,0,0,3.25.93,12.69,12.69,0,0,0,5.66-1c1.69-.92,2.75-1.85,2.79-2.15a3.08,3.08,0,0,0-1.27-1.77,13,13,0,0,0-2.74-.47c-.51,0-4.77,1-5.58,1.14s-2.32.47-2.36.26a3.94,3.94,0,0,1,1.77-2,22.81,22.81,0,0,1,4.06-.25,5.94,5.94,0,0,0,2.15-.3A2.65,2.65,0,0,0,295.14,246.52Z" transform="translate(-51.61 -46.61)" fill="#968d78"/><path d="M287.92,246.44c.21.13,3.33,2.57,4.26,3.08s2.49,2.58,2.75,2.75,1.26,1.69,1.52,1.52,1.64-.76,1.64-.76a26.41,26.41,0,0,0-2.7-3c-.76-.55-3-2-3.67-2.37a24.61,24.61,0,0,0-2.79-1.48A7.55,7.55,0,0,0,287.92,246.44Z" transform="translate(-51.61 -46.61)" fill="#968d78"/><path d="M661.28,438.28c-1.53-1.15-6-3.06-6.95-3.06s-6,.92-6.49,1.83-1,5.27-.54,6.11,3.52,4.82,4.89,5,11.15-.54,12.68-.15a8.87,8.87,0,0,1,3.67,2.29c.22.38.53,1.83.15,2a32.47,32.47,0,0,1-4.66.31c-.31-.08-3.06-2.29-3.36-2.29s-4,.53-4,.76a32,32,0,0,0,4.81,4c.53.16,9.24.54,10-.3a23.62,23.62,0,0,0,2.14-4.2s-6.18-6.72-6.64-7-9.86,1.22-10.47,1.07-4-1.15-4.43-1.61-1.68-3.36-1.52-3.74,3.79-1.79,4.55-1.41,3.46,1.72,4.07,1.56A12,12,0,0,0,661.28,438.28Z" transform="translate(-51.61 -46.61)" fill="#968d78"/><path d="M648.62,435.18a87,87,0,0,1,6.72,6.11c3.13,3.21,6.87,7.18,8.4,9s5,6.34,5.35,6.34,4.58.15,4.28-.15-7-6.57-8.63-7.64-7-7.56-8.79-9.09a50.19,50.19,0,0,1-5-5.57Z" transform="translate(-51.61 -46.61)" fill="#968d78"/><path d="M621.15,454.32c0-1.16-.33-8.11.33-7.78s8.78,6,7.62,5.79-4.64-.66-5.3,0A25.12,25.12,0,0,1,621.15,454.32Z" transform="translate(-51.61 -46.61)" fill="#bcad8e"/><path d="M686.9,436.93c.66.5,5.79,5.3,6.12,4.81l3.15-4.64-4.47-2.32Z" transform="translate(-51.61 -46.61)" fill="#bcad8e"/><path d="M266.44,258.29c.06-.31,1.36-3.59,1.61-3.46s3.46,1.29,3.46,1.29Z" transform="translate(-51.61 -46.61)" fill="#bcad8e"/><path d="M308.14,244.94a17.51,17.51,0,0,0,2.84,1.67c.31-.06,3.15-.49,3.15-.49l-3.34-1.55Z" transform="translate(-51.61 -46.61)" fill="#bcad8e"/><path d="M635.14,76c1.09-1,3.75-2.9,4.35-2.78l3,.6-5.8,3Z" transform="translate(-51.61 -46.61)" fill="#bcad8e"/><polygon points="546.95 23.75 551.3 21.34 549.12 24.84 546.95 23.75" fill="#bcad8e"/><path d="M299,197.3a60.75,60.75,0,0,1,9-4.39c.39,0,3.8,1.27,3.8,1.27s-9.75,5.75-10.05,5.56S299,197.3,299,197.3Z" transform="translate(-51.61 -46.61)" fill="#bcad8e"/><path d="M252.51,176.52c.58-.19,7.31-3.6,7.31-3.21a47.39,47.39,0,0,1-2.73,4.58Z" transform="translate(-51.61 -46.61)" fill="#bcad8e"/><path d="M344.08,188.72s-35,16.9-35.67,17-18,7.27-18.49,7.12-14.24-11.44-14.07-11.76-3.52-14.25-4.31-14.59-25.29.12-25.29.12,24.05,1,24.28,1.35,4.49,14.72,5.05,15.28,14.28,11.58,14.73,11.47,53.05-23.72,53.17-24.17S344.08,188.72,344.08,188.72Z" transform="translate(-51.61 -46.61)" fill="#959984"/><path d="M619.09,480.21c.23,0,19.28-6.25,20.53-6.54s67.08-5.3,67.3-5.59a37.26,37.26,0,0,1,2.35-3L726,450.94s-17.36,12.29-17.65,12.43-2.33,2.46-2.53,2.48-65.57,5.81-66.35,5.78S619.09,480.21,619.09,480.21Z" transform="translate(-51.61 -46.61)" fill="#959984"/><path d="M257.56,264.71s8.73,6.32,9,6.32,16.73-10.06,21-10.86c1.49-.21,6.47-.21,6.71-.37s12.26-4.15,14.69-4.85,7.33-1.92,7.77-2,8.45,1,8.45,1-7.21-.37-7.86-.26-8.31,1.73-9.22,2.27-14.46,5.18-14.46,5.18-5.94-.54-6.31-.38-20.39,11.6-20.61,11.44Z" transform="translate(-51.61 -46.61)" fill="#959984"/><path d="M668.2,70.8s-20.76,7.07-21.49,7.37S632.6,83.4,632.6,83.4s-15.32-3.23-15.5-3.35-14.89-.72-15.28-.91-7.7-1.7-7.7-1.7,9.36,2.73,9.79,2.73,12.64.86,13.37,1,15.63,4.19,15.63,4.19,14.89-6.5,15.5-6.68S667.62,72,667.62,72Z" transform="translate(-51.61 -46.61)" fill="#959984"/><path d="M358.65,447.84" transform="translate(-51.61 -46.61)" fill="#e5a05c"/><polygon points="118.92 385.51 109.81 369.65 135.31 372.82 122.96 375.35 118.92 385.51" fill="#e5a05c"/><polygon points="694.27 391.63 703.39 375.77 677.88 378.94 690.23 381.48 694.27 391.63" fill="#7b8260"/><polygon points="152.76 222.24 147.66 231.83 168.08 229.82 156.17 226.42 152.76 222.24" fill="#a2a361"/><polygon points="671.09 221.11 676.2 230.7 655.78 228.69 667.69 225.29 671.09 221.11" fill="#ffc278"/><polygon points="383.07 113.96 393.97 128.49 398.86 112.7 390.37 115.74 383.07 113.96" fill="#ffc278"/><polygon points="437.62 113.96 426.72 128.49 421.83 112.7 430.31 115.74 437.62 113.96" fill="#a2a361"/><polygon points="436.13 328.29 433.58 305.5 442.28 311.05 461.32 307.75 436.13 328.29" fill="#e5a05c"/><polygon points="383.01 328.44 385.56 305.65 376.86 311.2 357.82 307.9 383.01 328.44" fill="#7b8260"/><path d="M322.43,46.71c-5.7-.43-18.74,14-16.9,31.88s15.91,19.3,15.91,19.3a34.21,34.21,0,0,1-8.92.08c-5.38-1.51-15.8-13-13.35-30.8,2.26-16.37,12.71-20,13-20.14A101.56,101.56,0,0,1,322.43,46.71Z" transform="translate(-51.61 -46.61)" fill="#f2ac3b"/><path d="M659.21,144.86c12.41-2.68,23.54,13.13,25.65,31s-8.2,46.74-24,46.5a74.44,74.44,0,0,0,11.94.59s21-5.86,22.26-37.72-17-41.11-21.44-41.34S660.86,144.26,659.21,144.86Z" transform="translate(-51.61 -46.61)" fill="#f2ac3b"/><path d="M613.65,241.45c-.36,4.27,15.57,10.6,38.41,9.19,18.39-1.4,19.27-9.19,19.27-9.19.76,2.28.06,10.36.06,10.36s-6.09,7.38-27.18,7.62-29.86-6.09-30.45-7.62S613.54,241.85,613.65,241.45Z" transform="translate(-51.61 -46.61)" fill="#f2ac3b"/><path d="M205.45,431.38c0,8.51,16.32,22.62,46,21.68s45.51-12.2,45.87-21.68c.71,1.8,1,17.68.24,19.56s-9.62,13.8-49.4,14.82c-36.58.95-41.87-14-42.34-14.7S205.13,433.45,205.45,431.38Z" transform="translate(-51.61 -46.61)" fill="#f2ac3b"/><path d="M318.59,54.79c1.9-3.53,12-.51,12.16,16.65S322,92.83,322,92.83s7-10.35,5.52-23.29S318.59,54.79,318.59,54.79Z" transform="translate(-51.61 -46.61)" fill="#f2ac3b"/><path d="M650.69,163.2c.88-4.7,5.58-11.74,12.49-11.3s23.79,23.35,6.6,56.1c4.85-17,2.94-37.89-3.08-48S650.69,163.2,650.69,163.2Z" transform="translate(-51.61 -46.61)" fill="#f2ac3b"/><path d="M625.07,238.78c5.33-1.95,19.82-3.48,33.38-.09s1.87,6.44-1.86,6.95C661.67,244,663.54,234.54,625.07,238.78Z" transform="translate(-51.61 -46.61)" fill="#f2ac3b"/><path d="M222.83,426.49c12.6-4.79,32.16-5.63,49.55-1.6s22.08,14.95-1.77,19.4c8.32-3.44,9.15-15.21-9.23-17.72C242.31,424,222.83,426.49,222.83,426.49Z" transform="translate(-51.61 -46.61)" fill="#f2ac3b"/><path d="M264.61,435.52c-6.23-2.06-27.94-8.61-28.43-8.61a41.35,41.35,0,0,0-7.18,2s12.42,5.63,21.16,7.47c-9.71.39-9.61,9.8,4,11.55S273.55,438.48,264.61,435.52Zm-6.05,6.11c-5,1.45-9.61-1.34-6.24-3C255,437.29,263.56,440.19,258.56,441.63Z" transform="translate(-51.61 -46.61)" fill="#ffefae"/><path d="M229.71,433.88c2.23-1.25,16-6.31,16.63-6.44s6.83.32,6.44.72-14.79,9.27-15.38,9.27S229.71,433.88,229.71,433.88Z" transform="translate(-51.61 -46.61)" fill="#ffefae"/><path d="M664.23,165.42c0-.9-4.39-2.06-6.07-2.19,0,0-.9,25-.64,25.8s-9.67-5.55-10.06,6.06,12.38,18.06,15.61,9.68S664.23,166.33,664.23,165.42Zm-8.89,35.19c-2.05.51-4.53-6.17-1.32-7.15C655.7,193,657.38,200.1,655.34,200.61Z" transform="translate(-51.61 -46.61)" fill="#ffefae"/><path d="M651.77,172.25c1.38.07,17.5.15,17.72.8s.15,7.22-.15,7.15-17.13-1.82-17.28-2.12S651.77,172.25,651.77,172.25Z" transform="translate(-51.61 -46.61)" fill="#ffefae"/><path d="M321.84,61.59c-.11-.35-3.63-.06-4.15,0,0,0,.75,11.78.81,13.1-2.77-1.9-6.76,0-6.12,6.41s8.54,7.85,10.39,2.77S322,61.94,321.84,61.59Zm-4.77,21.35c-2.52-1.67-.18-7.56,1.73-4.54C319.77,79.94,319.59,84.6,317.07,82.94Z" transform="translate(-51.61 -46.61)" fill="#ffefae"/><path d="M315.17,65.44c.92-.06,9.58-.35,9.64-.12s.64,4.33.35,4.33-8.78.46-9,.29S315.17,65.44,315.17,65.44Z" transform="translate(-51.61 -46.61)" fill="#ffefae"/><path d="M649.9,239.76c-1.11,0-26.1.37-27.51,3.25s11.27,3.86,15.44,1.83.24-2.51.24-2.51,16.12-1.65,15.69-1.9A31.18,31.18,0,0,0,649.9,239.76Z" transform="translate(-51.61 -46.61)" fill="#ffefae"/><path d="M636.48,238.9c.49,0,5.39-.24,5.88-.24s13.17,4,12.62,4.41-5.45,1.84-5.82,1.65S636.48,238.9,636.48,238.9Z" transform="translate(-51.61 -46.61)" fill="#ffefae"/><path d="M310.34,48.17c1.3-.31,8.25-.69,8-.23s-2.75,3.74-3.74,4-8.48.08-8.56-.22S308.58,48.71,310.34,48.17Z" transform="translate(-51.61 -46.61)" fill="#ffce55"/><path d="M303.77,54.82c.23-.15,8.25,1,8.25,1s-2.29,5.73-3.06,5.89-8.48.45-8.56.15S302.39,55.43,303.77,54.82Z" transform="translate(-51.61 -46.61)" fill="#ffce55"/><path d="M307.59,67.2c-.23,0-8.1,1.3-8.48,1.68s-.31,3.59-.31,3.59,7.41-.15,7.57-.76S307.59,67.2,307.59,67.2Z" transform="translate(-51.61 -46.61)" fill="#ffce55"/><path d="M306.06,76.14s-6.73,1.37-6.8,1.68,1.3,6.88,2.37,8.25c2.29.23,6.8-1.22,6.8-1.22Z" transform="translate(-51.61 -46.61)" fill="#ffce55"/><path d="M311.18,90.81c-.38-.08-6.5.38-6.34.69s2.14,3,3.05,3.44,7.72-.61,7.42-1.3S311.18,90.81,311.18,90.81Z" transform="translate(-51.61 -46.61)" fill="#ffce55"/><path d="M318.13,95.85s-8.56.54-8.25.77a5.07,5.07,0,0,0,1.38.76c.23,0,8.94.23,8.86-.61S318.13,95.85,318.13,95.85Z" transform="translate(-51.61 -46.61)" fill="#ffce55"/><path d="M207.51,435.39s.4,18,.91,19.19,5.86,5.76,6.26,5.16,1.11-18.49,1.11-18.49Z" transform="translate(-51.61 -46.61)" fill="#ffce55"/><path d="M222.16,446c-.3.6-.1,16.87.6,17.07s15.16,3.13,15.77,2.33,1-15,1-15Z" transform="translate(-51.61 -46.61)" fill="#ffce55"/><path d="M242.06,451.55v13.74c0,.71,7,.61,7.08.11s.4-13.65.4-13.65Z" transform="translate(-51.61 -46.61)" fill="#ffce55"/><path d="M262.47,451s.21,13.13.51,13.43,13.33-1.61,13.84-2.32-1-13.94-1-13.94Z" transform="translate(-51.61 -46.61)" fill="#ffce55"/><path d="M285,443.27s.41,15.86,1.12,16,6-2.83,6.16-3.53-.3-16.17-.71-16.47S285,443.27,285,443.27Z" transform="translate(-51.61 -46.61)" fill="#ffce55"/><path d="M293.9,436.9l.6,17.38s1.82-1.52,1.92-2-.61-18.59-.81-19.2S293.9,436.9,293.9,436.9Z" transform="translate(-51.61 -46.61)" fill="#ffce55"/><path d="M670.45,242.47c.12.43.43,9.69-.3,10.47a11.45,11.45,0,0,1-2.78,1.7s-.55-8.41-.43-8.78A45.12,45.12,0,0,1,670.45,242.47Z" transform="translate(-51.61 -46.61)" fill="#ffce55"/><path d="M663,247.86c.06,1,.54,8.6.24,8.66s-2.3.78-2.3.78-.36-8.65-.18-9S663,247.86,663,247.86Z" transform="translate(-51.61 -46.61)" fill="#ffce55"/><path d="M651.75,249.92c0,.3.18,8.72-.12,9s-8.35.78-9,.48-.49-9.44-.49-9.44Z" transform="translate(-51.61 -46.61)" fill="#ffce55"/><path d="M638.67,249.86c0,.24.37,9.44-.18,9.44s-8-.48-8.77-1.09-.31-9.62,0-9.75S638.67,249.86,638.67,249.86Z" transform="translate(-51.61 -46.61)" fill="#ffce55"/><path d="M617.91,245.2c-.12.54-.42,8.89-.18,9.26s3.88,2.12,4.12,1.87a74.59,74.59,0,0,0,.66-9.56C622.33,246.65,617.91,245.2,617.91,245.2Z" transform="translate(-51.61 -46.61)" fill="#ffce55"/><path d="M665.55,146c1.93-.25,11.87-.56,13.05-.25a19.41,19.41,0,0,1,5,3.79c-.31,0-11.18,2.05-11.68,1.8S665.55,146,665.55,146Z" transform="translate(-51.61 -46.61)" fill="#ffce55"/><path d="M676.12,155c.68-.06,10-2.49,10.5-2s3.23,4.41,2.92,4.41-11.37,1.93-11.68,1.49S676.12,155,676.12,155Z" transform="translate(-51.61 -46.61)" fill="#ffce55"/><path d="M681.4,166.32c.74,0,11.06-1.18,11.56-.43s1.92,8.57,1.86,9-11.37,1.92-11.75,1.49S681.4,166.32,681.4,166.32Z" transform="translate(-51.61 -46.61)" fill="#ffce55"/><path d="M683.88,183.41c.69-.18,10.88-.74,11.06-.43s.25,4.78-.06,5-11.37.5-11.37.19S683.88,183.41,683.88,183.41Z" transform="translate(-51.61 -46.61)" fill="#ffce55"/><path d="M682.76,191.62c.5-.31,11.75-.87,11.75-.38S692.83,200.81,692,202s-12.24-.75-12.24-.75Z" transform="translate(-51.61 -46.61)" fill="#ffce55"/><path d="M676.8,209c.68-.12,11.19,1.06,11.06,1.43a28.46,28.46,0,0,1-4.54,5.53c-1.36.19-11.68-.68-11.49-1.37S676.8,209,676.8,209Z" transform="translate(-51.61 -46.61)" fill="#ffce55"/><path d="M669.4,218.4c.62,0,11.31.07,11.06.25a20.29,20.29,0,0,1-4.35,2.86c-3.17.19-11-.56-10.81-.93S669.4,218.4,669.4,218.4Z" transform="translate(-51.61 -46.61)" fill="#ffce55"/><path d="M325,54.59c.17-.25,3-4.57,3.47-4.23a27.09,27.09,0,0,1,6.51,13,46.36,46.36,0,0,0-4.9,1.69S328.67,57.72,325,54.59Z" transform="translate(-51.61 -46.61)" fill="#ffefae"/><path d="M330.87,70.75c.42-.09,5.08-.17,5.16.33a37,37,0,0,1-.68,7.62c-2.45-.68-5-1.19-5-1.19S331.29,72.1,330.87,70.75Z" transform="translate(-51.61 -46.61)" fill="#ffefae"/><path d="M326.39,48.92c.05.45-2.54,5.5-2.79,5.33a18,18,0,0,0-1.7-.68s1.19-6.42,1.61-6.42S326.3,48.25,326.39,48.92Z" transform="translate(-51.61 -46.61)" fill="#ffefae"/><path d="M317.42,92.57c1,.25,4.82.68,7.28-1.78a19.11,19.11,0,0,1,1.86,4.15s-2.62,2.79-5.75,3-5.93-2.62-5.93-2.62Z" transform="translate(-51.61 -46.61)" fill="#ffefae"/><path d="M313.36,94.52l2.37-3-1-.93s-3.55.68-3.38.93A12.37,12.37,0,0,0,313.36,94.52Z" transform="translate(-51.61 -46.61)" fill="#ffefae"/><path d="M305.41,75a26.26,26.26,0,0,0,1.1,6.17c.76,0,2.79-.25,2.79-.25s-1-5.33-1.1-6.6C308.2,74.3,305.41,74.47,305.41,75Z" transform="translate(-51.61 -46.61)" fill="#ffefae"/><path d="M311.16,56c-.17.46,2.29,3,2.29,3s1.43-1.86,1.26-2.11-1.52-4.15-1.52-4.15A22.38,22.38,0,0,0,311.16,56Z" transform="translate(-51.61 -46.61)" fill="#ffefae"/><path d="M308,62a11.24,11.24,0,0,1,1.81,2.45,31,31,0,0,0-1.54,8.36c-.75.1-2.83.64-2.93.37S305.79,65.22,308,62Z" transform="translate(-51.61 -46.61)" fill="#ffefae"/><path d="M655.24,146.86c-.48.39.94,7.26,1.36,7.15s6.73-4.83,12,1.58a40.57,40.57,0,0,1,7.15,13.14s6.62-2,6.83-2.84-3.68-10.72-9-15.87S661.12,142,655.24,146.86Z" transform="translate(-51.61 -46.61)" fill="#ffefae"/><path d="M677.21,175.14c.73-.42,7.46-2,7.57-1.57s.31,7.67.31,7.67l-7.78.32Z" transform="translate(-51.61 -46.61)" fill="#ffefae"/><path d="M676,192.28c.31.1,7.25,0,7.25.52s-2,9.68-3.15,12a70.81,70.81,0,0,1-7.15-2.94Z" transform="translate(-51.61 -46.61)" fill="#ffefae"/><path d="M638.52,180.71c0,.54,5.89.22,5.78-.31s2.11-8.52,1.69-8.73-5.68-1.89-6.1-1.36S638.62,177.56,638.52,180.71Z" transform="translate(-51.61 -46.61)" fill="#ffefae"/><path d="M646.72,169.78s-5.78-2.63-5.78-3.05,1.68-5.15,2.1-4.94,5.47,4.31,5.47,4.31S647,169.36,646.72,169.78Z" transform="translate(-51.61 -46.61)" fill="#ffefae"/><path d="M673.62,215.06c-.49-.66-5.09-6-5.09-6s-5,4-8.62,3.61a9.21,9.21,0,0,1-5.5-2.46s-4.11,4.84-3.95,5.33,5.59,6.33,10.68,7S673,217.44,673.62,215.06Z" transform="translate(-51.61 -46.61)" fill="#ffefae"/><path d="M647.92,212.35c.24-.25,3.36-4.19,3.36-4.19l-1.56-1.89s-4.27,2.8-4.27,3.29S647.59,212.68,647.92,212.35Z" transform="translate(-51.61 -46.61)" fill="#ffefae"/><path d="M257.15,422.73c.57-.46,6.05-5.82,6.84-5.71s18,2.29,25.56,7.19c-3.19,1-9.36,3.42-9.36,3.42S268.33,422.84,257.15,422.73Z" transform="translate(-51.61 -46.61)" fill="#ffefae"/><path d="M285.79,431.86s9-3.31,9.81-2.74,3.19,2.85.11,6.39l-8.9.68A4.58,4.58,0,0,0,285.79,431.86Z" transform="translate(-51.61 -46.61)" fill="#ffefae"/><path d="M220.3,433.8c-.69,1.82,2,4.56,8.1,6.39-7,3-11.41,5.36-11.41,5.36s-8.56-4.11-10.27-10.16C212.77,435.05,220.3,433.8,220.3,433.8Z" transform="translate(-51.61 -46.61)" fill="#ffefae"/><path d="M221.78,448.29s8.9-7.19,9.35-7.08l5.94,1.49s-4,7.64-4.79,7.64A25.06,25.06,0,0,1,221.78,448.29Z" transform="translate(-51.61 -46.61)" fill="#ffefae"/><path d="M286,437.56c.35,0,8.79-.23,8.56.23A21.35,21.35,0,0,1,284,446.12a28.66,28.66,0,0,1-5.93-3.77S283.62,439.61,286,437.56Z" transform="translate(-51.61 -46.61)" fill="#ffefae"/><path d="M239.12,423.07c-.46-.57-5.25-5.48-6.05-5.48s-7.18,1.15-6.84,1.37,9.35,4.34,9.35,4.34Z" transform="translate(-51.61 -46.61)" fill="#ffefae"/><path d="M241,422.73s-4.57-5.25-4.11-5.36,3.08-.23,3.08-.23,3.19,5.25,2.85,5.25A18,18,0,0,0,241,422.73Z" transform="translate(-51.61 -46.61)" fill="#ffefae"/><path d="M258.52,447s.57,5.48,1.48,5.36,7.3-1.25,7.3-1.25l-4.45-4.91Z" transform="translate(-51.61 -46.61)" fill="#ffefae"/><path d="M265.25,445.89s4.22,4.45,4.68,4.45,3.76-.68,3.76-.68l-6.39-4.34Z" transform="translate(-51.61 -46.61)" fill="#ffefae"/><path d="M643.52,236.79c.6-.34,5.88-2.7,6.23-2.74A57.82,57.82,0,0,1,664.52,237c-3.83.94-6.23,1.63-6.23,1.63A81.71,81.71,0,0,0,643.52,236.79Z" transform="translate(-51.61 -46.61)" fill="#ffefae"/><path d="M662,239.8a40.38,40.38,0,0,1,4.9-1.76c.3.13,3.52,1.67,4.38,3.26-3.39-.08-6.79,0-6.79,0A8.88,8.88,0,0,0,662,239.8Z" transform="translate(-51.61 -46.61)" fill="#ffefae"/><path d="M622.43,239a30.59,30.59,0,0,0-5.24-.77c-.38.09-4.25,1.59-3.43,4a5.37,5.37,0,0,0,3.39,3.14l4.72-2a3.2,3.2,0,0,1-1.16-2.1C620.71,240.1,622.43,239,622.43,239Z" transform="translate(-51.61 -46.61)" fill="#ffefae"/><path d="M623.68,244.18l-3.74,2.28a19.56,19.56,0,0,0,4.77,1.84,19.19,19.19,0,0,0,3.43-3.05Z" transform="translate(-51.61 -46.61)" fill="#ffefae"/><path d="M642.48,247.23c-.19,0-1.45,3.3-.94,3.35s10.18.3,13.48-.22c-1.16-1.46-3.56-4-3.56-4S645.36,247.14,642.48,247.23Z" transform="translate(-51.61 -46.61)" fill="#ffefae"/><path d="M653.48,246.24c.34.13,4.08,3.52,4.76,3.52a32.93,32.93,0,0,0,3.91-.94l-5.56-3.18A12.35,12.35,0,0,1,653.48,246.24Z" transform="translate(-51.61 -46.61)" fill="#ffefae"/><path d="M628.61,234.69c-.32.08,5.16,2.19,5.33,2.23s2.23,0,2.23,0-2.53-2.79-2.66-2.79S629.43,234.47,628.61,234.69Z" transform="translate(-51.61 -46.61)" fill="#ffefae"/><path d="M635.49,233.87a26.77,26.77,0,0,0,1.84,2.84l1.08-.05-.43-2.74Z" transform="translate(-51.61 -46.61)" fill="#ffefae"/></g><g id="S" style="mix-blend-mode:multiply"><path d="M100.32,428.35S99,291.5,99.23,287.67s-1.37-9.86,10.67-15.33S175,245.79,177,245.79s10.12-4.1,10.12,7.66S188.45,393,188.45,393Z" transform="translate(-51.61 -46.61)" fill="#fcf5f2"/><path d="M51.88,423.92c.93.24,46.32,8.15,46.32,6.52s-.93-97.76-.7-102.88,0-41.2,0-42.13a26.78,26.78,0,0,1,2.33-7c-3.49.47-6.52-.93-15.13,1.63s-7.45,3.26-13,3.26S60,276.82,57.93,279.85s-5.12-.47-5.12-.47-1.63,7.22-.7,30.49S51.88,423.92,51.88,423.92Z" transform="translate(-51.61 -46.61)" fill="#f9ece5"/><path d="M223.3,426.44c2.66-1,32.67-6.17,52,2s.85,16-8.3,17.35c11.5-5,6.28-16.39-12.77-19.05S223.3,426.44,223.3,426.44Z" transform="translate(-51.61 -46.61)" fill="#eabf9b"/><path d="M229.37,428.78l-3.62,1.7s.32,3-.32,3.09a16.77,16.77,0,0,0-3,1.81,24.57,24.57,0,0,0,13.92,6.12c2-.82,4.11-2.37,4-1.94s.06,2.63,0,3.48,7.77,6.6,17.56,5.43,9.58-4.68,9.58-4.68-6.71,5.11-16.93,1.49-5.42-9.9,3.52-8.3c-3.41-1.71-11.5-3.09-11.82-3.09s-4,3.62-4.89,3.3-7.67-3.51-7.67-3.51l4.9-2.45Z" transform="translate(-51.61 -46.61)" fill="#eabf9b"/><polygon points="201.28 381.64 200.96 385.15 197.55 383.76 201.28 381.64" fill="#eabf9b"/><path d="M251.82,439c-2.91,1.18,2.88,3.83,6.49,2.55S254.7,437.83,251.82,439Z" transform="translate(-51.61 -46.61)" fill="#eabf9b"/><path d="M316.54,55.65s4.47-4.46,9.32,3,4.72,26.52-3.24,33.51c-1.55.84-4.78.58-4.78.58s5.5-1.49,8.41-14.3S321.46,54,316.54,55.65Z" transform="translate(-51.61 -46.61)" fill="#eabf9b"/><path d="M321.65,61.35s-5.43.19-5.62.13.06,2.13-.33,2.19l-2.84.52s1,6.73,1.29,6.92,1.1.26,1.1.46-.13,1.1-.13,1.1-4.4-.07-4.85,6,4.2,9.58,8.28,8.54c0,0-5-.64-5.82-4.85s.13-9.77,6.08-7.57c-.2-2.72-.39-5-.39-5l-2.14.06a28.08,28.08,0,0,1-.84-4.14,25.39,25.39,0,0,1,2.59-.38L318,62Z" transform="translate(-51.61 -46.61)" fill="#eabf9b"/><path d="M317.39,77.65c-2.17.23-1.65,5.63.46,5.3S318.6,77.52,317.39,77.65Z" transform="translate(-51.61 -46.61)" fill="#eabf9b"/><path d="M645.94,172.34c.08-.4,4.26-15.18,13.82-17.68s14.94,14.38,15.66,27-5.7,26.34-5.7,26.34,3.78-20.24-.16-30.36a13.79,13.79,0,0,0-.16-4.5l-2.41-.56s.08-9.64-4.34-13S650.6,160.05,645.94,172.34Z" transform="translate(-51.61 -46.61)" fill="#eabf9b"/><path d="M658.15,163.1c-.24,0-3,.8-3.13,1.44s.24,6.43-.4,6.43-3.54.56-3.86.48a6.49,6.49,0,0,0-2.57,1.29c0,.24.25,8.59.49,8.67s5.38,0,5.38.49-.24,6.18-.24,6.18l3.61.89.16-10.05s-5.3-.4-5.38-.72-.48-5.86-.16-5.86,5.7-.32,5.7-.32Z" transform="translate(-51.61 -46.61)" fill="#eabf9b"/><path d="M650.12,188.64c-.56,0-4.58,6.19-4.74,7.23s2.25,10.77,8,13.58c1.37.56,6.91-1.29,6.91-1.29s-6.26,2.09-10.44-4.49S648.43,189.69,650.12,188.64Z" transform="translate(-51.61 -46.61)" fill="#eabf9b"/><path d="M653.5,193.78c-2.61.42-.49,6.91,1.36,6.67S655.5,193.46,653.5,193.78Z" transform="translate(-51.61 -46.61)" fill="#eabf9b"/><path d="M624.84,238.54c.25-.08,20.2-3.1,31.86.25s3.52,6.88-1.84,7.3c2.93-1.68,4.27-5.79-6.63-7.63S624.84,238.54,624.84,238.54Z" transform="translate(-51.61 -46.61)" fill="#eabf9b"/><path d="M636.74,238.87a24,24,0,0,0-3,.59l-.25.92,5.37-.5Z" transform="translate(-51.61 -46.61)" fill="#eabf9b"/><polygon points="601.91 193.85 601.82 195.37 598.8 194.44 601.91 193.85" fill="#eabf9b"/><path d="M655.19,243.15l-.84,2.85s-8,1.09-8.3.92-3.44-2.51-3.44-2.51-1.67,2.51-6.29,2.68-8.88-.42-11.32-1.93c6.12,1.76,11.39.56,13.62-.9s-.45-1.86-.45-1.86a44.4,44.4,0,0,1,5-.51c.25.17,6.37,2.85,6.37,2.85Z" transform="translate(-51.61 -46.61)" fill="#eabf9b"/><path d="M633.59,242.74c-1.1-1.06-5-.45-4.23.67S634.34,243.47,633.59,242.74Z" transform="translate(-51.61 -46.61)" fill="#eabf9b"/><path d="M304.25,164.46c-.78.29-4.38,3.11-5.74,3.79s-27,18.49-27,18.49l-23.35-.1s12.35-6.13,12.84-6.42,11.48-6.91,12.45-7.88,5-4.28,5-4.28Z" transform="translate(-51.61 -46.61)" fill="#e6e8e7"/><path d="M306.62,236.33c-.2.3-1.51,5.41-.6,5.61s14.43,7.92,13.92,7.62-17.83-4.51-18.73-4.61-22,0-22,0,20.64-3.51,21-3.71S306.62,236.33,306.62,236.33Z" transform="translate(-51.61 -46.61)" fill="#e6e8e7"/><path d="M286.87,260.08s-12.12-8.72-10.92-8.52S294.29,260,294.29,260Z" transform="translate(-51.61 -46.61)" fill="#e6e8e7"/><path d="M627.88,62.25c-.26.13-3.6,10.62-4.57,11.59A22.94,22.94,0,0,0,620.77,78l27.17-9.94S628.27,62.06,627.88,62.25Z" transform="translate(-51.61 -46.61)" fill="#e6e8e7"/><path d="M639.82,472s-9.78-20.61-9.35-20.35,14.2,10,16,10,32.13-3,32.13-3-1-13.42-.26-13.16,15.84,13.42,16.71,13.76,11,6.59,11,6.59-55.16,5.1-55.51,5S639.82,472,639.82,472Z" transform="translate(-51.61 -46.61)" fill="#e6e8e7"/><path d="M87.15,291c-.29.58-6.1,16-6.1,17.42s.15,52.4-.14,52.84-5.52,1.31-5.52,1.74-.14,2,.29,2.18,2.18.58,2,1.31-.3,39.34-1.17,42.1-11.32,6.53-12.19-.73-1.89-18-2.76-27.29S60.3,363,60.15,358.53s-.87-13.36-.87-13.36-1.31,21.2-.58,30.35,1.16,34.84,2.47,37.31,5.22,5.95,7.69,6.53,11-1.6,11.47-3.34,2.76-25,2.47-27.44-1-19.89-.44-20.76,2.76-4.35,2.76-4.35-.58-4.21,0-5.23a27.24,27.24,0,0,0,2.18-5.66c.14-1.16-1.89-40.36-1.89-41.67S87.15,291,87.15,291Z" transform="translate(-51.61 -46.61)" fill="#e5cdca"/><path d="M147.09,303.23l16.52-7.79a63.11,63.11,0,0,0-1.3-7.55c-.59-1.65-8.38-9.56-13.45-10.62s-12.86,1.54-17.46,4.84S121,292.37,118.77,297.57c5.43-12.63,13.1-24.31,30.68-24.9s24.3,13.57,25,19.82a18,18,0,0,1-3.74,1.61Z" transform="translate(-51.61 -46.61)" fill="#e5cdca"/><path d="M398.66,414.65c-2.62,2.83-7.42,12-4.36,12s15,1.75,15.26,3.06,11.12,6.76,18.32,8.5,41,9.38,46.45,7.63,16.79-3.05,18.75-5,17,9.37,20.28,8.94,24.43-.87,26.39-2.84,3.92-9.16,4.14-8.07.65,12.43.22,14a7.88,7.88,0,0,1-3.49,3.93c-.87.21-2.18,3.05-3,3.92s-5,5.45-5.45,4.8-7-.44-9.16.22-7.64,4.14-8.29,5.45-1.53,4.8-2.62,3.05S499.41,453.9,497.66,455,487,467,486.32,467.2s-2.18,2.18-3.27,2.4-2.4-.65-5.45-.65-14,1.31-17.66.65-11.34-.22-14.18-1.09a12.74,12.74,0,0,1-7.41-5.23c-2.4-3.27-3.06-8.73-4.37-8.73s-1.09-.43-3.05,1.1-7.19,6.76-8.07,6.32-6.54-6.11-7.41-7.2-3.05-7.19-5.45-7.63a14.06,14.06,0,0,0-6.11,0c-1.31.44-9.16,2.4-9.16,3.27s-3.27,15.48-4.14,15.48-6.32-3.27-6.54-2.61a19.94,19.94,0,0,0,.21,3.92s-2.61-5.89-3.05-8.28,2.62-23.56,5.67-29.44S398.66,414.65,398.66,414.65Z" transform="translate(-51.61 -46.61)" fill="#f9ece5"/><path d="M385.28,470.6c1.17.67,10.35,7.35,11,5.84s8.35-20.37,9.36-19.7,17.7,18.2,18.37,17.2,8.35-9.19,8.35-9.19,14,15.2,14.87,14.87,3.5,2.84,4.84,1.67,14.36-6,15.2-6,14.53,4.51,15.87,3.5a47.82,47.82,0,0,1,5.34-3.5c1.34-.67,12.36-8.19,13-7.52s9.69,14.7,9.69,14.7,4.34-3.84,4.67-5.18,4.35-6.35,5-6.51a12.36,12.36,0,0,1,2.68-.67,39.1,39.1,0,0,1,4,.67l2.34-2.18h9.69s-13.53,4.51-14.53,6.18-9.69,15.2-10.36,15.7-9-5.34-10.69-5.34-15.7,2.34-17.87,3.17-16.37,3.85-16.37,3.85,13-5.85,12.2-6.19-12-5.34-12.7-5-20.37,8.86-23.05,8.36-5.68-3.51-7.51-4.35-12.53.84-13.36-.33-15.54-16.54-16.87-15.2S403.82,483,403.32,483s-5.51,6-6.18,5.51S387,479.29,386.45,478A64,64,0,0,1,385.28,470.6Z" transform="translate(-51.61 -46.61)" fill="#f9ece5"/><path d="M380.6,479s3.51,9.19,4.68,9.85,5.84.34,6.68.34,7,2.5,8.52,3.34,12,2.84,12.69,3,6.52,6.68,7.18,6.68,9.19-2.34,11-3,17.2-3.34,22.71-4.51,12-2,12-2,9.19,4,11.52,2.84,8.86-5.18,11.36-5.85,16-.84,17.71,0,4,6,7,4.18a19.37,19.37,0,0,0,5-3.85c.67-.83,1.67-4.51,3-4.84s4-.5,5-1.5,3.84,3.67,5.18,5.84,2.67,1.67,3.67,2.17,6-3.17,6.35-2.67,4.34-.33,3.84-.17-1.5.67-5,3.35a69.7,69.7,0,0,1-11.19,6.51c-1.34.5-8.69,3.51-11,2.67s-8.86-3-15.87-.33-7.52,4.51-10.36,4-10.85-1.84-15.36-1.34-23.05-1.17-26.39-1-15.7.33-17.37.33-10.86,1.67-10.36,2,19.21,1.83,21.55,1.83,22.88,2.51,32.57,3.84,17.87,6,21,9.19,5.85,6.18,5.85,6.18l-.84,3.51,13.87-7.68-.84,4,9.86-.83s-15,5.85-18.54,6.51-14.37,3.68-18.88,3.51-24.55,0-27.89.17-22.22.17-25.06.33-18.37,0-20.87-.67-17.21-5.17-23.22-7.85-9.19-5.34-9.86-6.68S378.93,502,378.93,502s22.55.67,25.39,1-.5-1.84-5.51-3.17-10.69-.67-12.36-1.84-2.51-3.17-4-3.84a7.12,7.12,0,0,1-3-3.51c-.16-.67-.16-5-.16-5l1.5-1.17S379.93,479.12,380.6,479Z" transform="translate(-51.61 -46.61)" fill="#f9ece5"/><path d="M409.07,198.22c-.13,1.38,1.76,13.93,40.41,14.56-3.64,4.14-10.55,2.63-4.77,7.4s6.65,7,5.52,9.16,18.7,5.77,28.23,3.64c-5.77,2.64-19.7,2.76-19.7,3.14s1,4,2,4,18.7-1.13,26.86-3.64c-2.26,1.64-18.95,9-41.92,7.53s-37.9-8.4-17.57-9.78L427,231.73a90.14,90.14,0,0,0-9.41-11.68C412.33,214.66,407.56,205.25,409.07,198.22Z" transform="translate(-51.61 -46.61)" fill="#ede8e6"/><path d="M424.5,221.44s-32.37,4.76-34.26,13.67,32.38,17.07,63.63,17.57c0,0-37-4.39-46.81-12s0-9.92,8.41-10.42.37-4.52,11-3.51S424.5,221.44,424.5,221.44Z" transform="translate(-51.61 -46.61)" fill="#ede8e6"/><path d="M412.08,249.17s31.12,9.41,73.41,3.64c-1.25,1,8.66,1.63,8.66,1.63s-30.74,3.51-49.69,1.88A120.89,120.89,0,0,1,412.08,249.17Z" transform="translate(-51.61 -46.61)" fill="#ede8e6"/><path d="M492.21,208.3l.24,6.51s3.74-10.49,7.11-10,8.56,20.61-11.57,24.47c-2.16,1.68-6.74,3.13-6.74,3.13s10,3.49,18.55-3.86,8.08-19.88,4.58-26.39S494.26,202.88,492.21,208.3Z" transform="translate(-51.61 -46.61)" fill="#ede8e6"/><path d="M492.45,214.81l7.11-1.33a23.09,23.09,0,0,1,2.65-4.94C501.25,204.56,497.51,201,492.45,214.81Z" transform="translate(-51.61 -46.61)" fill="#ceb6b6"/><path d="M420.43,222.79a67.63,67.63,0,0,0,7.4,7.78c2.1,1.6,14.94,5.3,21.85,4.93.49.25-19.87-2.71-19.63-1.11s13.46,6.54,13.46,6.54-10-.61-14.2-3.21L427,232.17S421.79,224.89,420.43,222.79Z" transform="translate(-51.61 -46.61)" fill="#ceb6b6"/><path d="M418.38,203.86c.44-.87,6.66-10.72,45-12s44.31,7.53,44.31,7.53-9-4.73-15.52,8.93C492.21,208.3,436.34,214.72,418.38,203.86Z" transform="translate(-51.61 -46.61)" fill="#ceb6b6"/><path d="M782,267.31c1.14-1.41,9.57-3,17.5.13s11.33,6.88,11.27,7.34-3,9.18-3.21,9.51-7.67,16.18-10.42,27-7.93,28.31-8.32,30.34-3,13.37-3,13.37-4.72-28.38-5.7-35.71-5.77-35.26-5.24-37.09S780.58,269,782,267.31Z" transform="translate(-51.61 -46.61)" fill="#d3ccc9"/><path d="M832.17,304.45c-1.73,4.83-1.38,21.36-1.21,26.7s4.13,14.3,3.45,22.22.34,44.45.51,52.71-1.55,15.51.69,20.16,8.44,7.75,8.44,7.75-16-1.89-16.71-4.65-2.06-22-1.72-31.35,1-42,1-51.68-.35-26.7,0-29.8S828.38,307.73,832.17,304.45Z" transform="translate(-51.61 -46.61)" fill="#d3ccc9"/><path d="M828.55,291c-1.55.34-4.83.34-6,1.37s-11.89,6.2-11.54,6.89,2.24,1.21,2.93,1,8.09-4.31,9.12-5S828.55,291,828.55,291Z" transform="translate(-51.61 -46.61)" fill="#d3ccc9"/><path d="M756,311.17c.34,2.41,7.75,27.22,8.78,31.7s11.71,31.34,12.06,32.9,2.58,9.64,2.58,9.64-4.3-7.92-5.68-10.16-11-35-12.92-39.1-6-20.5-6-21.19A24.8,24.8,0,0,1,756,311.17Z" transform="translate(-51.61 -46.61)" fill="#d3ccc9"/><path d="M742.32,290.38c-.18,3.14-2.21,33.05-1.66,36.74A102.79,102.79,0,0,1,741.4,343c-.18,5.36,1.29,27,1.29,31.21s2.4,22.34,2.4,23.26.37,4.07.37,4.07-5.72-2.59-5.91-3.14,1.85-2.22,1.85-4.44-.92-10-1.29-20.12S736.6,347.62,737,341s-.55-20.13,0-25.66,1.85-14.41,1.85-14.41,1.66-3.5,1.29-4.61S742.32,290.38,742.32,290.38Z" transform="translate(-51.61 -46.61)" fill="#d3ccc9"/><path d="M761.53,274.13c.55,2.58,3.51,13.11,3.69,15.51s.74,5.72.74,5.72l-3.33,5.17s1.48-5.72.93-7.38-2.77-11.26-3.33-12.74S761.53,274.13,761.53,274.13Z" transform="translate(-51.61 -46.61)" fill="#d3ccc9"/><path d="M794.76,257.39c-.69-.12-1.32-.21-1.84-.25-2.4-.18-11.82,3.7-12.56,4.43s-1.85,6.47-2.22,8.87-1.66,8.12-1.66,8.12,5-10.68,5.48-11.25,5.42-5.74,9.85-5.74c.86,0,1.73,0,2.6.11A17,17,0,0,1,794.76,257.39Z" transform="translate(-51.61 -46.61)" fill="#d3ccc9"/><path d="M809,280.41c0-.56,5.72-10,5.35-11.27s-3.69-4.61-9.23-7.75a35.67,35.67,0,0,0-8.84-3.67c-.2,1.23-.38,3.21-.46,4.09a18.34,18.34,0,0,1,8.75,3.09c3.51,2.58,7.38,5.72,7,6.46S809,280.41,809,280.41Z" transform="translate(-51.61 -46.61)" fill="#d3ccc9"/><path d="M819.13,327.92c-.48,1.19-4.52,7-8.56,11.65a234.85,234.85,0,0,0-15,20.92c-1.79,3.09-7.25,12.84-8,15s-1.78,5.24-1.78,5.24A48.7,48.7,0,0,1,790,373c2-2.74,8.68-12.49,13.55-19.26s14-18.79,14.15-19.62S819.13,327.92,819.13,327.92Z" transform="translate(-51.61 -46.61)" fill="#d3ccc9"/><path d="M780.13,409.22c.3.72,1,2.83,1.45,2.89s1.2.24,1.5-.42a18.12,18.12,0,0,1,1-2.23,33.06,33.06,0,0,1-.66,4.63c-.24.36-1.8,1.5-2.35,1.26s-1.38-1-1.44-1.5S780.13,409.22,780.13,409.22Z" transform="translate(-51.61 -46.61)" fill="#d3ccc9"/><path d="M781.16,391a5.69,5.69,0,0,0,1.44,2.58c.36.06,1.62.06,1.68-.24a16.64,16.64,0,0,0,.6-1.56,7.12,7.12,0,0,1,.36-1.8c.06.18.12,3.42.06,3.78s-.54,1.8-1.2,1.92-1.5.43-1.92-.06S781.16,391,781.16,391Z" transform="translate(-51.61 -46.61)" fill="#d3ccc9"/><path d="M782.48,371.55a3.16,3.16,0,0,0,1.2,2.1c.6.31,1.26.6,1.62.12a21.33,21.33,0,0,0,1.2-2.76,21.45,21.45,0,0,1-.12,4.27c-.3.72-1.56,2.52-2.16,2.28a5.16,5.16,0,0,1-1.86-2.28C782.3,374.8,782.48,371.55,782.48,371.55Z" transform="translate(-51.61 -46.61)" fill="#d3ccc9"/></g><g id="L" style="mix-blend-mode:screen"><path d="M504.37,199.88a5.75,5.75,0,0,1,5.76,3.24c1.62,3.24.72,10.71.09,11.61s-.63-7.38-1.08-5.67S508,211,508,209.78,507.07,201.32,504.37,199.88Z" transform="translate(-51.61 -46.61)" fill="#725e4c"/><path d="M459.91,182.87c5.22-.18,36.54-1.53,50.13,5.85s2.61,15.12,1.44,15.39l-.9-1.53s8.46-5.76-1.44-11.79S465.58,182.69,459.91,182.87Z" transform="translate(-51.61 -46.61)" fill="#725e4c"/><path d="M512.49,218.29s21.85,3.92,26.35,10.68-11,16.26-56.9,20.86c0,0,35.75-6.07,48.87-13.22s-21.06-14.69-21.06-14.69C510.34,220.94,512.49,218.29,512.49,218.29Z" transform="translate(-51.61 -46.61)" fill="#725e4c"/><path d="M77.59,311.88c.42-.25.45,47.82,0,47.82s-4.81,1-5.09.24-1.18-43-.72-47.7C71.78,312.24,73.68,314.21,77.59,311.88Z" transform="translate(-51.61 -46.61)" fill="#725e4c"/><path d="M61.8,310.46a10.05,10.05,0,0,1,2-.15c.44.1,6.58,2.48,3.7,11C67.54,321.27,69.4,311.23,61.8,310.46Z" transform="translate(-51.61 -46.61)" fill="#725e4c"/><path d="M504,525.83c1.29-.77,12.68-6,15.26-8.28s9.58-10.47,11.65-12.8,10.48-11.77,11.77-13.07,4.91-4,7.63-6.34a37.78,37.78,0,0,1,6.21-4.14l.26,2.2a21.13,21.13,0,0,0-7.41,4.55c-3.22,3.15-8.76,8.65-11.09,11.49s-14.49,18.5-16,19.28-19.28,11-19.28,11Z" transform="translate(-51.61 -46.61)" fill="#725e4c"/><path d="M420.41,502.29s-1.14-3.89-.26-4.14,10.31-2.39,15.58-3.39,30.41-4.27,33.55-5.28,9-1.51,13.44-3.77,12.44-6.53,15.7-7.79,6.16-2,6.16-2l.75,1.13s-13.19,5.78-17.21,8.17-8.92,5.15-22.61,7.66-30,5.15-32.92,6S420.41,502.29,420.41,502.29Z" transform="translate(-51.61 -46.61)" fill="#725e4c"/><path d="M522.55,470.38c1.13-.12,4.39.38,4.9.26a18.58,18.58,0,0,0,2.63-1.89s1.64-.75,8.8-2.51,14.82-3.39,14.82-3.39,0,2.38-.62,2.51S542,468,539.26,468.63s-17.72,4.27-17.72,4.27Z" transform="translate(-51.61 -46.61)" fill="#725e4c"/></g><g id="G"><path d="M251.6,418.15c23.31,0,42.18,10,42.16,22.19s-18.93,22.1-42.23,22.06-42.18-10-42.16-22.19S228.3,418.11,251.6,418.15Z" transform="translate(-51.61 -46.61)" fill="url(#radial-gradient)" style="mix-blend-mode:screen"/><path d="M260.47,423.71c16.28,0,29.46,7,29.45,15.5s-13.22,15.44-29.5,15.41-29.47-7-29.46-15.5S244.19,423.68,260.47,423.71Z" transform="translate(-51.61 -46.61)" fill="url(#radial-gradient-2)" style="mix-blend-mode:screen"/><path d="M641.93,234.9c15.22,0,27.54,5.16,27.54,11.46s-12.36,11.39-27.57,11.37-27.54-5.15-27.53-11.46S626.72,234.88,641.93,234.9Z" transform="translate(-51.61 -46.61)" fill="url(#radial-gradient-3)" style="mix-blend-mode:screen"/><path d="M648.35,234.8c10.77,0,19.5,3.65,19.5,8.12S659.1,251,648.32,251s-19.5-3.65-19.49-8.12S637.57,234.78,648.35,234.8Z" transform="translate(-51.61 -46.61)" fill="url(#radial-gradient-4)" style="mix-blend-mode:screen"/><path d="M671.17,144.78c12.28,0,22.21,15.73,22.18,35.08s-10,35-22.29,35-22.21-15.72-22.18-35.08S658.89,144.76,671.17,144.78Z" transform="translate(-51.61 -46.61)" fill="url(#radial-gradient-5)" style="mix-blend-mode:screen"/><path d="M675.07,147.77c7.41,0,13.41,8.08,13.39,18s-6,18-13.45,18-13.4-8.08-13.39-18S667.66,147.75,675.07,147.77Z" transform="translate(-51.61 -46.61)" fill="url(#radial-gradient-6)" style="mix-blend-mode:screen"/><path d="M319.52,48.3c8.26,0,14.94,10.34,14.93,23.07s-6.74,23-15,23S304.5,84.05,304.52,71.33,311.25,48.29,319.52,48.3Z" transform="translate(-51.61 -46.61)" fill="url(#radial-gradient-7)" style="mix-blend-mode:screen"/></g></g></svg>