<svg xmlns="http://www.w3.org/2000/svg" xmlns:xlink="http://www.w3.org/1999/xlink" viewBox="0 0 711.05 306.24"><defs><radialGradient id="radial-gradient" cx="400.81" cy="289.22" r="60.42" gradientTransform="matrix(1.52, -0.3, 0.18, 0.9, -291.96, 112.73)" gradientUnits="userSpaceOnUse"><stop offset="0" stop-color="#ffbe55"/><stop offset="1" stop-color="#ffbe55" stop-opacity="0"/></radialGradient><radialGradient id="radial-gradient-2" cx="594.49" cy="175.27" r="60.41" gradientTransform="matrix(1.17, -0.23, 0.18, 0.88, -125.69, 90.19)" xlink:href="#radial-gradient"/><radialGradient id="radial-gradient-3" cx="616.81" cy="167.96" r="37.8" gradientTransform="matrix(1.17, -0.23, 0.18, 0.88, -125.69, 90.19)" xlink:href="#radial-gradient"/><radialGradient id="radial-gradient-4" cx="415.76" cy="295.18" r="34.67" gradientTransform="matrix(1.17, -0.23, 0.18, 0.88, -125.69, 90.19)" xlink:href="#radial-gradient"/></defs><g style="isolation:isolate"><g id="C"><path d="M67.52,269.17c16.27,8.13,88.2,30,226.44-38.78S514.75,107.84,643,129.68c113.84,19.39,136.36,96.33,10.64,149.5C527.59,332.48,210.14,364.25,67.52,269.17Z" transform="translate(-27.52 -23.87)" fill="#b2ba99"/><path d="M613.29,115.74s-96.84-12.16-206.74,45-282.87,151.8-365.3,82c-56.31-55.85,62.16-148.64,326.56-156.3C512.4,75.65,613.29,115.74,613.29,115.74Z" transform="translate(-27.52 -23.87)" fill="#ffce55"/><path d="M72.86,111.48c.88.72,6.51,9.78,6.51,14.16s3.75,14.38,3.75,16,1.25,6.87,1.25,9.06.94,14.38.94,14.38,37.83,7.82,39.39,8.45,23.76,7.81,23.76,7.81l51.28,17.2,10.63,5s33.45-10,37.83-11.57,35-6.56,46.89-11.57,66.59-22.19,69.41-23.76,47.52-16.88,51.27-18.13,27.51-5.94,28.76-5.94,5-.31,5-.31.63-19.07.63-20-.63-16-.63-16l-50-.31-196,37.83L104.7,115Z" transform="translate(-27.52 -23.87)" fill="#959984"/><path d="M206.91,145.89c2.48-.55,39.08-7.43,44.86-8.53s28.08-6.33,30.28-6.61,84.23-20.37,88.63-20.92,60.83-12.11,63-12.38,16.79-1.38,16.79-1.38-18.44-1.65-22.84-1.65-24.78-.83-27.53-1.1-61.38,6.6-62.48,6.6-102.12,21.75-103.49,20.92-83.4-16.51-83.4-16.51-20.65,2.48-25,2.48-27.52,1.92-30.28,1.92-22.57,2.75-22.57,2.75,30.83,14.59,35,16,38,9.08,39.64,9.36,20.09,2.47,25.87,2.75S206.91,145.89,206.91,145.89Z" transform="translate(-27.52 -23.87)" fill="#d8d8c7"/><path d="M86,122.53c2.13,1.06,51.36,14.49,55,15.77s22.58,4.26,32.39,6,33.87,5.54,33.87,5.54S229.38,146,231.94,146s31.75-6,37.5-7.89,51.57-12.14,65-15.55,58.39-14.49,69.46-16.41,19-3,23.23-3.83,19-3.2,19-3.2-12.35,2.34-16.19,3.41-18.11,4-21.1,4.9-34.73,6.61-37.71,7.46-57.32,14.91-62,16-50.72,12.36-53.06,13-39.63,7.88-41.34,7.88-7,1.49-7,1.49-40.06-6.6-40.7-7-45.6-9.16-47.73-10.44-27.91-8.74-29-9.16-5.12-2.13-5.12-2.13l-3-2.77Z" transform="translate(-27.52 -23.87)" fill="#7e826b"/><path d="M85.34,127.64S113.26,136,115.39,137s35.8,7.88,37.29,8.31,30.68,5.75,33.66,6.39,22.16,5.54,22.16,5.54,7.67-.64,13-1.49,24.72-4.48,31.75-6.18,33.45-8.74,41.55-11.08,46-11.08,50.29-11.93,29.61-7,36.43-9,30.47-8.31,32.6-8.95S443.74,104,443.74,104s-34.94,8.1-37.93,8.52S366.18,123.17,363.2,124,315,136.38,312.06,137.23s-36.86,9-39.63,9.38-21.31,5.32-24.93,6-29,7.46-31.33,7.46-7.24,1.92-7.24,1.92-20.46-6-22.16-6.61-32.81-6.39-37.5-8.1-36-7-37.93-8.52-26-7.46-26-7.46Z" transform="translate(-27.52 -23.87)" fill="#7e826b"/><path d="M86.41,136.38c1.28.85,23,8.52,29,9.16s29.4,5.54,32.81,6.39,36,8.53,38.14,8.95,17.69,6.4,18.33,6.18,4.68,1.07,4.68,1.07a70.34,70.34,0,0,0,9.59-1.07c4.05-.85,46.45-8.52,69.47-14.49s49-10,66.9-16.4,21.95-6.61,51.57-14.07,36.22-8.73,37.29-9.16a15.64,15.64,0,0,1,1.91-.64l-.21,3s-35.37,7.46-39.42,8.53-71.17,20.24-76.92,21.31-40.48,9.58-44.11,10.65-32.6,6.39-38.35,7.88-25.36,5.12-29,6.18L210.85,172s-33-9.16-35.8-10-37.29-8.31-39.63-9.38-28.55-6.39-31.54-7.67S86,140.21,86,140.21Z" transform="translate(-27.52 -23.87)" fill="#7e826b"/><path d="M89.82,162.16c1.28.21,38.78,9.16,41.12,9.59s26,7.88,28.77,8.74,45.81,15.76,46.45,15.76,4.69,2.56,4.69,2.56,7.88-2.13,9.16-2.34,46.88-11.08,48.15-11.08,20.67-6.18,21.74-6.18,44.53-14.71,44.53-14.71-46.24,12.15-48.58,12.36-36.65,9.38-39,9.81-23.65,6.39-25.36,6.6-10,2.13-10,2.13-14.92-4.47-20.46-5.75-38.57-14.07-41.76-14.92-24.51-6.6-26.21-7-25.14-5.54-26-5.54Z" transform="translate(-27.52 -23.87)" fill="#7e826b"/><path d="M90,153c1.28,0,35.37,6.18,42.83,7.67s35.37,9.59,46.45,10.65,31.11,6,31.11,6,13.64-1.71,33.45-6,90.13-22.8,92.69-23,47.94-12.14,49-12.78,36.44-10,36.44-10-35.38,12.36-39.42,13.64-46.45,12.36-50.29,13.21-65.2,17-66.69,17.26-37.5,6.39-40.7,6.82-14.28,3.19-14.28,3.19-39.2-6.6-45-7.67-41.76-10.87-43.89-11.5S90,153,90,153Z" transform="translate(-27.52 -23.87)" fill="#7e826b"/><path d="M88.54,145.54c.64,0,19.39,3,22.8,3.84s60.3,14.06,62.22,14.49,16.41,4.9,16.41,4.9-36.44-6.61-40.06-7.89-35.8-8.09-38.36-8.73S89,148.1,89,148.1Z" transform="translate(-27.52 -23.87)" fill="#7e826b"/><path d="M91.74,156.83s22.16,7,30.25,7.89S156.3,173,156.3,173s-39.63-8.74-43.89-9.8-20.25-4-20.25-4Z" transform="translate(-27.52 -23.87)" fill="#7e826b"/><path d="M162.05,174.52s3.41,1.06,14.28,3.19,18.11,3.41,21.31,4.48S211.27,185,211.27,185v-2.77s-17.26-2.34-21.73-3.62-20.24-3-21.52-3.62S162.05,174.52,162.05,174.52Z" transform="translate(-27.52 -23.87)" fill="#7e826b"/><path d="M167.17,178.57c1.27,0,25.78,5.54,29.61,6s14.49,4.05,14.49,4.05l-.42,3.63s-12.36-4.48-17.69-6-15.55-4.26-17.68-5.12S167.17,178.57,167.17,178.57Z" transform="translate(-27.52 -23.87)" fill="#7e826b"/><path d="M209.78,164.29c.85,0,21.1-4.69,31.75-7.46s46-9.8,47.52-10,29.61-7.25,34.94-8.52,46.24-12.15,47.94-12.79,30.26-7.24,30.26-7.24-54.55,15.76-63.28,17.9-25.15,7.45-31.54,8.73S259.85,155.77,253,157.05s-23.23,5.11-26.85,5.54-16.2,3-16.2,3l-15.34-4Z" transform="translate(-27.52 -23.87)" fill="#7e826b"/><path d="M211.27,182.19c.86.64,17.69-3.2,29.83-5.33s43.47-10.44,43.47-10.44-32.81,10-35.58,10.44-22.8,4.26-24.29,4.48S211.27,185,211.27,185Z" transform="translate(-27.52 -23.87)" fill="#7e826b"/><path d="M211.27,188.58s2.77-.21,16-3.41,34.95-7.88,44.32-10.22,27.28-9.17,35.8-11.3,47.73-11.08,53.7-13,29.83-8.94,29.83-8.94-37.29,12.35-45.6,15.34-37.29,9.37-40.06,10-31.53,9.38-37.5,10.87-25.57,6-30.26,7.24-26.63,7-26.63,7Z" transform="translate(-27.52 -23.87)" fill="#7e826b"/><path d="M401.55,137.87c4.69-1.49,19-6.82,25.14-8.31l16-3.84,3.41-.63-.21,2.34s-5.33,1.07-11.72,2.77-24.71,6.39-25.57,6.39-14.7,3.84-14.7,3.84Z" transform="translate(-27.52 -23.87)" fill="#7e826b"/><path d="M409.22,115.5c4.9-1.28,19.39-5.33,24.08-6.4s11.93-2.76,11.93-2.76l.22,3.19s-9.38.85-12.58,1.28S409.22,115.5,409.22,115.5Z" transform="translate(-27.52 -23.87)" fill="#7e826b"/><path d="M204.72,145.78s.39,2.74.78,4.31,1.18,7.44,1.18,7.44a15.43,15.43,0,0,1,1.17,4.12c.2,2,1.57,8.62,1.77,11.95s1,12.74,1,15.29v7.25c0,.59.19,4.51.19,4.51a78.78,78.78,0,0,0,1.37-12c0-4.9-.19-9.79-.39-13.32s-1.17-12.54-1.76-15.48-1-7.45-1.18-8.43a28.61,28.61,0,0,1-.39-3.53c0-.58,2-2.35,2-2.35l-4.12.59Z" transform="translate(-27.52 -23.87)" fill="#7e826b"/><path d="M182.13,141.08s24.19,4.73,24.78,4.81,39.71-7.37,44.86-8.53,71.12-15.63,75.25-16.57,65.4-14.66,67.84-15.22,37.49-8.35,38.85-8.12,15.82-1.2,15.82-1.2-19.9-2.15-29.49-2c0,0-36.64,7.14-40,7.52s-72.53,15.41-76.1,16-82.13,17.85-85.13,18S182.13,141.08,182.13,141.08Z" transform="translate(-27.52 -23.87)" fill="#b2ba99"/><path d="M72.86,111.48s28.84-2.91,34.67-3.47,24.8-1.32,27.24-1.69,16-2,16-2L169,108s-29.13,5.26-32.89,5.45-31.76,4-35.7,4.13a83.18,83.18,0,0,0-11.09,1.88Z" transform="translate(-27.52 -23.87)" fill="#b2ba99"/><path d="M281,103c1.1-.27,33-8,42.39-9.91s45.19-7.39,65.83-11.79,30-6.45,30-6.45-20.14-3.23-21.24-4S372.61,63,368.75,61.94,341.23,57,339.3,56.71s-33.17-1.21-33.17-1.21L220,86.6s-14.45-.44-13.62-.44,29.45,6.06,35.78,7.16S258.93,98,265,99.37,281,103,281,103Z" transform="translate(-27.52 -23.87)" fill="#d8d8c7"/><path d="M419.21,74.68a54.37,54.37,0,0,1,.62,9.69c-.31,3.44,0,5.94.63,12.51a113.31,113.31,0,0,1,0,15.32s-11.26,5.31-15.95,5.63-46.89,8.44-50.64,8.75-70.35,15.32-70.35,15.32S229.13,129.71,226,128.46s-52.52-14.39-54.71-16-19.7-5.31-23.14-6.56-25.32-7.2-26.57-7.51-16.26-5.31-16.26-5.31l2.82-23.76,59.4,4.37,76,18.45S261,97.5,262.26,98.13,281,103,281,103s24.15-6.07,27.27-6.7S377,82.81,382.32,81.87s19.07-3.75,22.51-4.37S419.21,74.68,419.21,74.68Z" transform="translate(-27.52 -23.87)" fill="#959984"/><path d="M281.7,103.23l7.52-1.88s-4.51,3.19-4.7,4a44.12,44.12,0,0,0-.19,7.9c.19,3.39,2.07,18.44,2.26,19.75s.19,8.28.19,8.28l-1.88,1.13s-1.13-10-1.51-15.24-1.31-16.18-1.31-17.5a40,40,0,0,0-.57-4.51l-2.82-2.63Z" transform="translate(-27.52 -23.87)" fill="#7e826b"/><path d="M284.9,142.36c1.42-.66,27.61-6.19,30.57-6.79s30.54-7.21,31.82-7.51,10-2.07,10-2.07-12.85.89-17.09,2.37-32.71,7.71-35.28,8.1-15.52,2.77-16.11,2.67a20.62,20.62,0,0,0-2.77.1s-17-3.36-19.17-3.36-43.87-8.8-44.57-9-20.45-5.24-20.45-5.24,36.27,9.58,40.12,10.77,13.24,3.46,19,4.55,21.05,4.54,21.64,4.74S284.9,142.36,284.9,142.36Z" transform="translate(-27.52 -23.87)" fill="#7e826b"/><path d="M292.39,103.11c8.59-2.06,24.63-3.89,40-7.56s26.13-5.84,42.74-9.85,36.43-5.85,37.35-6.19,4-.92,4-.92.92,3.21.34,3.21-16.95,2.87-20.62,3.55-30.71,5.5-33.57,6.08-29.33,6.75-31.05,6.87-22.8,4.47-24.06,4.7-17.64,2.52-17.64,2.52Z" transform="translate(-27.52 -23.87)" fill="#7e826b"/><path d="M283.34,110.21c1.14-.34,14.89-1.83,20.62-3.32s33.8-7,50.41-10.31,40.22-8.48,44.8-9.51a123.06,123.06,0,0,1,12.37-1.72s-8.25,2.41-17.3,4.7S356.55,98.53,350,99.56s-26,5.84-32.54,7.22-21.43,4.35-24.06,4.58-10.2,1-10.2,1S242.66,100.94,238,100.82s-32.08-7.68-34.14-8.25S151.57,79.16,148.6,78.71a99.83,99.83,0,0,1-10.43-3s26.46,4.12,29.67,4.92,36.44,10,44.8,11.46,34.49,8.48,47.44,11.57S283.34,110.21,283.34,110.21Z" transform="translate(-27.52 -23.87)" fill="#7e826b"/><path d="M286.08,136.45c-.34-.11-41.47-9-45.83-10.42s-41.36-12.61-43.65-13.18S169.45,106,165.9,105s-23.84-7.8-23.84-7.8,57.29,14.56,66.23,17.08,40.9,12.71,48.58,14.32,24.63,4.24,25,4.24,3.44,1.14,3.44,1.14,28-4.24,31.74-5,25.09-4.58,29-5.38,31.85-5.62,34.14-6.53,15.12-4,21.43-5.62S415,108.5,415,108.5s-17,5.38-20.28,6.3-26.24,5.15-29.45,6.07-31.62,6.3-37.12,7.91-27,3.89-31.51,4.69A83.45,83.45,0,0,0,286.08,136.45Z" transform="translate(-27.52 -23.87)" fill="#7e826b"/><path d="M124.42,94.86c1.83.57,21.54,6.19,30.13,8.71s43.08,12.72,47.44,13.06,35.51,10.88,36.89,11,17.07,4,17.07,4-19.48-3.78-22.91-4.35-34.95-10.09-38.73-11-37-10.89-41.59-11.69-33.57-10.54-33.57-10.54Z" transform="translate(-27.52 -23.87)" fill="#7e826b"/><path d="M124.19,86.61c.8.12,21,5.85,24.29,6.65s41.48,9.85,50.18,11.8,42.74,11.8,46.52,12.6,14.09,3.1,20.05,4.58,18.33,2.87,18.33,2.87,52.82-8.94,57.18-9.62,36-6.19,39.41-7.11,30.7-5.27,33.34-5.84,4.12-.8,4.12-.8l1.38-.46-.34-2.52s-19.6,3.78-29.34,5.38-36.32,7.57-41.47,8.71-38.73,7-41.48,7.1-20.85,3.78-21.54,3.56-35.63-6.19-39.18-6.88-47.09-13.52-54.31-15S147,91.77,143.44,90.74s-23.72-6.65-23.72-6.65Z" transform="translate(-27.52 -23.87)" fill="#7e826b"/><path d="M126.48,88.56c2.18.8,38.84,10.43,41.48,11.23s40.33,10.19,44.22,11.8,40.22,9.85,40.91,10.08,18.9,4.7,21,5.16,5.62,1.14,5.62,1.14-46.63-9.51-51.33-10.54-41.25-12-46.4-12.72-34.61-9.39-35.64-9.51S126.48,88.56,126.48,88.56Z" transform="translate(-27.52 -23.87)" fill="#7e826b"/><path d="M113.08,80.42c.57,0,33.11,7.57,39.75,9.06s38.39,10.88,51.79,13.29,47.78,11.34,50.64,12,20.51,2.86,20.51,2.86-40-8.71-44.91-10.31-36.44-9.17-40.79-10.43-32.42-8.25-35.75-9.39-19.82-5.5-22.8-6.07-16.38-3.1-16.38-3.1Z" transform="translate(-27.52 -23.87)" fill="#7e826b"/><path d="M251.31,124.53c2,0,16,3.53,18.82,3.74s13.93,2.5,13.93,2.5,1.15,2.29,1,2-10.19-2.18-13-2.7-11.54-3-13.72-3.43-12.79-3.12-12.79-3.12Z" transform="translate(-27.52 -23.87)" fill="#7e826b"/><path d="M285.52,130.14s18.2-2.39,20.17-2.6,23.3-3.74,26.21-4.16,26.73-4.57,27.87-4.78,12.69-2.08,12.69-2.08-36.61,6.86-39.94,7.18-17.26,2.91-21.42,3.74-20.38,3.64-22.46,3.85-3.54.41-3.54.41Z" transform="translate(-27.52 -23.87)" fill="#7e826b"/><path d="M289.37,126.3c1.45-.21,23.39-4.37,29-5.52s30.37-4.47,34.73-5.61S382,111.43,391.8,109s22-5.2,23.08-5.4,5.41-1,5.41-1l-.1,2.49s-22.46,4.89-28.08,5.72-39.1,5.93-42.43,6.76-32.55,4.89-35.25,5.41-12.79,1.77-14.66,2.18S289.37,126.3,289.37,126.3Z" transform="translate(-27.52 -23.87)" fill="#7e826b"/><path d="M308.71,111.32c1-.21,31.2-6.65,39-8.73s44.09-9.88,47.1-10.4,21.64-3.75,22.26-3.75.93,2.29.93,2.29-11.33,1.67-16,2.39-47.21,9.36-49.4,9.78Z" transform="translate(-27.52 -23.87)" fill="#7e826b"/><path d="M284.89,118.91c.52,0,11.13-2.08,17.48-3.22s46.27-8.53,54.59-9.88,30.78-5.41,33.17-5.82S416,96.76,416,96.76s-40.45,6.76-42.22,7.18-44.62,8.52-52.41,9.67-37.34,7-37.34,7Z" transform="translate(-27.52 -23.87)" fill="#7e826b"/><path d="M184.44,90.63c1.35.62,29.43,7.07,35.25,8.73s24.44,6.45,32.45,7.8,26.72,6.45,28.49,6.55a11.49,11.49,0,0,1,3.43.84l17.06-2.4-16.95,4.27s-27.56-6.14-31.41-7.18-54.7-14.14-57.4-14.87-34.11-8.53-34.11-8.53Z" transform="translate(-27.52 -23.87)" fill="#7e826b"/><path d="M115.37,87.76c1.72.34,11.69,3.09,13.52,3.89s11.23,4.7,11.23,4.7-28.07-8.59-28.42-8.82S115.37,87.76,115.37,87.76Z" transform="translate(-27.52 -23.87)" fill="#7e826b"/><path d="M209.42,84.07s35.36,8.52,36.63,8.81,21.55,7.15,23.6,7.45S281,103,281,103l29.35-6.64s-22.33-4.5-22.63-4.5-21.33-4.48-28.19-6.15-25.8-9.57-26.69-9.86S209.42,84.07,209.42,84.07Z" transform="translate(-27.52 -23.87)" fill="#b2ba99"/><path d="M419.21,74.68l-20.47-3.52s-28-9-28.72-9.43-29.37-4.52-30.72-5S305.47,55.64,305,55.64s-15.66,5.94-15.66,5.94,33.5,1.89,36.4,1.74,42.21,8,44.54,8.42,20.88,4.78,22,4.93S400,78.84,400,78.84Z" transform="translate(-27.52 -23.87)" fill="#b2ba99"/><path d="M348.66,29.38s1.37,17.16,1.37,19v7.09s-17.14,8.46-22.63,10.75-38.18,16.91-42.07,19.43S250.12,111,250.12,111s-67.9-3-69-3.66-36.81-4.12-38.18-4.57-43.44-8.23-43.44-8.23l-3-.23S93.74,68.72,93.74,66,92.6,54.32,92.6,54.32s82.76-1.15,83.68-.69S279.39,34.2,279.39,34.2Z" transform="translate(-27.52 -23.87)" fill="#959984"/><path d="M91.86,54.42c3.57.28,34.4,3.58,37.15,4.13s62.49,8.81,66.34,9.36,48.72-.55,50.37-.27a28.26,28.26,0,0,1,4.4,1.37,161.6,161.6,0,0,1,16.52-11.56c8-4.68,41.28-15.14,45.14-16.24s18.71-7.71,23.67-8.81,13.21-3,13.21-3-30-.55-35.78-1.38-17.07-2.75-27.53-2.75-39.91-1.38-39.91-1.38-54.22,11.84-58.35,13.21S132,48.64,129.29,48.92s-18.72,3.3-21.47,3.85S91.86,54.42,91.86,54.42Z" transform="translate(-27.52 -23.87)" fill="#d8d8c7"/><path d="M246.65,67.71c.53.53,3,3.88,3,4.58s1.24,1.76.53,7.23-1.23,9.34-.88,14.45.71,13.21.71,13.74a15.36,15.36,0,0,1-1.59,3l1.71.31,3.75-3.13s-1.23-1.41-1.23-2.12-.88-12.16-.88-15.15.18-11.81,0-13.75-.35-7.75-.35-7.75l2.29-2.82L250.12,69Z" transform="translate(-27.52 -23.87)" fill="#7e826b"/><path d="M345,33.17c-1.94.53-6.7,1.59-14.63,4.23s-14.45,3.88-23.79,8.28-15.33,6.7-20.61,8.64-18.33,6.16-19.39,6.52-8.46,6.17-10.4,7.93-4.93,4.4-4.93,4.4-11.28-.35-13.57-.35-37.89-2.11-41.23-1.76-68-6-75.95-6.35-23.09-.35-23.09-.35,76.13,7.76,80.89,8.46,39.29,3.7,43.52,3.88,30,.17,30,.17,4.41-4.23,7.22-5.64,7.76-7.4,9.7-7.93,26.61-8.45,29.25-9.86,13.92-7,17.27-8.46,15.15-5.64,16.74-6.17S345,33.17,345,33.17Z" transform="translate(-27.52 -23.87)" fill="#7e826b"/><path d="M96.69,57.49c2.64-.53,18.68,3.35,24.31,3.17s34.9,3.35,37.72,3.53,10,2.64,10,2.64-19-1.94-25.55-2.82-32.07-2.47-35.07-2.82S97,60.84,97,60.84Z" transform="translate(-27.52 -23.87)" fill="#7e826b"/><path d="M257.22,76.7c2.47-1.59,10-6.87,11.1-7.4s1.76-1.59,3.17-2.12S280,64.71,282.6,64s17.8-6.7,17.8-6.7S281.89,66,278.72,67.18s-8.28,3.53-10.57,4.41S257.22,76.7,257.22,76.7Z" transform="translate(-27.52 -23.87)" fill="#7e826b"/><path d="M310.44,51.68c2.64-1.24,7.75-4.41,9.69-5.12s15-5.11,18.5-7a64.09,64.09,0,0,1,6.7-3.18l-.18,2.47s-15,5.82-16.91,6.7S310.44,51.68,310.44,51.68Z" transform="translate(-27.52 -23.87)" fill="#7e826b"/><path d="M257.22,80.57c1.59-1.23,22-10.22,24.5-11.8s18.5-10,22.38-12,23.43-9.7,25.37-10.58,15.68-6.52,15.68-6.52l.36,2.82s-7.58,2.82-12.51,4.94-25.56,9-27.14,10.22-38.59,19.38-40.18,20.26-9,5.46-9.87,6-4.76,3.7-4.76,3.7-52-2.11-54.45-2.46S149.9,81.28,148,81.1s-16-1.76-16-1.76,52,1.94,54.45,1.94,16.92,1.59,21.85,1.59,28.9,1.4,30.49,1.4,11.28.18,11.28.18Z" transform="translate(-27.52 -23.87)" fill="#7e826b"/><path d="M97.74,87.27s-.53,4,.18,3.88,14.27,4.23,21.67,4.4,34.9,5.46,40,5.64,26.6,1.76,29.78,1.94,39.47,1.59,39.47,1.59-35.6-2.82-38.94-3.53-51.11-6.34-53.57-6.52-19.57-3.17-24.15-3.52S97.74,87.27,97.74,87.27Z" transform="translate(-27.52 -23.87)" fill="#7e826b"/><path d="M238.36,106c1.94-.18,10.22-.7,10.22-.7l3.35-1.59s10.22-7,13.57-9.34S282.24,85,282.24,85s-13.57,9.87-16.39,11.45S251.58,107,251.58,107Z" transform="translate(-27.52 -23.87)" fill="#7e826b"/><path d="M99.15,66.12c1.24,0,35.42,5.12,40.71,5.64s39.82,4.41,42.64,4.41,37.36,2.64,39.83,2.82,21.15,1.76,21.15,1.76-31,.18-33.66-.35-31-3-35.42-3S142.5,75.11,140,74.76s-21-3-22.38-3.17l-19.2-2.47Z" transform="translate(-27.52 -23.87)" fill="#7e826b"/><path d="M99.68,72.47c1.23.17,12.34,1.94,18.33,2.64a59.94,59.94,0,0,1,11.1,2.47l-19.39-2.64c-3.87-.53-10.39-.89-10.39-.89Z" transform="translate(-27.52 -23.87)" fill="#7e826b"/><path d="M98.62,78.11c1.06,0,29.78,3.35,33.66,3.52s41.24,3.7,43.88,3.88,32.07,3.7,41.76,3.7,30,1.23,30.49,1.23a9.42,9.42,0,0,0,2.29-1S269,82,272.2,80.22s22.2-12.51,25-13.74,16.21-6.17,16.21-6.17-18.5,8.81-22.38,11.1-23.61,13-25.55,14.1-15.33,8.81-15.33,8.81-34.54-3.7-39.47-3.7-47.41-4.23-49.7-4.41-43.7-3.87-45.46-4.4S98.62,78.11,98.62,78.11Z" transform="translate(-27.52 -23.87)" fill="#7e826b"/><path d="M99.68,82.51l-.35,2.65s11.28,1.93,16.21,2.29,38.24,4,46.17,4.75,58,4.94,60.27,5.29S168.05,91,164.53,90.62s-41.24-5.11-42.82-5.11S99.68,82.51,99.68,82.51Z" transform="translate(-27.52 -23.87)" fill="#7e826b"/><path d="M240.66,98.55c2.29,0,9.51-.35,9.51-.35s10.57-6.35,14.63-8.46,20.44-11.46,24.14-13.4,12.86-7.22,17.09-9,25.2-10.75,25.2-10.75-31.37,16-33.3,17.09-25,13.39-26.44,14.1-12.16,7.4-14.62,9A55,55,0,0,0,251.4,101L234.14,98.9Z" transform="translate(-27.52 -23.87)" fill="#7e826b"/><path d="M291.05,79.52c1.06-.36,13.4-7.23,17.8-9.34s15-6,20.8-9S347.8,52,347.8,52l-.18,2.46s-17.09,7.93-18.68,8.64l-13,5.81c-1.58.71-11.81,5.11-12.69,5.47S291.05,79.52,291.05,79.52Z" transform="translate(-27.52 -23.87)" fill="#7e826b"/><path d="M320.31,57.49c2.46-1.23,10.75-5.82,13.57-6.87s11.63-3.88,11.63-3.88l-.36,1.94s-14.09,4.76-15.86,5.46S320.31,57.49,320.31,57.49Z" transform="translate(-27.52 -23.87)" fill="#7e826b"/><path d="M334.58,54.67c.53-.35,11.45-4.58,11.45-4.58l1.06.7Z" transform="translate(-27.52 -23.87)" fill="#7e826b"/><path d="M305.33,60.84c.88-.53,10-4.94,12.16-5.82s11.8-4.4,11.8-4.4-12.86,6.52-14.62,6.87S305.33,60.84,305.33,60.84Z" transform="translate(-27.52 -23.87)" fill="#7e826b"/><path d="M92.6,54.32S127.88,59,129,58.55s38.13-9.93,50.27-13.39,68.2-15,72.44-16.38,15.8-3.86,15.8-3.86l-22.08-1.05s-47.28,10.69-48.82,10.88-61.27,13.1-62.81,13.1-28.71,5-29.48,5S92.6,54.32,92.6,54.32Z" transform="translate(-27.52 -23.87)" fill="#b2ba99"/><path d="M249.79,69.62s-3.52-2.05-4.07-2-25.79.83-25.79.83,25.43-7.9,28.32-9.83,17.15-7.51,17.73-7.7,15.8-7.71,22.15-9.64S307.21,34.75,313,33s15.6-4.24,15.6-4.24l20.07.6s-15.44,4.41-17,4.41-23.89,9.05-27.17,9.63-32,11.75-33.91,12.52-10,5.4-11,6-9.5,7.09-9.5,7.09" transform="translate(-27.52 -23.87)" fill="#b2ba99"/><path d="M219.32,32.76c-10.4,1.16-20,4.19-21,6.52s11,10.26,14.21,11.42a88,88,0,0,0,25.86,3.73c11-.23,21.21.93,33.09-3s16.31-5.59,20.74-8.62-11.42-9.09-16.31-10.25S250.31,30.2,244,30,221.42,32.53,219.32,32.76Z" transform="translate(-27.52 -23.87)" fill="#968d78"/><path d="M245.88,33.69c-4.48-.1-19.34.7-23.07,1.63S210,37.42,210,38.82s4,4.89,7,6.76S237.73,50.7,250.31,50s23.06-1.86,27.72-5.36,3-5.82.24-7.69S256.13,33.93,245.88,33.69Z" transform="translate(-27.52 -23.87)" fill="#d3c5a9"/><path d="M218.92,38.27c.88,0,12.1,1.37,14.91,1.42s8.52,1.61,14.15,1.84,13,1.89,14.48,1.94S270.35,45,270.35,45s7-3.33,6.37-3.35-21.89-1.93-24.31-2.16-17.5-2.43-19.83-2.53-7,.28-7.39.12A62,62,0,0,0,218.92,38.27Z" transform="translate(-27.52 -23.87)" fill="#968d78"/><path d="M244.41,35a71.43,71.43,0,0,0-9.51,0c-1.51.33-12.21,3.9-12.64,4.44s-.43,3.89.32,4.43,5.84,2.81,9.3,2.81,10.91-.65,12.53-1.3,12-6.7,12.75-7,5.52.87,6.92,1.19-.22.87-.43,1.41-4.11,2.7-4.76,3.13-6.37,2.6-6.16,2.92,8.87.22,9.41,0a81.25,81.25,0,0,0,7.34-4.65c.65-.64,2.06-2.81,1.41-3.56s-2.7-2.71-4-2.81-10.91-.76-12-.11-4.54,1.84-5.41,2.27-6.16,3.57-7.24,3.89a77.22,77.22,0,0,1-10.05.32A2.65,2.65,0,0,1,230,40.45a27,27,0,0,1,5.62-2.6C236.42,37.75,244.41,35,244.41,35Z" transform="translate(-27.52 -23.87)" fill="#968d78"/><path d="M193.2,54.83c1.51,0,25.8,1,25,1.66s-6.48,3.72-7.31,3.45S193.2,54.83,193.2,54.83Z" transform="translate(-27.52 -23.87)" fill="#bcad8e"/><path d="M272.68,28.48a10.24,10.24,0,0,1,3-1.52c.41,0,12.28,1,13.94,1.1s9.38.83,9,1-3.73,1.65-3.73,1.65-9.66-1.38-13-1.65S272.68,28.48,272.68,28.48Z" transform="translate(-27.52 -23.87)" fill="#bcad8e"/><path d="M310.49,80.85c2.7-1.47,21.34-6.62,22.81-6.62s15,2.21,14,2.21-28.69,6.87-29.43,6.62S310.49,80.85,310.49,80.85Z" transform="translate(-27.52 -23.87)" fill="#bcad8e"/><path d="M170.22,117.39c.25.74,11.53,11.28,12.51,11s16.68-3.68,16.68-3.68Z" transform="translate(-27.52 -23.87)" fill="#bcad8e"/><path d="M242.82,248.84c-.41,3.29,1.65,26.75,2.47,29.64s17.7,28.81,100.85,21.81,105.37-39.1,105-42,.41-28,0-30.46-7-32.11-78.21-30.46S246.52,218.79,242.82,248.84Z" transform="translate(-27.52 -23.87)" fill="#ffce55"/><path d="M484.31,183.62c-.39,3.12,1.56,25.34,2.34,28.07s16.76,27.29,95.52,20.67,99.8-37,99.41-39.77.39-26.51,0-28.85-6.62-30.41-74.07-28.85S487.82,155.16,484.31,183.62Z" transform="translate(-27.52 -23.87)" fill="#ffce55"/><path d="M473.89,151.42c-.39,3.12,1.56,25.34,2.34,28.07s16.76,27.29,95.52,20.66,99.8-37,99.42-39.76.38-26.51,0-28.85-6.63-30.42-74.08-28.86S477.4,123,473.89,151.42Z" transform="translate(-27.52 -23.87)" fill="#ffce55"/><path d="M492.83,113.53c-.38,3.12,1.56,25.34,2.34,28.07s16.77,27.29,95.52,20.67,99.81-37,99.42-39.77.39-26.51,0-28.85S683.48,63.24,616,64.8,496.34,85.07,492.83,113.53Z" transform="translate(-27.52 -23.87)" fill="#ffce55"/><path d="M473.89,85.12c-.39,3.12,1.56,25.34,2.34,28.07s16.76,27.29,95.52,20.66,99.8-37,99.42-39.76.38-26.52,0-28.86-6.63-30.41-74.08-28.85S477.4,56.66,473.89,85.12Z" transform="translate(-27.52 -23.87)" fill="#ffce55"/><path d="M242.82,248.84c-1,10.6,33.25,49.29,134.25,26.29,76.9-20.61,74.21-41.54,74.21-41.54s.47,24.1.15,25.37-11.57,27-85.14,40-115.91-7.61-121.78-20.46C243.88,273.71,242.55,252.35,242.82,248.84Z" transform="translate(-27.52 -23.87)" fill="#f2ac3b"/><path d="M681.58,163.74c-1.44,10.5-26.59,33.7-90.36,40.14s-99.56-12.27-99.56-12.27L484,187.86s1.79,23.36,2.24,24.7,17.22,26.95,95.22,20.66,95.81-31.28,101-40.42C683.14,190.86,682,163.87,681.58,163.74Z" transform="translate(-27.52 -23.87)" fill="#f2ac3b"/><path d="M473.89,151.42c-.78,4.61,31.42,36.21,120.14,24,85.15-12.16,76.7-38.57,76.7-38.57,1.18,4.75,1.48,22-.3,27s-20.18,29.52-92.72,35.76S479.94,189,475.49,180.21C474.6,176.65,472.89,155.26,473.89,151.42Z" transform="translate(-27.52 -23.87)" fill="#f2ac3b"/><path d="M690.11,93.65c.37,4.11.37,28.83.37,29.86s-17.57,32.18-83.93,38.1c-61.62,5.49-109.85-2.4-118.77-20.08-1-8.24.11-23.55.11-23.55s21.17,25.08,117.46,17C676.44,129.05,689.73,99,690.11,93.65Z" transform="translate(-27.52 -23.87)" fill="#f2ac3b"/><path d="M474.38,82.74c-.61,1.38,23.16,26.53,105.82,19.17s90.94-32.67,90.79-36c2,6.28,1.38,25,0,29.13s-21.31,35.27-105.52,35.58c-81.27.31-91.09-20.24-91.24-22.08S473.61,86,474.38,82.74Z" transform="translate(-27.52 -23.87)" fill="#f2ac3b"/><path d="M287.74,222C325,204.85,392,203.1,422.83,216.2s-4.66,34.35-4.66,34.35,30.28-26.2-25-34.64S287.74,222,287.74,222Z" transform="translate(-27.52 -23.87)" fill="#f2ac3b"/><path d="M516.29,60.73c20.38-11.94,68.42-19.51,110.63-10.48,28,6,31.74,18.63,12.52,25.33,0,0,7-20.09-39.59-23.87S516.29,60.73,516.29,60.73Z" transform="translate(-27.52 -23.87)" fill="#f2ac3b"/><path d="M403.8,234.79c3.68-1.93,18.94-7.19,18.94-8.07s-.35-4-.35-4-26.13,8.94-25.6,9.12S403.8,234.79,403.8,234.79Z" transform="translate(-27.52 -23.87)" fill="#f2ac3b"/><path d="M411,240.75c-.7,0-9.47,3.68-9.47,3.68L385,236.72s-33.14,11.39-53.13,16.83-37.17,8.94-47.69,5.78S272,247.24,272,247.24s-.7,9.64,1.23,13.5,9.64,10.87,34.89,8.41,73.81-23,75-22.44,16.48,6,17.53,6,11.4-4,11.4-4Z" transform="translate(-27.52 -23.87)" fill="#f2ac3b"/><path d="M316.31,236.19c-2.63-4.73-16-6.66-28.58,1.75-5.26,3.86-6.31,7.72-6.31,7.72a36.39,36.39,0,0,1,21.21-7.89c12.63-.35,7,7,7,7S318.41,240.75,316.31,236.19Z" transform="translate(-27.52 -23.87)" fill="#f2ac3b"/><path d="M372.24,229.35c-.7-.35-13.5-5.26-13.5-5.26s-1.05,6.31-.53,6.66,2.46,2.28,2.46,2.28Z" transform="translate(-27.52 -23.87)" fill="#f2ac3b"/><path d="M518.08,61.63c1.9,0,20.82,3.94,20.34,4.41s-6.46,4.1-6.46,4.1-15.14-2-15.45-2.52a53.84,53.84,0,0,1-1.11-6Z" transform="translate(-27.52 -23.87)" fill="#f2ac3b"/><path d="M557.34,70.93c-.47-.16-8.51-1.89-9-1.89s-10.09,9-10.72,8.67-12-.47-12-.47c-.15.94-.47,8,.32,8.67s12.14,1.42,12.77,1.1c.38-.18,7.08-5.81,12.34-10.35,19.35,3.73,39.53,11.93,49,11.62,10.41-.64,17.35-2.69,18.61-4.26s-2.84-12.62-2.84-12.62-.31,11.2-21.44,7.73A335.55,335.55,0,0,1,557.34,70.93Z" transform="translate(-27.52 -23.87)" fill="#f2ac3b"/><path d="M588.88,68.25c-4.26,3.24,11.2,5.52,13.24,3.47S593.45,64.78,588.88,68.25Z" transform="translate(-27.52 -23.87)" fill="#f2ac3b"/><path d="M520.86,58.91c1-.48,8.36-3.85,9.61-4S545.86,58,546.53,58s11.35-7.31,12-7.31S569,50.16,569,50.16s-.29,5.09-1,5.38-7.69,5.29-7.69,5.29,4.32-6.15,2.79-6-14.52,8-14.52,8,9.61-9.23,6.44-7.88-12.21,7-12.21,7-2.79-3.36-5.1-2.69-2.5,1.44-5-.19S524,57.66,520.86,58.91Z" transform="translate(-27.52 -23.87)" fill="#ffefae"/><path d="M566.27,64.37c.87.17,13.14,1.13,13.66,1s5.65-4.44,16.87-2.7S612,67.93,612,67.93s-15.81-3.14-21-3-4.89,1.74-5.16,3c-1.82-1-4.69.44-2.52,3.13-6.09-3.13-10.44-5.22-10.09-4.08a17.94,17.94,0,0,0,1.22,2.69Z" transform="translate(-27.52 -23.87)" fill="#ffefae"/><path d="M525.65,77.24c1.1.3,11.81,1.46,12.16,1.11S548.75,69,548.75,69s-10.24,5.82-11.64,6,.46,1.87-.82,1.87S525.65,77.24,525.65,77.24Z" transform="translate(-27.52 -23.87)" fill="#ffefae"/><path d="M294.72,226.61c15.3-3.8,21.86-2.47,29.94,1.9s1.52,11.22,2.85,10.94,42.12-10.75,43.16-10.75c.78.25.92.41,1.57.65-2.18,2.09-51.67,14.57-51.95,14.18s4-7.22,1.33-9.31c3-1.62-2.38-7-6.84-6.37s-5.33,1.42-6.85.38S301.75,225.28,294.72,226.61Z" transform="translate(-27.52 -23.87)" fill="#ffefae"/><path d="M283.4,241.54c-1.8,1.42-6.64,9.54,4,9a52.94,52.94,0,0,0,16.35-3.23C291.68,249.43,279.22,249.43,283.4,241.54Z" transform="translate(-27.52 -23.87)" fill="#ffefae"/><path d="M375.14,221.86c1.14.57,9.22,3.33,9.7,3.33s13.21-3.9,14.64-4.57,8.65-3.89,9-3.61,12.64,3.9,13.31,4.18.95,1.62.95,1.62l-19.87,6.94s12.45-6.37,8.84-7.13-10.93,2.57-10.93,2.57,4.28-3.33,2.47-3.52-21,9.89-21,9.89,2.66-4.09-.85-4.95S379.8,223.29,375.14,221.86Z" transform="translate(-27.52 -23.87)" fill="#ffefae"/><path d="M397.1,231.65s14.83,7.8,14.83,8.37.19,8.27.19,8.27-1.14-7.13-1.42-7.13-7.13,2.37-7.13,2.37,4.27-2.09,2.85-2.85-.19-2.28-3.52-2.94C403.38,236.78,397.1,231.65,397.1,231.65Z" transform="translate(-27.52 -23.87)" fill="#ffefae"/><path d="M590.93,71.5c.81,2.77,10.84,3.21,11.19.22C602.12,71.72,595.78,74.16,590.93,71.5Z" transform="translate(-27.52 -23.87)" fill="#ffefae"/><path d="M246.76,254.75c-.24.83.83,28.07,1.54,29.13s8.29,5.81,9,5.69.95-27.12.95-27.12Z" transform="translate(-27.52 -23.87)" fill="#ffce55"/><path d="M266.77,269.32s0,24.63.71,25.34,16.7,5.33,17.41,5,1.07-23.92.36-24.86S266.77,269.32,266.77,269.32Z" transform="translate(-27.52 -23.87)" fill="#ffce55"/><path d="M320.77,277.13c-.12,1.07-.83,25.82,0,26.29s28.3-1.42,30.08-2c.59-4.38-.83-23.68-1.18-24.63S320.77,277.13,320.77,277.13Z" transform="translate(-27.52 -23.87)" fill="#ffce55"/><path d="M367.31,272.16c0,.47,1.78,26.41,2.37,26.41a53.87,53.87,0,0,0,7.58-1.78c.47-.35-.71-26.52-1.07-26.88S367.31,272.16,367.31,272.16Z" transform="translate(-27.52 -23.87)" fill="#ffce55"/><path d="M383.77,269.44s.83,24.51,1.66,25.1S407,289,408.64,287.79c.47-2.6-3.08-25.81-4-26.17S383.77,269.44,383.77,269.44Z" transform="translate(-27.52 -23.87)" fill="#ffce55"/><path d="M421.66,255.58c.12.71,1.78,26.17,2.85,25.82s8.88-4.15,9.23-4.86S433,250,432.2,249.66,421.66,255.58,421.66,255.58Z" transform="translate(-27.52 -23.87)" fill="#ffce55"/><path d="M435.88,247.89s1.54,25.57,2.72,25.34,9.83-8.53,10.3-10.42-.71-25-1.42-25.23S435.88,247.89,435.88,247.89Z" transform="translate(-27.52 -23.87)" fill="#ffce55"/><path d="M480.38,85.68s.22,28.36,1.18,30.18S493,122.28,500.07,124c.43-.86.11-30.5-.43-31.14S480.38,85.68,480.38,85.68Z" transform="translate(-27.52 -23.87)" fill="#ffce55"/><path d="M506.81,96.28s-1.07,28.14.11,29.1,11.66,2.89,12.41,2.46,1.71-30.39,1.29-30.71S506.81,96.28,506.81,96.28Z" transform="translate(-27.52 -23.87)" fill="#ffce55"/><path d="M555.71,99.27s-.43,30,.86,31,23.54.22,25.36-.32c.85-1.93,1.17-30.71-.22-32.1S555.71,99.27,555.71,99.27Z" transform="translate(-27.52 -23.87)" fill="#ffce55"/><path d="M599.15,96.38c-.81.82-.21,31.25.86,31.89s21-2.46,30.6-6.31c.43-1-2.67-29.64-3.1-30.18S599.58,96,599.15,96.38Z" transform="translate(-27.52 -23.87)" fill="#ffce55"/><path d="M634.46,89.54c-.21.42,2.14,29.95,3,30.06s6.63-2.46,7.49-3.21-2-31.24-2-31.24Z" transform="translate(-27.52 -23.87)" fill="#ffce55"/><path d="M654.79,78.41s1.72,30.38,3,30.6,9.31-7.06,9.84-8.77.22-26.76-1-27.72S654.79,78.41,654.79,78.41Z" transform="translate(-27.52 -23.87)" fill="#ffce55"/><path d="M498.67,124.35c-.12.36.12,25.4,1,27.19s11,5.48,11.33,4.89,1.91-27.55,1-27.55S498.67,124.35,498.67,124.35Z" transform="translate(-27.52 -23.87)" fill="#ffce55"/><path d="M532.18,132.93s-.83,27.79-.11,28.27,27.18,3.22,27.78,2.62-.72-29.57-.72-29.57Z" transform="translate(-27.52 -23.87)" fill="#ffce55"/><path d="M595.63,133.89c0,.71,1.31,28.86,1.91,29s34.58-3,35.89-4.89-2.27-28.38-2.86-28.86S595.63,133.89,595.63,133.89Z" transform="translate(-27.52 -23.87)" fill="#ffce55"/><path d="M636.89,128.76s1.31,27.55,1.91,27.79,8-1.79,8.22-2.51-2.74-27.78-3.22-28.14S636.89,128.76,636.89,128.76Z" transform="translate(-27.52 -23.87)" fill="#ffce55"/><path d="M658,123.39s1.9,24.45,2.62,24.45,11.21-5.49,14.91-8.82c.11-2.39-2.75-24.57-3.34-24.81S658.59,122.32,658,123.39Z" transform="translate(-27.52 -23.87)" fill="#ffce55"/><path d="M686.38,101.09c0,1.43,1.79,25,1.19,26.6S684,132.1,684,132.1s-3.34-23.85-2.86-24.81S686.38,101.09,686.38,101.09Z" transform="translate(-27.52 -23.87)" fill="#ffce55"/><path d="M476.9,154.08c0,.47,2.06,29.55,2.53,31s12.8,7.58,13.91,7.11.16-31.45.16-31.45Z" transform="translate(-27.52 -23.87)" fill="#ffce55"/><path d="M506.61,168.61c-.32.95,1.27,28.13,1.74,28.77s6,1.58,6,1.58L514,169.88Z" transform="translate(-27.52 -23.87)" fill="#ffce55"/><path d="M517.67,171.93c-.16,1.58-.31,27.34,0,27.82s26.24,3,26.87,2.05-.64-27.34-.95-28.45S517.67,171.93,517.67,171.93Z" transform="translate(-27.52 -23.87)" fill="#ffce55"/><path d="M564.29,173.35c-.16.64.63,28.45,2.21,28.61s30.5-.48,31.61-3.16.31-28.29,0-28.76S564.29,173.35,564.29,173.35Z" transform="translate(-27.52 -23.87)" fill="#ffce55"/><path d="M610,169.09c.16.95.63,27.81,1.58,28s11.7-1.58,11.7-3-1.43-26.71-2.06-27S610,169.09,610,169.09Z" transform="translate(-27.52 -23.87)" fill="#ffce55"/><path d="M638.25,162.61s.31,26.86,1.74,26.39,13.27-6,13.43-6.48-3-23.86-3.64-24.18S638.25,162.61,638.25,162.61Z" transform="translate(-27.52 -23.87)" fill="#ffce55"/><path d="M658,153.18c.2.82,1.36,24.82,2,24.48a108.9,108.9,0,0,0,8.84-8.91c.07-.4.81-21.69-.41-22.64S658,153.18,658,153.18Z" transform="translate(-27.52 -23.87)" fill="#ffce55"/><path d="M499.23,194.88s-.67,27.43.27,28.5,22.75,8.29,23.68,8,2.28-29.84,2.28-29.84S507,197.69,499.23,194.88Z" transform="translate(-27.52 -23.87)" fill="#ffce55"/><path d="M534.69,202.64s-1.47,30-.67,30.37,10.57,1.34,11,.94-.27-30.64-.27-30.64Z" transform="translate(-27.52 -23.87)" fill="#ffce55"/><path d="M572.7,203.84s.13,29.58.93,30.11,25-1.87,25.7-2.68-.67-29.84-.67-29.84Z" transform="translate(-27.52 -23.87)" fill="#ffce55"/><path d="M616.85,199.56s0,28.64.81,28.77,12.17-2.27,12.58-2.81-1.48-29.84-2-30S616.85,199.56,616.85,199.56Z" transform="translate(-27.52 -23.87)" fill="#ffce55"/><path d="M644.29,191s1.2,28.9,2,29.17,14.86-6,17.53-9c.54-3.08-1.07-29.57-2.14-29.84S644.29,191,644.29,191Z" transform="translate(-27.52 -23.87)" fill="#ffce55"/><path d="M670.51,173.73s.41,32.12,1.61,31.58,7.23-7.09,7.49-8,0-28.51-.8-30.38S670.51,173.73,670.51,173.73Z" transform="translate(-27.52 -23.87)" fill="#ffce55"/><path d="M591,46.21c.82-.49,8.74-9.4,9.89-9.73s24.9-.82,42.87,5.61c-13,5.11-20.61,7.42-20.61,7.42S603.72,45.39,591,46.21Z" transform="translate(-27.52 -23.87)" fill="#ffefae"/><path d="M635.38,52.15s14-7.59,15.83-7.09,11.54,6.1,14.18,9.89c-13.19.5-21.43,1.49-21.43,1.49A18.83,18.83,0,0,0,635.38,52.15Z" transform="translate(-27.52 -23.87)" fill="#ffefae"/><path d="M507.76,71.77s-26.22-1-28,.17-6.6,9.72-5.28,12.53,9.4,8.08,26.88,12.53c10.71-4.45,23.25-11.87,22.75-11.87s-8.9-.33-14.51-3.47S507.76,71.77,507.76,71.77Z" transform="translate(-27.52 -23.87)" fill="#ffefae"/><path d="M531,86.45s-11.71,14.18-10.89,14.67,13.86,2.15,14.68,1.82,7.75-14.84,7.25-15S531,86.45,531,86.45Z" transform="translate(-27.52 -23.87)" fill="#ffefae"/><path d="M596.47,86.78c.16.49.66,13.52,1.48,13.35s28.53-4.28,39.41-8.24C629,88.42,619.62,84.06,618.68,84S605.87,86.78,596.47,86.78Z" transform="translate(-27.52 -23.87)" fill="#ffefae"/><path d="M624.34,82c1-.33,8.57-3,8.57-3l29.35.49s-5.77,5.94-18.47,9.56C637.36,87.27,624.34,82,624.34,82Z" transform="translate(-27.52 -23.87)" fill="#ffefae"/><path d="M587.36,46.26c.35-.55,7-9.59,6.77-9.64a30,30,0,0,0-5.12.25,77,77,0,0,0-4.22,9.49C585,46.41,587.36,46.26,587.36,46.26Z" transform="translate(-27.52 -23.87)" fill="#ffefae"/><path d="M517.22,48.37c-1,.52,11.54,6.41,12.4,6.45s8.65-2.71,8.65-2.71-4.91-7.74-5.68-7.74S519.55,47.21,517.22,48.37Z" transform="translate(-27.52 -23.87)" fill="#ffefae"/><path d="M525.36,56.37s-11-6.19-12-6.06-6.71,2.19-6.06,2.32,15.62,5,15.62,5Z" transform="translate(-27.52 -23.87)" fill="#ffefae"/><path d="M423.53,216.26c3.06-.34,15-4.76,16.18-4.42s17.72,12.77,10.22,26.4-22.32,19.93-23.51,19.59S414,252.55,414,252.55s13.79-6.81,19.07-16.52S430.17,217.46,423.53,216.26Z" transform="translate(-27.52 -23.87)" fill="#ffefae"/><path d="M400.19,210c.17-.51,5.79-10.73,7-10.73s16.53,3.75,16,4.43S414,213,414,213Z" transform="translate(-27.52 -23.87)" fill="#ffefae"/><path d="M295.93,266.52c-.68,0-15,9.71-15,10.39s14.31,6.64,45.32,5.11c.85-2.56,4.25-12.44,4.25-12.44C316.89,270.1,295.93,266.52,295.93,266.52Z" transform="translate(-27.52 -23.87)" fill="#ffefae"/><path d="M279.58,262.43S262,270.27,261,269.75s-12.6-8.68-16.18-14.47c7.32-.69,22.32-2.05,22.32-2.05S270.55,258.85,279.58,262.43Z" transform="translate(-27.52 -23.87)" fill="#ffefae"/><path d="M336.14,270.44s-3.07,11.24-1.88,11.24,9.71-1,9.71-1-.34-10.57-1-10.74S336.14,270.44,336.14,270.44Z" transform="translate(-27.52 -23.87)" fill="#ffefae"/><path d="M287.76,209.11s11.24-6.3,31.85-7c4.94,3.74,11.76,7.83,10.56,8S305,215.41,305,215.41Z" transform="translate(-27.52 -23.87)" fill="#ffefae"/><path d="M333.92,200.25s3.75,9.2,4.43,9.2,7.33-.51,7.33-.51-.34-9.37-.86-9.71S333.92,200.25,333.92,200.25Z" transform="translate(-27.52 -23.87)" fill="#ffefae"/><path d="M281.62,210.81c1.86-.24,20.11,6,19.59,6s-4.59,1.36-4.59,1.36l-27.94-2.39A29.24,29.24,0,0,1,281.62,210.81Z" transform="translate(-27.52 -23.87)" fill="#ffefae"/><path d="M672.25,74.38c.5-.13,18.13,10.24,17.75,20.24-1.62,7-10.62,14.88-10.62,14.88l-19.63-1.25S670,98.79,671.17,94.09,672.25,74.38,672.25,74.38Z" transform="translate(-27.52 -23.87)" fill="#ffefae"/><path d="M649.88,114c.87.25,17.5,3.75,17.37,4.12s-8.87,6.63-17.75,8.26c-4.12-2.76-8.5-8.38-8.5-8.38S648,114.88,649.88,114Z" transform="translate(-27.52 -23.87)" fill="#ffefae"/><path d="M591.18,130s-.62,6,.21,6,16.81-.2,26.36-2.07l-3.11-8.1S597.62,129.76,591.18,130Z" transform="translate(-27.52 -23.87)" fill="#ffefae"/><path d="M556.57,130.3s-5.45,6.11-4.83,6.11,18.89.41,32.18,0l-.21-6.44S563.88,131.05,556.57,130.3Z" transform="translate(-27.52 -23.87)" fill="#ffefae"/><path d="M655.74,157.37s-12-2.7-12.87-2.49-13.29,4.36-23,5.19c2.49,2.91,6.64,9.34,7.47,9.34S650.13,161.94,655.74,157.37Z" transform="translate(-27.52 -23.87)" fill="#ffefae"/><path d="M608,162.77l2.28,10.17s-15.57,2.9-26.78,2.7c0-2.7,2.29-10.8,2.29-10.8S598.65,164.22,608,162.77Z" transform="translate(-27.52 -23.87)" fill="#ffefae"/><path d="M487.4,130.39s-15.15,10.79-13.7,22,29.06,18.27,29.06,18.27l16.81-12s-27.67-7.82-31.79-17.09C487.81,139.31,487.4,130.39,487.4,130.39Z" transform="translate(-27.52 -23.87)" fill="#ffefae"/><path d="M528.08,160.49l-13.49,13.69s15.15,2.29,15.77,1.87,6.65-13.9,6.65-13.9Z" transform="translate(-27.52 -23.87)" fill="#ffefae"/><path d="M589.31,198.47c1.25-.21,23.46-4.36,29.27-5.81,3.53,3.53,4.36,5.81,4.36,5.81s-19.31,5-33,5.4Z" transform="translate(-27.52 -23.87)" fill="#ffefae"/><polygon points="552.87 175.84 552.66 181.66 540.83 181.86 542.07 176.26 552.87 175.84" fill="#ffefae"/><path d="M649.92,181.66s18.48-7.89,19.72-16.4c8.3-1.45,11.42-2.28,11.42-2.28s6,8.71-22,23.24Z" transform="translate(-27.52 -23.87)" fill="#ffefae"/><path d="M642.86,184.77s3.74,6.85,4.78,6.44l7.68-3.12-8.72-4.77Z" transform="translate(-27.52 -23.87)" fill="#ffefae"/></g><g id="S" style="mix-blend-mode:multiply"><path d="M243.33,265.7c-6.41,1.48-20.33,8.22-15.71,18.65s44.64,25.87,107.78,22,100.14-27,116.06-46.26c-23.68,18.76-41.25,34.25-113.34,41.7s-93.38-23.39-93.38-23.39Z" transform="translate(-27.52 -23.87)" fill="#edd8c8"/><path d="M485.47,205.53c-.85.27-26.79,5.88-9.49,21.42s82.56,23,141.19,7.26,64.45-39.56,64.45-39.56c-10.79,10.26-31,31.17-93,37.86S491.8,221,486.23,211.25s.07.07.07.07Z" transform="translate(-27.52 -23.87)" fill="#edd8c8"/><path d="M288.32,221.71c.47-.16,36.64-14.09,93.47-11.43s62,20.35,38.51,38.67c4.38-5.32,7.67-17.22-.63-20.35l-15.81,6.57-6.57-3.28,25.2-9.08s-13.93-5.33-14.87-5.17-6.89,2.51-6.89,2.51S336.38,210,288.32,221.71Z" transform="translate(-27.52 -23.87)" fill="#eabf9b"/><path d="M412,240.34c0,.63.94,8.14.16,8.14s-19.73,9.08-19.73,9.08l-12.68-5.95s-52.91,18.17-54.64,18.17-28.65,2.81-40.7-.79-12.06-8-12.06-8l-.62-14.09s2.66,18.16,32.09,13,81.73-23.48,81.73-23.48,15.34,8.14,16,8S412,240.34,412,240.34Z" transform="translate(-27.52 -23.87)" fill="#eabf9b"/><path d="M287.54,237.84c6.73-3.76,29.59-8.77,27.55,3.13-2.5,3.91-11.89,7.83-25.2,7.36S283.75,240,287.54,237.84Z" transform="translate(-27.52 -23.87)" fill="#eabf9b"/><path d="M358.62,224.22s-.16,5.48-1.1,5.63-10.17,4.39-10.17,4.39l22.7-5.64Z" transform="translate(-27.52 -23.87)" fill="#eabf9b"/><path d="M531.15,54.46A213.35,213.35,0,0,1,601.9,48C640.27,51.15,662.44,64,639.63,75.5c-4.72,2.29-6.76,3.31-6.76,3.31s2.3-19.38-22.43-23.33-41.56-.76-41.56-.76l.13-4.21-10.58.26-8.92,5.48a67.49,67.49,0,0,0-10.33.38Z" transform="translate(-27.52 -23.87)" fill="#eabf9b"/><path d="M515.35,61.09s1.27,6.12.63,6.25-4.46,3.82-4.46,3.82L529,73.33,538,65.94S515.09,60.71,515.35,61.09Z" transform="translate(-27.52 -23.87)" fill="#eabf9b"/><path d="M525.8,76.9l-.13,7.65-1.4,1.27s14,2,24,2.3c3.7-2.55,9.31-6.89,9.31-6.89s25.11,9.31,28.81,9.31,21-1.4,32.88-5.48c.39-1.53-3.18-14.15-3.18-14.15s-.9,9.81-14.41,8.79-53.28-11-53.28-11S538,78.3,537.4,78.3,525.8,76.9,525.8,76.9Z" transform="translate(-27.52 -23.87)" fill="#eabf9b"/><path d="M588,69.89c-.61-2.35,14-2.17,14.53,1.14S588.64,72.31,588,69.89Z" transform="translate(-27.52 -23.87)" fill="#eabf9b"/><path d="M672,90.43c.64,0,11.48,6.21-11.15,22.14s-55.76,21-92.09,21.19-63.89-6.85-76.16-12.11c28.84,7,80.94,12.75,118.86,4.62S668.2,103.81,672,90.43Z" transform="translate(-27.52 -23.87)" fill="#eabf9b"/><path d="M670.59,142.69s-2.71,9.87-16.89,16.88c-17.05,6.22-82.21,15.62-130.33,3.67S478.44,140.3,488,136.47l.16,5.1s9.48,16.56,66.92,20.07C609.73,165,647.17,155,670.59,142.69Z" transform="translate(-27.52 -23.87)" fill="#eabf9b"/><path d="M672,156.94s12.91,7.21-2.68,19.28-67.58,34-142.36,23.47c0,0,50.13,5.54,95.24-8.05S669.84,165,669.84,165l1.84-9.55Z" transform="translate(-27.52 -23.87)" fill="#eabf9b"/><path d="M671.53,93.43s-3.23,12.78-23.82,22.47-47.51,16.83-84.65,15.75-55.86-6.6-55.86-6.6,31.9,7.81,75.24,4.31,55.18-7.94,77.52-22.61C667.36,101.77,671.53,93.43,671.53,93.43Z" transform="translate(-27.52 -23.87)" fill="#a37252"/><path d="M492,145.68s22.55,19.4,87.56,16.91c48.42-3.15,62-6.3,85.24-16.91-15.92,9.45-31.18,16.75-85.74,18.57S502.45,155,492,145.68Z" transform="translate(-27.52 -23.87)" fill="#a37252"/><path d="M536.45,200.9s50.58,1.66,88.72-10.45,43.28-22.22,43.28-22.22-8,15.26-48.92,25.54S536.45,200.9,536.45,200.9Z" transform="translate(-27.52 -23.87)" fill="#a37252"/><path d="M485.43,205.18c.21.88.15,2.88.85,6.66,3.29,6,15,14.95,51.93,20.19,60.07,8.52,116.08-11.77,135.56-28C649.21,223.92,611.47,241,538,235.08c-34.09-3.05-50.73-16.64-53.57-22.73Z" transform="translate(-27.52 -23.87)" fill="#c1a799"/><path d="M244.26,274.61c-.2,2.33,3.49,21.71,64.74,26.75s115.15-19.19,134.34-32c-17.83,16.09-73.86,37.8-133.76,34.31-44.39-6-57.38-13-66.1-25A25.15,25.15,0,0,1,244.26,274.61Z" transform="translate(-27.52 -23.87)" fill="#c1a799"/><path d="M250.75,70c0,1.67-1.05,11.31-1.05,14.45S251,110,251,110s4.39-2.72,5.65-3.77S266,100,266,100s11.51,1.88,13,2.3,4.19,1.26,4.19,1.26,1.46,22.62,2.09,24.71.42,11.52.42,11.52,25.13-4,32.88-5.24,33.72-7.12,37.91-8.16,46.28-10.27,48.17-10.9,14.66-5,14.66-5S371,133.68,367.19,135.78,301.43,162,300,161.54s-21.78-7.12-25.76-8.38-32.88-12.56-32.88-12.56l-18.43,2.93s-67.23-22.2-71.83-23.46-39-12.77-39-12.77,14,.63,20.53-.63,12.77-2.09,12.77-2.09l-22.83-5.87s73.31,7.54,78.54,8,25.34,1.67,28.07,1.67,15.7,2.52,16.12,1.68,2.51-3.56,2.51-4.4-.41-20.1-.2-21.15,3.14-15.29,3.14-15.29" transform="translate(-27.52 -23.87)" fill="#e6e8e7"/><path d="M74.07,111.69s31.69,13.62,33.92,15.1,34.66,9.41,37.13,9.91,31.2,2.47,32.93,3,28.47,6.19,28.47,6.19,4,12.37,4,14.35,2.23,24.27,2.23,25.5a102.48,102.48,0,0,1-1.24,10.65c-.5,2.23-1,7.18-1,7.18s34.16-11.14,36.89-12.13,39.61-8.17,42.82-9.66,41.1-14.36,42.34-14.6,56-20.06,59.16-21.29,20.06-7.43,23.52-8.42,32.93-5.69,32.93-5.69-49.27,21.78-51.74,22.77-126,41.34-128,42.09-61.15,25.74-61.15,25.74S164.68,203,161,201.06s-57.19-15.35-63.38-16.83-25.25-13.62-25.25-13.62L85,159.72s-1.24-15.35-1.49-16.34-2.23-7.67-2.23-8.66S79,125.8,79,125.8v-3s-3.46-6.68-3.71-7.42a31.68,31.68,0,0,0-2.47-3.72Z" transform="translate(-27.52 -23.87)" fill="#e6e8e7"/><path d="M98.39,167.79c1.13,0,28.32,8.53,30.34,9.43s61.34,21.57,63.13,22,17.75,7.87,17.75,7.87,25.39-8.32,28.77-9.44l30.1-10.11s-27,5.84-28.53,6.06-28.79,9.31-29.24,8.64-22-8.32-24.73-9.44-55.68-19.64-57.25-20.09S98.39,167.79,98.39,167.79Z" transform="translate(-27.52 -23.87)" fill="#9e9e9e"/><path d="M371.53,154c1.11-.45,27.05-10.05,27.93-10.38s15.79-5.52,16.45-5.63,22.74-4.42,22.74-4.42-19.1,5-20.53,5.3-17.66,6-19,6.4S371.53,154,371.53,154Z" transform="translate(-27.52 -23.87)" fill="#9e9e9e"/><path d="M334.23,62.74s-41.81,21.4-43.79,22.2-23,14.86-23.58,15.45-17.63,21.8-18.43,21.8-64-15.46-64-15.46,41.61,3.17,45.18,3.17,20.21.6,20.21.6,6.54-3.17,8.32-5,26.55-20,27.54-20.6S334.23,62.74,334.23,62.74Z" transform="translate(-27.52 -23.87)" fill="#bababa"/><path d="M144.81,105S196.32,118,204.64,120s62.22,17.24,64.4,17.83a29.52,29.52,0,0,0,4,.79l-9.31,2.78s-38.64-10.7-45.18-12.29-49.93-15.45-55.08-17.24S144.81,105,144.81,105Z" transform="translate(-27.52 -23.87)" fill="#bababa"/></g><g id="G" style="mix-blend-mode:screen"><path d="M462.84,233.75c6,30.18-30.26,62.89-81.08,73.06s-96.91-6.05-102.95-36.23,30.26-62.89,81.08-73.06S456.8,203.57,462.84,233.75Z" transform="translate(-27.52 -23.87)" fill="url(#radial-gradient)" style="mix-blend-mode:screen"/><path d="M670.67,90.34c5.84,29.2-21,59.2-60,67s-75.37-9.54-81.21-38.74,21-59.2,60.05-67S664.82,61.14,670.67,90.34Z" transform="translate(-27.52 -23.87)" fill="url(#radial-gradient-2)" style="mix-blend-mode:screen"/><path d="M669,84c3.66,18.27-13.16,37-37.57,41.93s-47.15-6-50.81-24.24,13.17-37,37.57-41.92S665.38,65.74,669,84Z" transform="translate(-27.52 -23.87)" fill="url(#radial-gradient-3)" style="mix-blend-mode:screen"/><path d="M452.63,243.13c3.35,16.75-12.08,34-34.46,38.45s-43.25-5.47-46.6-22.23,12.07-34,34.46-38.45S449.27,226.37,452.63,243.13Z" transform="translate(-27.52 -23.87)" fill="url(#radial-gradient-4)" style="mix-blend-mode:screen"/></g></g></svg>