<svg xmlns="http://www.w3.org/2000/svg" viewBox="0 0 48.2 39.46"><defs><style>.cls-1{fill:#676684;}</style></defs><g id="Layer_2" data-name="Layer 2"><g id="Icons"><g id="_4" data-name="4"><path class="cls-1" d="M41,21.09a1.74,1.74,0,0,0,.55-.83h0c0-.05,0-.11,0-.16V20a.28.28,0,0,0,0-.09v0a.49.49,0,0,0,0-.12v0h0v0a.49.49,0,0,0,0-.12v0a.28.28,0,0,0,0-.09v-.09c0-.05,0-.1,0-.15v0a1.74,1.74,0,0,0-.55-.83L28.53,7.85a1.77,1.77,0,1,0-2.28,2.7L35,18H1.77a1.77,1.77,0,0,0,0,3.54H35l-8.78,7.41a1.77,1.77,0,1,0,2.28,2.71Z"/><path class="cls-1" d="M44.66,1.77V37.69a1.77,1.77,0,1,0,3.54,0V1.77a1.77,1.77,0,1,0-3.54,0Z"/></g></g></g></svg>