<?xml version="1.0" encoding="iso-8859-1"?>
<!-- Generator: Adobe Illustrator 23.0.3, SVG Export Plug-In . SVG Version: 6.00 Build 0)  -->
<svg version="1.1" xmlns="http://www.w3.org/2000/svg" xmlns:xlink="http://www.w3.org/1999/xlink" x="0px" y="0px"
	 viewBox="0 0 64 64" style="enable-background:new 0 0 64 64;" xml:space="preserve">
<g id="delete">
	<path style="fill:#231F20;" d="M43.368,19.709l-3.469,34.157l2.585,0.26l3.469-34.144L43.368,19.709z M30.649,53.996h2.598V19.852
		h-2.598V53.996z M17.955,19.982l3.469,34.144l2.585-0.26l-3.469-34.157L17.955,19.982z M53.918,5.561H42.043
		C42.017,2.494,39.509,0,36.443,0h-8.978c-3.066,0-5.574,2.494-5.6,5.561H10.069c-2.949,0-5.353,2.508-5.353,5.613v1.949
		c0,0.728,0.572,1.299,1.299,1.299h1.195l4.937,42.433C12.602,60.804,16.214,64,20.177,64h23.724c3.963,0,7.575-3.196,8.029-7.146
		l4.937-42.433h1.117c0.715,0,1.299-0.572,1.299-1.299v-1.949C59.284,8.068,56.867,5.561,53.918,5.561z M27.466,2.598h8.978
		c1.637,0,2.975,1.325,3.001,2.962h-14.98C24.49,3.924,25.829,2.598,27.466,2.598z M49.345,56.555
		c-0.299,2.624-2.793,4.846-5.444,4.846H20.177c-2.65,0-5.145-2.222-5.457-4.846L9.835,14.421h44.408L49.345,56.555z M56.685,11.823
		H7.315v-0.65c0-1.663,1.234-3.014,2.754-3.014h43.849c1.52,0,2.767,1.351,2.767,3.014V11.823z M45.954,19.982l-2.585-0.273
		l-3.469,34.157l2.585,0.26L45.954,19.982z M33.247,19.852h-2.598v34.144h2.598V19.852z M24.01,53.866l-3.469-34.157l-2.586,0.273
		l3.469,34.144L24.01,53.866z M20.541,19.709l-2.586,0.273l3.469,34.144l2.585-0.26L20.541,19.709z M43.368,19.709l-3.469,34.157
		l2.585,0.26l3.469-34.144L43.368,19.709z M30.649,19.852v34.144h2.598V19.852H30.649z"/>
	<path style="fill:#FDA554;" d="M9.835,14.421l4.885,42.134c0.312,2.624,2.806,4.846,5.457,4.846h23.724
		c2.65,0,5.145-2.222,5.444-4.846l4.898-42.134H9.835z M21.424,54.126l-3.469-34.144l2.586-0.273l3.469,34.157L21.424,54.126z
		 M33.247,53.996h-2.598V19.852h2.598V53.996z M42.485,54.126l-2.585-0.26l3.469-34.157l2.585,0.273L42.485,54.126z"/>
</g>
<g id="Layer_1">
</g>
</svg>
