<svg xmlns="http://www.w3.org/2000/svg" viewBox="0 0 50 36.98"><style>#Layer_2 {fill:#676684;}</style><g id="Layer_2" data-name="Layer 2"><g id="Livello_1" data-name="Livello 1"><path d="M21.07,23.84h0L36.46,8.44h0L43.2,1.71A1,1,0,1,0,41.78.29L35.49,6.58A29.8,29.8,0,0,0,.17,17.93a1,1,0,0,0,0,1.12A29.81,29.81,0,0,0,12.51,29.57L6.8,35.28a1,1,0,0,0,0,1.41,1,1,0,0,0,1.42,0L21.06,23.85Zm-1.63-5.35A5.57,5.57,0,0,1,25,12.93a5.48,5.48,0,0,1,3.15,1l-7.72,7.73A5.53,5.53,0,0,1,19.44,18.49Zm-17.23,0A27.76,27.76,0,0,1,33.92,8.15l-4.35,4.36A7.45,7.45,0,0,0,25,10.93a7.57,7.57,0,0,0-7.56,7.56A7.45,7.45,0,0,0,19,23.06l-5,5A27.79,27.79,0,0,1,2.21,18.49Z"/><path d="M25,24.05a4.17,4.17,0,0,1-.71-.05,1,1,0,0,0-1.13.86A1,1,0,0,0,24,26a6.37,6.37,0,0,0,1,.07,7.57,7.57,0,0,0,7.56-7.56,7.66,7.66,0,0,0-.06-1,1,1,0,0,0-2,.25,5.81,5.81,0,0,1,0,.72A5.57,5.57,0,0,1,25,24.05Z"/><path d="M49.83,17.93A30.21,30.21,0,0,0,40.17,8.8a1,1,0,0,0-1.37.35,1,1,0,0,0,.36,1.37,28.44,28.44,0,0,1,8.63,8A27.84,27.84,0,0,1,25,30.32a27.81,27.81,0,0,1-6.23-.7,1,1,0,0,0-.44,1.95,29.92,29.92,0,0,0,6.67.75A29.84,29.84,0,0,0,49.83,19.05,1,1,0,0,0,49.83,17.93Z"/></g></g></svg>