<svg xmlns="http://www.w3.org/2000/svg" viewBox="0 0 50 34"><style>#Layer_2{fill:#676684;}</style><g id="Layer_2" data-name="Layer 2"><g id="Livello_1" data-name="Livello 1"><path d="M45,0H5A5,5,0,0,0,0,5V29a5,5,0,0,0,5,5H45a5,5,0,0,0,5-5V5A5,5,0,0,0,45,0Zm3,29a3,3,0,0,1-3,3H5a3,3,0,0,1-3-3V5A3,3,0,0,1,5,2H45a3,3,0,0,1,3,3Z"/><path d="M43.79,6a1,1,0,0,0-1.41-.17l-13,10.3a7,7,0,0,1-8.68,0l-13-10.3A1,1,0,0,0,6.38,7.37L18.59,17,6.38,26.64A1,1,0,0,0,6.21,28a1,1,0,0,0,1.41.17l12.65-10a8.74,8.74,0,0,0,9.46,0l12.65,10a1,1,0,1,0,1.24-1.57L31.41,17,43.62,7.37A1,1,0,0,0,43.79,6Z"/></g></g></svg>