<?xml version="1.0" encoding="iso-8859-1"?>
<!-- Generator: Adobe Illustrator 23.0.3, SVG Export Plug-In . SVG Version: 6.00 Build 0)  -->
<svg version="1.1" xmlns="http://www.w3.org/2000/svg" xmlns:xlink="http://www.w3.org/1999/xlink" x="0px" y="0px"
	 viewBox="0 0 64 64" style="enable-background:new 0 0 64 64;" xml:space="preserve">
<g id="rename">
	<path style="fill:#231F20;" d="M46.899,25.318V4.991C46.899,2.246,44.665,0,41.908,0H17.476c-0.349,0-0.661,0.137-0.886,0.374
		L0.555,16.409c-0.225,0.225-0.374,0.537-0.374,0.886v41.714C0.181,61.754,2.427,64,5.172,64h36.735
		c2.758,0,4.991-2.246,4.991-4.991V49.9h-2.496v9.109c0,1.373-1.11,2.496-2.496,2.496H5.172c-1.373,0-2.496-1.123-2.496-2.496
		V18.542h12.129c2.159,0,3.918-1.759,3.918-3.918V2.496h23.184c1.385,0,2.496,1.123,2.496,2.496v20.327H46.899z M16.228,14.624
		c0,0.786-0.636,1.422-1.423,1.422H4.448L16.228,4.267V14.624z M62.247,21.338c-2.096-2.096-5.503-2.096-7.587,0l-1.136,1.135
		L28.593,47.404c-0.162,0.162-0.274,0.374-0.324,0.599l-1.722,7.537c-0.087,0.424,0.037,0.861,0.337,1.16
		c0.237,0.237,0.562,0.374,0.886,0.374c0.087,0,0.187-0.012,0.274-0.037l7.537-1.709c0.237-0.05,0.449-0.175,0.611-0.337
		l26.054-26.054C64.343,26.84,64.343,23.434,62.247,21.338z M29.429,54.167L30.39,49.9l3.307,3.294L29.429,54.167z M35.843,51.809
		l-4.068-4.055l22.635-22.635l4.068,4.068L35.843,51.809z M60.487,27.165l-0.25,0.25l-4.068-4.068l0.25-0.25
		c1.123-1.111,2.945-1.111,4.068,0.012C61.61,24.232,61.61,26.054,60.487,27.165z"/>
	<g>
		<path style="fill:#FC5656;" d="M60.487,27.165l-0.25,0.25l-4.068-4.068l0.25-0.25c1.123-1.111,2.945-1.111,4.068,0.012
			C61.61,24.232,61.61,26.054,60.487,27.165z"/>
		<polygon style="fill:#9072FF;" points="58.478,29.186 35.843,51.809 31.775,47.754 54.411,25.118 		"/>
	</g>
</g>
<g id="Layer_1">
</g>
</svg>
