<svg id="Layer_1" data-name="Layer 1" xmlns="http://www.w3.org/2000/svg" viewBox="0 0 63.64 64"><defs><style>.cls-1{fill:#676684;}</style></defs><g id="rename"><path class="cls-1" d="M44.41,59a2.5,2.5,0,0,1-2.5,2.49H5.17A2.5,2.5,0,0,1,2.67,59V18.54H14.8a3.93,3.93,0,0,0,3.92-3.92V2.5H41.91A2.5,2.5,0,0,1,44.41,5V25.32H46.9V5a5,5,0,0,0-5-5H17.47a1.22,1.22,0,0,0-.88.37l-16,16a1.27,1.27,0,0,0-.36.88V59a5,5,0,0,0,5,5H41.91a5,5,0,0,0,5-5V49.9H44.41ZM16.22,4.26V14.62a1.43,1.43,0,0,1-1.42,1.43H4.44Zm46,17.08a5.38,5.38,0,0,0-7.59,0l-1.13,1.13h0L28.59,47.4a1.3,1.3,0,0,0-.33.61l-1.71,7.54a1.25,1.25,0,0,0,1.21,1.53,1.27,1.27,0,0,0,.28,0l7.54-1.72a1.22,1.22,0,0,0,.61-.33L61.12,30.07h0l1.13-1.14A5.36,5.36,0,0,0,62.25,21.34ZM31.77,47.75,54.41,25.12l4.07,4.06L35.84,51.82ZM30.39,49.9l3.3,3.3-4.27,1Zm30.1-22.73h0l-.25.25-4.07-4.07.25-.25a2.88,2.88,0,0,1,4.07,4.07Z" transform="translate(-0.18)"/></g></svg>