<svg xmlns="http://www.w3.org/2000/svg" viewBox="0 0 839.58 409.15"><g style="isolation:isolate"><g id="C1"><path d="M307.29,285.92c1.56-.67,169-49.42,170-49.66s-276.3-48.77-277-49S24.05,238.36,25.92,238.13,305.66,286.62,307.29,285.92Z" transform="translate(-25.9 -42.54)" fill="#414244" opacity="0.07"/><path d="M607.93,339.39c1.56-.67,169-49.42,170-49.66s-276.3-48.77-277-49-176.19,51.1-174.33,50.87S606.3,340.09,607.93,339.39Z" transform="translate(-25.9 -42.54)" fill="#414244" opacity="0.07"/><path d="M607.93,245.39c1.56-.67,169-49.43,170-49.66s-276.3-48.77-277-49-176.19,51.1-174.33,50.87S606.3,246.09,607.93,245.39Z" transform="translate(-25.9 -42.54)" fill="#414244" opacity="0.07"/><path d="M435.53,97.09c.8-.38,63.42,2.25,67.87,2.35S575.21,85.7,575.21,85.7L509.08,65.2Z" transform="translate(-25.9 -42.54)" fill="#edcd96"/><path d="M307.29,274.58c1.56-.67,169-49.42,170-49.66s-276.3-48.76-277-49S24.05,227,25.92,226.79,305.66,275.28,307.29,274.58Z" transform="translate(-25.9 -42.54)" fill="#dce7ea"/><path d="M402.24,211.5c-16.31,2.38-138.1,35.81-181.74,48.62,48,8.25,86.19,14.72,86.79,14.46,1.56-.67,169-49.42,170-49.66C477.56,224.84,445.07,219.07,402.24,211.5Z" transform="translate(-25.9 -42.54)" fill="#b9cfdb"/><path d="M252.93,246.38c-.29.9-.59,7.78.3,8.08s17,3.89,17,3.89l74.19-20.64.89-7.18S321.83,228,320.93,228,252.93,246.38,252.93,246.38Z" transform="translate(-25.9 -42.54)" fill="#84a8d3"/><path d="M286.44,251.47c-.3.9-.6,7.78.3,8.08s17.05,3.88,17.05,3.88L378,242.79l.9-7.17s-24.49-3-25.38-3S286.44,251.47,286.44,251.47Z" transform="translate(-25.9 -42.54)" fill="#d3dee2"/><path d="M369,226.75a9.88,9.88,0,0,0,.07,2.84c.2.07,3.88.89,3.88.89l39.48-11.55.2-2.64s-5.11-.34-5.31-.34S369,226.75,369,226.75Z" transform="translate(-25.9 -42.54)" fill="#7f8187"/><path d="M382.49,230.53a9.54,9.54,0,0,0,.07,2.84c.2.07,3.88.89,3.88.89l39.48-11.55.2-2.63s-5.11-.34-5.32-.34S382.49,230.53,382.49,230.53Z" transform="translate(-25.9 -42.54)" fill="#7f8187"/><path d="M396.86,234.48a9.87,9.87,0,0,0,.07,2.84c.21.07,3.88.89,3.88.89l39.48-11.55.2-2.63s-5.11-.34-5.31-.34S396.86,234.48,396.86,234.48Z" transform="translate(-25.9 -42.54)" fill="#7f8187"/><path d="M607.93,328.05c1.56-.67,169-49.42,170-49.66s-276.3-48.77-277-49-176.19,51.1-174.33,50.87S606.3,328.75,607.93,328.05Z" transform="translate(-25.9 -42.54)" fill="#dce7ea"/><path d="M702.87,265c-16.3,2.37-138.09,35.81-181.74,48.62,48,8.25,86.2,14.71,86.8,14.46,1.56-.67,169-49.42,170-49.66C778.2,278.31,745.7,272.54,702.87,265Z" transform="translate(-25.9 -42.54)" fill="#b9cfdb"/><path d="M553.57,299.85c-.3.9-.6,7.78.3,8.08s17,3.89,17,3.89l74.18-20.64L646,284s-23.54-2.53-24.43-2.53S553.57,299.85,553.57,299.85Z" transform="translate(-25.9 -42.54)" fill="#84a8d3"/><path d="M587.07,304.94c-.3.9-.6,7.78.3,8.07s17,3.89,17,3.89l74.19-20.64.89-7.18s-24.48-2.94-25.38-2.94S587.07,304.94,587.07,304.94Z" transform="translate(-25.9 -42.54)" fill="#d3dee2"/><path d="M669.68,280.22a9.55,9.55,0,0,0,.07,2.84c.2.07,3.88.88,3.88.88L713.1,272.4l.21-2.64s-5.11-.34-5.32-.34S669.68,280.22,669.68,280.22Z" transform="translate(-25.9 -42.54)" fill="#7f8187"/><path d="M683.13,284a9.54,9.54,0,0,0,.07,2.84c.2.07,3.88.89,3.88.89l39.47-11.55.21-2.64s-5.12-.34-5.32-.34S683.13,284,683.13,284Z" transform="translate(-25.9 -42.54)" fill="#7f8187"/><path d="M697.5,288a9.54,9.54,0,0,0,.07,2.84c.2.07,3.88.89,3.88.89l39.47-11.55.21-2.63s-5.11-.34-5.32-.34S697.5,288,697.5,288Z" transform="translate(-25.9 -42.54)" fill="#7f8187"/><path d="M607.93,234.05c1.56-.67,169-49.42,170-49.66s-276.3-48.77-277-49-176.19,51.1-174.33,50.87S606.3,234.75,607.93,234.05Z" transform="translate(-25.9 -42.54)" fill="#dce7ea"/><path d="M702.87,171c-16.3,2.37-138.09,35.81-181.74,48.62,48,8.25,86.2,14.71,86.8,14.46,1.56-.67,169-49.42,170-49.66C778.2,184.31,745.7,178.54,702.87,171Z" transform="translate(-25.9 -42.54)" fill="#b9cfdb"/><path d="M553.57,205.85c-.3.9-.6,7.78.3,8.08s17,3.89,17,3.89l74.18-20.64L646,190s-23.54-2.53-24.43-2.53S553.57,205.85,553.57,205.85Z" transform="translate(-25.9 -42.54)" fill="#84a8d3"/><path d="M587.07,210.94c-.3.9-.6,7.78.3,8.07s17,3.89,17,3.89l74.19-20.64.89-7.17s-24.48-3-25.38-3S587.07,210.94,587.07,210.94Z" transform="translate(-25.9 -42.54)" fill="#d3dee2"/><path d="M669.68,186.22a9.55,9.55,0,0,0,.07,2.84c.2.07,3.88.88,3.88.88L713.1,178.4l.21-2.64s-5.11-.34-5.32-.34S669.68,186.22,669.68,186.22Z" transform="translate(-25.9 -42.54)" fill="#7f8187"/><path d="M683.13,190a9.54,9.54,0,0,0,.07,2.84c.2.07,3.88.89,3.88.89l39.47-11.55.21-2.64s-5.12-.34-5.32-.34S683.13,190,683.13,190Z" transform="translate(-25.9 -42.54)" fill="#7f8187"/><path d="M697.5,194a9.54,9.54,0,0,0,.07,2.84c.2.07,3.88.89,3.88.89l39.47-11.55.21-2.63s-5.11-.34-5.32-.34S697.5,194,697.5,194Z" transform="translate(-25.9 -42.54)" fill="#7f8187"/><path d="M314.86,147.69c1,3,4.7,8.9,4,13.35s-4.95,21-5.19,23.74-2,24-2,24l-4.21,2-4.2-.74-.74-20s-16.57,11.13-19.29,14.34-18.79,21.52-21.51,23S220.16,238.44,214,239.43s-26.21,2.22-26.21,1.48-.5-3.46-.5-3.46,18.3-20.53,20.53-22.26,14.59-16.56,15.58-17.06S251.56,187.75,254,186s14.83-14.1,20.77-19.78S300.52,148.93,307,147C309.17,146.7,314.86,147.69,314.86,147.69Z" transform="translate(-25.9 -42.54)" fill="#d34a6b"/><path d="M155.8,185.41s13.11-1.66,15.7-2.21,24.18-12.56,28.8-16.25,22.52-18.28,26-20.49S243.5,138,244.79,138s6.28.37,7.39,1.29,5.91,8.68,5.54,12.55-3.33,20.5-3.33,22.16-2.58,17.72-2.58,17.72l-10,3s2.4-19.39,1.66-19.57-24.92,11.81-27,12.92S189.77,211.26,187,212.74s-36.74,8.49-40.61,8.86-34,3.51-34.35,2.77a4.41,4.41,0,0,1-.18-2s20.12-19.2,21.6-20.12S155.8,185.41,155.8,185.41Z" transform="translate(-25.9 -42.54)" fill="#d34a6b"/><path d="M158.57,187.45c.55.73,11.09,8.81,12.2,8.81s21.43-6.86,23.46-7.78,15.48-12.85,21-18,19.57-19.2,22.53-20.86,12.92-9.42,12.92-9.42-5-1.11-5.72-.92a101.09,101.09,0,0,0-17,7.94c-2.77,1.47-26.22,21.6-29.35,23.26S175.56,183.94,173,184.68,158.57,187.45,158.57,187.45Z" transform="translate(-25.9 -42.54)" fill="#ffb39f"/><path d="M226.15,199.08c1.5.25,25.1-8.86,28.24-11.26s21.79-20.68,24-22.53,27.14-17,29.36-17.17a20.27,20.27,0,0,1,5.54.74s-19,16.25-20.68,18.46-20.86,25.81-22.89,27.47S247.57,208.54,246.83,208,225,198.89,226.15,199.08Z" transform="translate(-25.9 -42.54)" fill="#ffb39f"/><path d="M489,120c5,0,43.19,5,64.46,7s56.15,3.32,56.15,5.32a29.44,29.44,0,0,1-.66,5s-9.3,1.33-9.63,2.33S602,172.5,602,172.5l11.3-1.66.67,4.65s-78.42,22.93-81.75,23.6-11.29,3.65-14.28,2.66-64.13-7.31-78.75-10-34.56-4.66-36.56-6a17.68,17.68,0,0,1-7-14c0-7.64.33-18.94,1.66-21.27s6-9.63,8-10S486.35,120,489,120Z" transform="translate(-25.9 -42.54)" fill="#7380a8"/><path d="M603.31,137.73s-.85,4.78-.57,5.63,2.26,7,2.26,8.73,0,9,.28,10.42,2,9,2,9-81.11,22-84.21,21.69-7.6-7.89-8.73-10.14-.56-13.8.84-17.74,5-10.9,7.52-11.75S603.31,137.73,603.31,137.73Z" transform="translate(-25.9 -42.54)" fill="#efe8e1"/><path d="M525.42,157.46c3.49-.69,28.35-5.69,37.88-7.32s33.46-6.39,34-6.39,2.67-.35,2.67-.35l-.12,2s-22.07,4.18-28.58,5.11-34.5,6-39.61,7-10.11,1.74-10.11,1.74Z" transform="translate(-25.9 -42.54)" fill="#d8cfc7"/><path d="M522.85,161.76c1.74-.35,13.24-2.44,17.66-3.25S574,152,576.29,151.65,594,148.17,594,148.17s-26.14,6.27-30.79,7.67-25.79,4.64-27.42,5.11-13,2.32-13.47,2.32S522.85,161.76,522.85,161.76Z" transform="translate(-25.9 -42.54)" fill="#d8cfc7"/><path d="M519.75,166.68c.46-.12,15.1-3.49,20.1-4.41s47.86-9.76,50.89-10.23S602,149.6,602,149.6l.12,2.09s-34.39,6.86-38.11,7.44-37.75,8.36-39.15,8.36-7.2,1.75-7.2,1.75Z" transform="translate(-25.9 -42.54)" fill="#d8cfc7"/><path d="M517.86,173.78c.35,0,10.23-2.79,17.08-4.3s41.36-8.25,44-8.83,22.89-5.23,22.89-5.23.93,1.63.47,1.63-34.86,7.43-35.79,7.43-25.79,5.7-28.11,6.28-11.74,2.44-11.74,2.44Z" transform="translate(-25.9 -42.54)" fill="#d8cfc7"/><path d="M555.52,162.74c2.33-.35,16.5-3.72,23.24-4.88s16-3.14,16-3.14-6.39,2.21-7.08,2.33-21.27,4.64-23.71,5.11-23.35,4.76-23.35,4.76Z" transform="translate(-25.9 -42.54)" fill="#d8cfc7"/><path d="M525.35,189c2-.13,23.39-5.29,25.65-5.79s38.49-9.93,41.25-10.69,11.7-3.9,11.7-3.9l-.13,1.89s-36.22,9.18-43,11.07-33.07,8.55-33.95,8.67l-3.53.51Z" transform="translate(-25.9 -42.54)" fill="#d8cfc7"/><path d="M522,186.76c.88-.25,16.1-3.27,20.63-4.4s35.71-8.17,38.1-8.93,13.58-4,13.58-4-25.9,4.9-34.08,7-36.47,7.55-37,7.55-3.15.62-3.15.62Z" transform="translate(-25.9 -42.54)" fill="#d8cfc7"/><path d="M526.35,181.23c1.39-.38,34-7.42,40.37-9.18s27.8-5.79,29.68-6.16a49,49,0,0,0,5.91-2l.76,2s-29.43,5.65-35.59,7.29-33,7.42-33.71,7.29S526.35,181.23,526.35,181.23Z" transform="translate(-25.9 -42.54)" fill="#d8cfc7"/><path d="M519.44,179c1.38-.13,33.45-6.8,37.85-7.93s26.41-5.66,27.54-5.91,17.11-4.78,17.11-4.78v1.51s-41.38,9.94-44.27,10.31-37.73,8.68-37.73,8.68l-1.76-2.39Z" transform="translate(-25.9 -42.54)" fill="#d8cfc7"/><path d="M568.86,166.26c5.66-1,20.37-3.39,20.37-3.39s-18.73,4.27-21.63,4.9-25.9,5.91-27.16,6-7.17,1.26-7.17,1.26,19-5.16,20.88-5.54S568.86,166.26,568.86,166.26Z" transform="translate(-25.9 -42.54)" fill="#d8cfc7"/><path d="M457.46,263.54c.83-.17,84-20.38,84.2-21.05s8.69-23.89,9.36-24.06a21.84,21.84,0,0,1,3.17-.84c.67,0,52.68,8.71,52.68,8.71a32.13,32.13,0,0,1-.49,4c-2.89,7.42-10.82,25.22-10.42,25.75s6.85,13,6.85,13l-2.5,1-2-.17s-6-11.86-6.51-11.7-88.55,21.56-89.22,22.73-3.18,13.2-3.18,13.2l-2.17,1.33-3.34-.83,3-14.54-37.26-8.35-3.68,14-2.67,1.5-3-.5S456.62,263.71,457.46,263.54Z" transform="translate(-25.9 -42.54)" fill="#cc8d71"/><polygon points="471.11 207.39 474.66 207.89 477.69 207.13 479.47 39.79 475.42 39.79 471.11 207.39" fill="#cc8d71"/><path d="M865,178.5h-2c-.64,0-.61,1,0,1h2c.64,0,.61-1,0-1Z" transform="translate(-25.9 -42.54)" fill="#cc8d71"/><path d="M505.07,42.54c1.2.2,70.94,43.16,70.14,43.16s-59.35-4.2-60.15-4.4-79.53,15.79-79.53,15.79Z" transform="translate(-25.9 -42.54)" fill="#edcd96"/><path d="M554.05,219.68a15.1,15.1,0,0,0-2.79.74c-.15.22-7,19.9-7,19.9s1.18,1.4,1.47,1.4,48,9,48.19,8.74,8.74-21.89,8.52-22.11S554.05,219.68,554.05,219.68Z" transform="translate(-25.9 -42.54)" fill="#edcd96"/><path d="M590.41,254.28s-89,21.74-89.32,21.66l-40.54-9.84a18.18,18.18,0,0,1,1.83-2.79c.3-.07,78.3-19.61,78.67-19.61s3.07.19,3.07.19l45.11,8.26Z" transform="translate(-25.9 -42.54)" fill="#edcd96"/></g><g id="S" style="mix-blend-mode:multiply"><path d="M111.81,223.29,106.73,226s1.35,1.83,2,1.83,38.65-2.84,40.21-3.1,33.31-7.33,34-7.72,10.42-4.82,10.42-4.82l-3-1.82-3.46,2.39s-34.17,7.51-40.29,8.29-30.07,3-34.37,3Z" transform="translate(-25.9 -42.54)" fill="#e6e8e7"/><path d="M311.57,208.05l-.6,1.78s-10.86,4.74-11.85,4.74-14.81-1-14.22-1.19,18.17-4.54,18.17-4.54l.29.81,3.88.74Z" transform="translate(-25.9 -42.54)" fill="#e6e8e7"/><path d="M187.34,239.46,182,243s2.77,2,3.56,2,20.93-1,22.12-1.19,48.39-9.87,49.57-10.66,9.88-4.55,9.29-4.74a21.82,21.82,0,0,1-3-2.37s-4.54,1.77-5.72,2.17-40.69,10.07-44.25,10.47-24.88,2-24.88,2Z" transform="translate(-25.9 -42.54)" fill="#e6e8e7"/><path d="M307.24,210.39l2.22-26,3.88-7.39s-6.1,6.28-9.24,8.49-21.23,13.85-22.34,15.14-23.08,24.75-23.63,24.75-33,8.86-45.42,10.89a129,129,0,0,1-24.93,1.29L188,241s23.82-.92,25.85-1.48,46-11.26,48-12.74,22.16-23.26,22.9-24,18.09-12.92,18.09-12.92l.55,19.75Z" transform="translate(-25.9 -42.54)" fill="#e5cdca"/><path d="M234.49,202.64s22-9,25.48-12,22.53-22.15,24.93-24,20.87-15.14,22.53-15.51a14,14,0,0,1,3.69-.18S294,166.08,293,167.37s-22.34,27.14-23.26,27.88-22,13.11-22,13.11Z" transform="translate(-25.9 -42.54)" fill="#e5cdca"/><path d="M248.16,188.6l1.29-17,2.21-5.17s-5,4.06-6.46,4.43-30.83,13.48-31.94,14.21-25.67,24.19-28.07,25.3-32.68,8.86-36.19,9.23-32.49,2.59-33.79,2.59a23.91,23.91,0,0,0-3.32.37l.19,2s33.05-2.4,36.19-3.14,36.19-7.94,38.59-8.68,28.62-24.56,29.35-24.74,27-13.85,27.15-12.93-1.3,15.7-1.3,15.7Z" transform="translate(-25.9 -42.54)" fill="#e5cdca"/><path d="M163.49,191s9.11-1.62,10.32-2.23S202,172.17,204.19,170s25.11-19.44,26.33-20.86,14.78-7.9,15.59-7.9a8.16,8.16,0,0,1,2.43.81s-11.75,8.3-12.56,9.11-39.89,36.86-40.5,37.06-23.29,8.1-24.7,7.9S163.28,192,163.49,191Z" transform="translate(-25.9 -42.54)" fill="#e5cdca"/><path d="M304.72,254.47c.33,0,73.94-19.32,74-18.77s-.54,5.46-.54,5.46l2.4.87-.11,1.31s-76.22,22.6-76.65,22.39-21.62-4.7-21.62-4.7l3.82-2.62,18,3.39S304.39,254.47,304.72,254.47Z" transform="translate(-25.9 -42.54)" fill="#e6e8e7"/><path d="M253,252.84s-5.35,2.19-5,2.4S269,260.48,270,260.38s15.83-4.7,15.83-4.7l.76-4,58.2-16.71.33-4.36s-72.94,17.8-73.38,17.8S253,252.84,253,252.84Z" transform="translate(-25.9 -42.54)" fill="#e6e8e7"/><path d="M252.9,246.17c.06-.25,18,2.18,18.11,2.43s-.08,9.39-.5,9.47-17.44-3.1-17.61-3.6A33.71,33.71,0,0,1,252.9,246.17Z" transform="translate(-25.9 -42.54)" fill="#e5cdca"/><path d="M286.44,251.28c.42-.06,17.95,3,18.28,3.19s-.49,9.22-.78,9.27-17.17-3.57-17.59-4S285.85,251.36,286.44,251.28Z" transform="translate(-25.9 -42.54)" fill="#e5cdca"/><path d="M679.7,195.59l-.73,4.65,2.76,1.3-.43,1.6S604.7,225.38,604,225.38s-21.51-4.94-21.22-5.38a37.77,37.77,0,0,1,4.07-2.61l17.73-1.31Z" transform="translate(-25.9 -42.54)" fill="#e6e8e7"/><path d="M645.83,190.5l-75.28,20.35-17,1.45s-3,1.89-2.47,1.89,19.48,5.52,20.64,5.52,15-3.92,15-3.92-.14-4.51.29-4.65,58.28-16.72,58.28-16.72Z" transform="translate(-25.9 -42.54)" fill="#e6e8e7"/><path d="M553.66,205.9c.71,0,17.13,4.08,17.19,4.67s.35,7.32.11,7.32-16.77-3.54-17.24-4S552.89,206.2,553.66,205.9Z" transform="translate(-25.9 -42.54)" fill="#e5cdca"/><path d="M587.15,210.92c.23,0,17.57,4.52,17.41,5.16s.07,6.83-.29,6.83-16.59-3.48-17-3.95S586.38,211.46,587.15,210.92Z" transform="translate(-25.9 -42.54)" fill="#e5cdca"/><path d="M679.3,289.4S605.35,309,604.61,308.85s-17.72,3-17.72,3-4.08,2-3.46,2.11S605.1,319.13,606,319s74.69-21.68,74.44-22.05-1.61-1.74-1.61-1.74S679.67,289.15,679.3,289.4Z" transform="translate(-25.9 -42.54)" fill="#e6e8e7"/><path d="M553.7,305.63s17.34-1.24,17.83-1.36,74.2-20.57,74.2-20.07-.37,4.21-.37,4.21L587,305.13l-.37,3.59s-15.36,4.46-16,4.34-19.7-4.83-19.7-4.83l2.36-1.24Z" transform="translate(-25.9 -42.54)" fill="#e6e8e7"/><path d="M553.72,299.82c.72-.08,17.56,4,17.56,4.54s0,7.34-.24,7.34-16.92-3.59-17.32-3.91S552.85,300,553.72,299.82Z" transform="translate(-25.9 -42.54)" fill="#e5cdca"/><path d="M587,305.13s17.17,3.26,17.59,3.72-.07,8.2-.07,8.2-16.91-3.67-17.39-4.15S586.48,305.18,587,305.13Z" transform="translate(-25.9 -42.54)" fill="#e5cdca"/><path d="M396.77,236.45s-2,1-1.78,1.15,5.65,1.71,5.91,1.65,40-12.07,40-12.26-.64-.64-.64-.64l.19-2.16-39.83,11.69Z" transform="translate(-25.9 -42.54)" fill="#e6e8e7"/><path d="M382.41,232.58l4.51-1.08,39.13-11.31-.06,1.72,1.21.76S386.48,235,386.29,234.93s-5.15-1.21-5.15-1.21Z" transform="translate(-25.9 -42.54)" fill="#e6e8e7"/><path d="M369.14,228.77l-1.53,1s5.27,1.59,5.53,1.53l40.34-11.95-1-.69.13-2.16L373.33,228Z" transform="translate(-25.9 -42.54)" fill="#e6e8e7"/><path d="M713.24,176S674,187.32,673.83,187.32s-4.13,1-4.13,1-1.4.57-1.21.7a50.29,50.29,0,0,0,5.4,1.52c.25-.06,40.11-11.93,40.11-11.93l-1-.64Z" transform="translate(-25.9 -42.54)" fill="#e6e8e7"/><path d="M726.64,179.7l-39.29,11.42-4.19,1-1,.7s5,1.65,5.33,1.58,40.12-12,40-12.18a3.13,3.13,0,0,0-1-.45Z" transform="translate(-25.9 -42.54)" fill="#e6e8e7"/><path d="M741,183.57s-39,11.74-39.29,11.74-4.06.64-4.06.64-1.46.82-1.27.89l5.46,1.65s40.11-11.94,39.92-12.19a3.32,3.32,0,0,0-.76-.57Z" transform="translate(-25.9 -42.54)" fill="#e6e8e7"/><path d="M713.21,269.86c-.22,0-39,11.43-39.27,11.43s-4.29,1.12-4.29,1.12-1.4.33-1.28.5a49.71,49.71,0,0,0,5.63,1.51l40.21-11.88-1.05-.56Z" transform="translate(-25.9 -42.54)" fill="#e6e8e7"/><path d="M726.65,273.71s-39.32,11.43-39.49,11.43-4.07.95-4.07.95-1.56.67-1.34.73,5.52,1.56,5.75,1.45,40-12,40-12l-.84-.51Z" transform="translate(-25.9 -42.54)" fill="#e6e8e7"/><path d="M741.05,277.56s-39,11.65-39.22,11.6-4.35,1-4.35,1-1.22.5-1.06.56,5.08,1.39,5.47,1.34,39.77-11.66,39.66-11.83a4.77,4.77,0,0,0-.62-.55Z" transform="translate(-25.9 -42.54)" fill="#e6e8e7"/><path d="M369,226.74c.21.14,3.95,1.1,3.95,1.3v2.41l-3.95-.87A17.94,17.94,0,0,1,369,226.74Z" transform="translate(-25.9 -42.54)" fill="#e5cdca"/><path d="M382.59,230.5l3.81,1.2v2.51a31.45,31.45,0,0,1-3.86-.82A9.49,9.49,0,0,1,382.59,230.5Z" transform="translate(-25.9 -42.54)" fill="#e5cdca"/><path d="M396.84,234.48s3.68,1.05,3.8,1.4a18.86,18.86,0,0,1,.18,2.43,33.12,33.12,0,0,1-4-1C396.78,237.07,396.65,234.29,396.84,234.48Z" transform="translate(-25.9 -42.54)" fill="#e5cdca"/><path d="M669.76,280.09a24.48,24.48,0,0,1,4,1.33c.05.22-.11,2.4-.11,2.4a35.59,35.59,0,0,1-3.9-.95C669.71,282.7,669.48,280.09,669.76,280.09Z" transform="translate(-25.9 -42.54)" fill="#e5cdca"/><path d="M683.18,284.09s3.85,1,4,1.05.25,2.41-.09,2.41a20.05,20.05,0,0,1-4-.84A9.75,9.75,0,0,1,683.18,284.09Z" transform="translate(-25.9 -42.54)" fill="#e5cdca"/><path d="M697.59,288s3.9.67,4.07.84.16,2.89-.06,2.84a31.35,31.35,0,0,1-4.17-1.06C697.37,290.38,697.59,288,697.59,288Z" transform="translate(-25.9 -42.54)" fill="#e5cdca"/><path d="M669.79,186.18a15.24,15.24,0,0,1,3.79,1.15,7,7,0,0,1-.05,2.45,30.7,30.7,0,0,1-3.84-.82C669.64,188.82,669.5,186.18,669.79,186.18Z" transform="translate(-25.9 -42.54)" fill="#e5cdca"/><path d="M683.31,190a16.6,16.6,0,0,1,3.78,1.2c.1.24.2,2.63-.09,2.54s-3.88-1-3.88-1S683.07,190,683.31,190Z" transform="translate(-25.9 -42.54)" fill="#e5cdca"/><path d="M697.59,193.9a13.75,13.75,0,0,1,3.65,1.29c0,.24.48,2.5.19,2.5s-4-1-4-1A19.17,19.17,0,0,1,697.59,193.9Z" transform="translate(-25.9 -42.54)" fill="#e5cdca"/><path d="M499.52,153.43c-9-1-20.86-2.47-22.65-2.64-2.9-.27-47.9-4.83-59.22-6.21s-9-.55-11-1.24-1.52-2.49-2.07-2.49-1.66,1.94-2.48,3.18a98.76,98.76,0,0,0-5.11,8.56c-.69,1.65-.42,4.14-.83,5.8s-.41,15.87.28,19.05,5.66,8.42,6.62,8.69,13.39,1.94,14.36,2.21,47.77,6.63,50.11,7c1.31.23,17,2.3,30.88,4.09C498.38,189.8,499.37,158,499.52,153.43Z" transform="translate(-25.9 -42.54)" fill="#e5cdca"/><path d="M520.63,196.49c.14-.42,92.63-25.4,92.63-25.4l-8.83,1.24s-14.5,1.52-15.74,1.79-24.71,7-26.92,7.73-30.51,7.6-34.24,8.15-9.24-.83-9.24-.83,2.76,4.69,1.79,4.69-6.76-3.17-7.59-5.79-4.14-10.63-3.32-14.64,7.18-20.29,8.84-21.53a12.28,12.28,0,0,0-3,.14c-.83.27-4.83,2.34-5.24,2.48-.11,0-2.11-.17-5.06-.5.17,7.84-.47,37.29-.67,46.17,8.62,1.1,15.49,2,15.94,2,1.24,0,29.41-8,29.41-8s-26.65,6.21-27.34,6.21S520.49,196.9,520.63,196.49Z" transform="translate(-25.9 -42.54)" fill="#e5cdca"/><path d="M609.12,135.44s-21.49,3.59-29.47,5.05-54.2,9.61-55.67,10.58-5.86,6.68-8.62,14c1.14-1,3.25-3.91,4.88-4.23a51,51,0,0,0,7.81-2.44c.65-.49,6.68-2.77,8.63-3.75s31.42-5.69,38.74-7,24.91-5.37,24.91-5.37l1.95-.49.65-3.58,6-.65Z" transform="translate(-25.9 -42.54)" fill="#e5cdca"/><path d="M613.67,173.37l5.7.65s.49,1.47,0,2-103.85,29.78-105.48,29.78-9.93-.48-9.93-.48l0-5.09s12.66,1.18,14,1.34a29.15,29.15,0,0,0,6.35-.32c1.63-.33,32.88-9.44,34.35-9.93s35.48-10.09,38.08-10.58,16.93-5.37,16.93-5.37Z" transform="translate(-25.9 -42.54)" fill="#e6e8e7"/><path d="M397.34,178.74s-13.34,2.77-13.18,3.42.32,3.75,1.46,4.4S396.37,189,397.67,189,498.1,204,498.1,204l.26-4.5s-95.16-13.08-96-13.56A21.46,21.46,0,0,1,397.34,178.74Z" transform="translate(-25.9 -42.54)" fill="#e6e8e7"/><path d="M597.23,267.9l-7.47,2L567.24,264l-64.81,16.8-3.21,13-2.09,1.6-3.21-1,2.73-14.61-33.23-7.22-4.66,1.92-3.05,11.08L453,286.89l-2.57-.33L454,274.85l-19.59,6.42s-.32,2.89.81,3.53,53.45,13.48,54.42,13.32,101.09-25.45,103-25.87c2.08-.46,7.76-2.19,7.76-2.19l-2-.22A11,11,0,0,0,597.23,267.9Z" transform="translate(-25.9 -42.54)" fill="#e6e8e7"/><polygon points="470.93 206.97 474.56 207.81 477.57 207.09 477.09 208.05 448.15 214.22 470.93 206.97" fill="#e6e8e7"/><path d="M604.24,227.87c-.13.65-9.46,23.46-9.78,23.4s-.58-.64-.58-.64l-2.17-.51a7.6,7.6,0,0,0,1.79-.64c.06-.19,7.87-20.08,7.67-20.14s-46-8.89-46.61-8.82-2.88.57-3.07.64a22.83,22.83,0,0,0-1.41,1.91c.2-.32,1-3.51,1.22-3.64a22.41,22.41,0,0,1,3-.58C554.62,218.85,604.3,227.55,604.24,227.87Z" transform="translate(-25.9 -42.54)" fill="#e5cdca"/><path d="M481.78,271.34s-18.72-5.74-18.72-6.08,1.14-1,1.14-1,77-19.64,77.9-19.64,7.35.11,7.35.11l-7.93-1.49S461.33,262.84,461,263s-2.07,4.25-2.07,4.25Z" transform="translate(-25.9 -42.54)" fill="#e5cdca"/><path d="M453,286.89l5.24-17,2.07-5.4L461,263s-3.22.46-3.56.92-7,22.68-7,22.68Z" transform="translate(-25.9 -42.54)" fill="#e5cdca"/><polygon points="471.23 252.86 475.3 233.75 441.29 224.56 431.87 223.87 432.1 226.05 433.13 228.23 470.47 236.04 470.75 237.28 468.02 251.89 471.23 252.86" fill="#e5cdca"/><polygon points="566.06 215.6 568.13 215.17 574.42 227.52 572.42 227.31 566.06 215.6" fill="#e5cdca"/><polygon points="474.56 207.81 477.63 40.97 475.26 41.76 470.93 206.97 474.56 207.81" fill="#e5cdca"/><polygon points="410.11 54.57 477.63 40.97 479.43 40.61 548.59 42.88 479.75 54.57 479.43 46.29 475.53 48.08 474.56 54.41 410.11 54.57" fill="#e5cdca"/><path d="M504.84,42.88l.49,40.27L436,97.11S504.68,42.4,504.84,42.88Z" transform="translate(-25.9 -42.54)" fill="#e6e8e7"/></g><g id="L" style="mix-blend-mode:screen"><path d="M196.56,230.12c1.68-2.23,13.76-14.69,14.69-14.5s5.4,3.34,7.07,3.71,3.72.75,3.72.75,11-1.12,11.9-1.12,9.66-.74,10.22-1.3-21.56,10.6-23.42,10.6S196.56,230.12,196.56,230.12Z" transform="translate(-25.9 -42.54)" fill="#a3986a" opacity="0.23"/><path d="M126.28,213.94c1.49-1.86,5.77-7.81,8-9.11s5-3.16,5-3.16,8.36,5.58,11,5.58,17.48-1.49,16.73-1.3-14.87,6.51-16.55,6.88-14.13,1.67-16,1.86S126.28,213.94,126.28,213.94Z" transform="translate(-25.9 -42.54)" fill="#a3986a" opacity="0.23"/><path d="M199.73,187.73c3.34-3.16,15.61-12.46,18-15.62a142.13,142.13,0,0,1,11-12.09c2.42-2.23,11-8.92,11.72-9.48s10.78-7.62,11.15-6.51,1.86,6.88,1.67,8.18-1.67,9.49-2.41,8.74-5.39-.37-7.07.56-14.5,7.44-14.5,7.44-1.12-.93-1.86-.19-15.06,12.83-16.18,13.2S199.73,187.73,199.73,187.73Z" transform="translate(-25.9 -42.54)" fill="#a3986a" opacity="0.23"/><path d="M287.3,181.4s6.88-11.89,8-13.2,12.64-10.41,13.2-11,3.9-5.39,4.27-4.83,2.61,6.32,2.42,8.18-2.42,8.18-3.35,9.3-7.81,7.43-7.81,7.43,2.42-4.46,2.05-5.39-3.35-.93-3.72-1.86a22.48,22.48,0,0,1-.74-3.16s-6.88,6.14-7.44,6.7S287.3,181.4,287.3,181.4Z" transform="translate(-25.9 -42.54)" fill="#a3986a" opacity="0.23"/><path d="M514.14,125.07c2.23.18,87.2,7.25,88.87,7.25a29.74,29.74,0,0,1,4.46.56s.38,2-.55,1.86-42,6.32-48.72,7.62-36.44,6.51-36.44,6.51,59.13-13.39,57.82-14-11-.74-12.08-1.3-12.83-1.12-17.85-1.67S514.14,125.07,514.14,125.07Z" transform="translate(-25.9 -42.54)" fill="#6a80a0" opacity="0.23"/><path d="M509.07,47.27c1.45.44,57.74,36.07,57.16,36.07S526.52,81.16,527.54,81s16.87-1.45,16.29-1.89-8.87-1.74-8.44-2.33a15.1,15.1,0,0,0,1-3.19,6.91,6.91,0,0,0-2.18-4.22c-2-1.89-16.15-7.57-17.31-9.46s-.73-5.38-1.45-6.4S509.07,47.27,509.07,47.27Z" transform="translate(-25.9 -42.54)" fill="#9e816a" opacity="0.66"/><path d="M588.93,228.66c-.65-.28-33.32-6.17-34-6.17s-2.86,1.84-3.13,2.39-6,14.55-5.62,14.73a3.14,3.14,0,0,0,1.66.74c.83,0,26.69,5.34,26.69,5.34s-19.7-6.45-19.24-6.63,5.62-1.47,4.51-1.84a7.07,7.07,0,0,1-2.39-1.84c-.74-.65,1.2-3.68,1.38-5.52s7.82,1.47,8.28.27,1-2.58,1.48-2.48S588.93,228.66,588.93,228.66Z" transform="translate(-25.9 -42.54)" fill="#9e816a" opacity="0.66"/><path d="M467.93,265.36c5.08-1.69,75-19.58,75.94-19.44s3.15-.4,3.94-.13,26.53,5.51,25.75,5.51-15.24-1.57-15.64-1.18,2.76,3.94,2.1,3.81-7.35.4-15.37,1.18-15,3.16-16.55,4.6a9.52,9.52,0,0,1-4.73,2.37c-1.71.39-4.07-.4-7.62.26s-28.12,3.41-28.25,4.2,13.27,7.62,13.27,7.62S467.14,265.62,467.93,265.36Z" transform="translate(-25.9 -42.54)" fill="#9e816a" opacity="0.66"/><path d="M412.88,141.51c1.46.49,81.61,8.8,81.42,8.24s-71.69-9.36-70.94-9.73,5.43-2.62,5.43-2.62S410.63,140.77,412.88,141.51Z" transform="translate(-25.9 -42.54)" fill="#6a80a0" opacity="0.23"/></g><g id="C2"><path d="M204.05,66.44C157.12,67,67.54,115.5,77.67,205.62s83.72,106.65,152,106.12S341.09,249.35,339,192.29,296.83,61.65,204.05,66.44Z" transform="translate(-25.9 -42.54)" fill="#78cfff" opacity="0.3"/><path d="M285.45,308.67s1.83,3.47,2.74,5.84c3.62,9.4,74.22,107.61,76.54,109.74s13.4,11.07,14.56,10.87,13.39-14.75,13.39-14.75-3.1-9.7-3.68-10.29-73.34-107.53-74.9-108.89-5.29-5.84-5.29-5.84Z" transform="translate(-25.9 -42.54)" fill="#a85042"/><path d="M324.5,123C290.78,64.32,212.55,57.37,178.25,65.94,107,83.76,48.57,158.12,81.26,237.42S212,337.1,283.82,299.05C356.67,260.45,355.63,177.16,324.5,123Zm-46,168.46c-66.79,35.39-158,16.45-188.41-57.32S114.05,91.2,180.33,74.63c31.9-8,102.45-.08,136.67,54.87C345,174.54,346.29,255.56,278.52,291.46Z" transform="translate(-25.9 -42.54)" fill="#d8e4ea"/><polygon points="248.81 258.66 258.99 270.98 286.32 253.83 276.68 239.37 248.81 258.66" fill="#d8e4ea"/><path d="M368.28,430.77,393,414.15c5.72,6.53,14,15.71,14.36,16.28a12.16,12.16,0,0,1,.56,2.83s-25,18.54-25.55,18.42-3.73-.11-3.73-.45S368.28,430.77,368.28,430.77Z" transform="translate(-25.9 -42.54)" fill="#d8e4ea"/></g><g id="S-2" data-name="S" style="mix-blend-mode:multiply"><path d="M396.08,438.36c-2.35,1.51-13.4,10.22-13.9,9.72s-4.69-8.88-5.53-9.38,1.51-7.53.67-8.2A49.52,49.52,0,0,0,372.8,428l.5-2.84s-4.85-3.69-4.85-4.19S303,330,302.13,328.51s-6.7-8.87-7.2-9.88-2.68-8.2-2.68-8.2l-3.18.33-2.18,1.17-7.53-10.21,1.67-3.35s-15.91,9.38-43.2,13.9-50.41,1.84-77-5.86l1-2.85s30.31,12.56,73.52,5,71-31.31,80.38-46.55c-1.34,6.86-15.74,24.11-27.3,30.81,3.69.34,7-1,7-.33s-.33,4.68,0,5.35,6.7,5,6.7,5l-2.51,4s45.88,62.46,46.05,63.46,1.68,6.87,2.51,7.2a37,37,0,0,1,8,7.37c1.84,2.68,22.44,34.17,23.45,34.17H386l-2.51,4a49,49,0,0,1,1.67,4.69c0,.51,5.36,9.05,6,8.88S396.08,438.36,396.08,438.36Z" transform="translate(-25.9 -42.54)" fill="#e6e8e7"/></g><g id="L-2" data-name="L" style="mix-blend-mode:overlay"><path d="M160.88,273.41s37.54,8.93,81.65-3.94,54.09-29.93,54.09-29.93,12.08,7.61,11.29,10.76-26,36.24-69.58,46.21c-1.58-1.31-3.68-10.76-3.68-10.76s3.42-2.63,2.63-2.63S202.36,290.21,160.88,273.41Z" transform="translate(-25.9 -42.54)" fill="#fff"/><path d="M97.43,176.57c3.31-11.71,9.5-43.85,47-71s92.67-25.77,114.37-10.85c-30.29-5.43-73.24,12.2-71,12.2s19,2.72,19,2.72,5.88,19.43,3.17,19.43-52.44,1.81-76.4,42.5c-4.52-.91-13.11-2.71-13.11-4.07s.45-5.88-.91-5.88-23.5,24-21.7,52.44C97.88,214.09,92.46,194.2,97.43,176.57Z" transform="translate(-25.9 -42.54)" fill="#fff"/><path d="M393.09,417.12c.57.58,12.54,13.41,12.4,13.85s-5.34,4.18-5.34,4.18-.43-2.89-2-4.33a52.44,52.44,0,0,1-5.33-6.34,44.34,44.34,0,0,1-2.74-5.92Z" transform="translate(-25.9 -42.54)" fill="#c5dfff"/><path d="M299.36,288.72c1.39-.79,4-2.39,4-2.39s6.37,9.56,5.78,9.76-5.18,3-5.18,3,.2-2.59-.4-3.59S299.36,288.72,299.36,288.72Z" transform="translate(-25.9 -42.54)" fill="#c5dfff"/><path d="M307.32,303.26a9.45,9.45,0,0,1,3.59-1.59c.6,0,73.29,104.55,73.68,105.75s2.39,9,1.6,7.77-3.39-6.18-6-8.77-15.93-20.11-16.53-22.3-35.45-54.77-36.84-56.76-12.75-19.52-14.14-20.51S307.32,303.26,307.32,303.26Z" transform="translate(-25.9 -42.54)" fill="#c6a895" opacity="0.66"/></g></g></svg>