<svg xmlns="http://www.w3.org/2000/svg" viewBox="0 0 49.76 49.59"><defs><style>.cls-1{fill:#525d7d;}</style></defs><g id="Layer_2" data-name="Layer 2"><g id="lineart"><path class="cls-1" d="M49.76,24.82a24.42,24.42,0,0,1-7.4,17.59A25.33,25.33,0,0,1,24,49.59,24.42,24.42,0,0,1,0,26.36l0-.78A25.18,25.18,0,0,1,7.29,7.3,24.89,24.89,0,0,1,25.39,0,24.51,24.51,0,0,1,49.76,24.82ZM2.15,26.26A22.3,22.3,0,0,0,24,47.47,23.24,23.24,0,0,0,40.88,40.9a22.42,22.42,0,0,0,6.76-16c0-12.84-9.57-22.6-22.27-22.73A22.8,22.8,0,0,0,2.13,25.55C2.13,25.79,2.14,26,2.15,26.26Z"/><path class="cls-1" d="M39,30.27a1.06,1.06,0,0,1-.92,1.05c-3.68.48-7.42.81-11,1.13l-.51,0c0,.85,0,1.69.06,2.51,0,1.62.05,3.28.17,4.89a1.07,1.07,0,0,1-.58,1,1,1,0,0,1-1.16-.13c-2-1.66-4-3.34-6-5-3.64-3.06-7.41-6.23-11.22-9.27a1.06,1.06,0,0,1,0-1.63L23.94,10.69A1.06,1.06,0,0,1,25,10.5a1.08,1.08,0,0,1,.66.91c.08,1.23.15,2.46.23,3.69s.15,2.7.25,4.06c3.44-.33,7-.83,10.92-1.52a1.1,1.1,0,0,1,.84.21,1,1,0,0,1,.4.77c.09,1.37.15,2.74.21,4.11.11,2.45.23,5,.46,7.44A.31.31,0,0,1,39,30.27ZM24.4,31.52a1.06,1.06,0,0,1,1-1.05l1.51-.14c3.26-.28,6.62-.58,9.93-1-.18-2.17-.28-4.37-.38-6.51,0-1-.09-1.93-.14-2.9-3.9.66-7.51,1.14-11,1.45a1.11,1.11,0,0,1-.78-.25,1,1,0,0,1-.37-.73c-.15-1.73-.25-3.48-.34-5.17l-.09-1.53L10.16,25.62c3.49,2.81,6.93,5.71,10.27,8.52l4.12,3.46c0-.86,0-1.72-.06-2.56,0-1.14,0-2.32-.09-3.47Z"/></g></g></svg>