<svg xmlns="http://www.w3.org/2000/svg" viewBox="0 0 161 161"><defs><style>.cls-1{fill:#1b8ff5;}.cls-2{fill:none;stroke:#000;stroke-miterlimit:10;}</style></defs><g id="Layer_2" data-name="Layer 2"><g id="Layer_1-2" data-name="Layer 1"><path class="cls-1" d="M149.81,40.48a80.05,80.05,0,0,1-69.31,120v-80l69.28-40Z"/><path class="cls-1" d="M149.81,40.48l0,0L80.5,80.5l-69.22-40a80,80,0,0,1,138.53-.06Z"/><path class="cls-1" d="M80.5,80.5v80a80,80,0,0,1-80-81.91A79.16,79.16,0,0,1,11.28,40.54Z"/><path class="cls-2" d="M80.5,160.5a80,80,0,1,0-69.22-120A79.16,79.16,0,0,0,.52,78.59a80,80,0,0,0,80,81.91"/><line class="cls-2" x1="149.78" y1="40.5" x2="80.5" y2="80.5"/><line class="cls-2" x1="11.28" y1="40.54" x2="11.22" y2="40.5"/><line class="cls-2" x1="11.28" y1="40.54" x2="80.5" y2="80.5"/><line class="cls-2" x1="80.5" y1="80.5" x2="80.5" y2="160.5"/></g></g></svg>