<svg id="Layer_1" data-name="Layer 1" xmlns="http://www.w3.org/2000/svg" viewBox="0 0 54.57 64"><defs><style>.cls-1{fill:#676684;}</style></defs><g id="delete"><path class="cls-1" d="M33.26,54h-2.6V19.84h2.6V54ZM46,20l-2.59-.26L39.91,53.85l2.58.27ZM24,53.85,20.55,19.71,18,20l3.46,34.15ZM59.28,11.16v2a1.3,1.3,0,0,1-1.3,1.3H56.87L51.93,56.85a8.28,8.28,0,0,1-8,7.15H20.18a8.3,8.3,0,0,1-8-7.15L7.22,14.42H6a1.3,1.3,0,0,1-1.3-1.3v-2a5.49,5.49,0,0,1,5.36-5.61H21.87A5.61,5.61,0,0,1,27.47,0h9a5.61,5.61,0,0,1,5.61,5.55H53.92A5.49,5.49,0,0,1,59.28,11.16ZM24.47,5.55h15a3,3,0,0,0-3-2.95h-9A3,3,0,0,0,24.47,5.55ZM7.32,11.82H56.68v-.66a2.89,2.89,0,0,0-2.76-3H10.08a2.89,2.89,0,0,0-2.76,3Zm46.94,2.6H9.84l4.89,42.13a5.71,5.71,0,0,0,5.45,4.85H43.9a5.69,5.69,0,0,0,5.45-4.85Z" transform="translate(-4.72)"/></g></svg>