<svg xmlns="http://www.w3.org/2000/svg" viewBox="0 0 41.15 44"><defs><style>.cls-1{fill:#d22d4b;}</style></defs><g id="Layer_2" data-name="Layer 2"><g id="Livello_1" data-name="Livello 1"><path d="M25,.14C23.69,0,21.53,0,19.24,0,14.64,0,9.5.14,9.5.14H9.38A7,7,0,0,0,2.62,6L.11,19.43a6,6,0,0,0,3.46,6.74,5.88,5.88,0,0,0,2.21.42h11.3c-.82,4.56-1.5,9.26-.07,13.67v0a5.27,5.27,0,0,0,3.57,3.53,5,5,0,0,0,1.33.19,3.27,3.27,0,0,0,.76-.08c2.91-.62,3.21-2.48,3.19-3h0a23.42,23.42,0,0,1,3.53-13l.39-.44a16.13,16.13,0,0,1,8.69-5.26l2.67-.7V4.88C37.52,2.6,29.79.52,25,.14Z"/><path class="cls-1" d="M39.14,6V20L38,20.3a18.21,18.21,0,0,0-9.69,5.87l-.38.44-.11.12-.09.14a25.32,25.32,0,0,0-3.83,14.06c0,.07-.11.71-1.61,1a1.86,1.86,0,0,1-.34,0,3.21,3.21,0,0,1-3-2.37c-1.28-4-.66-8.26.14-12.7l.42-2.36H5.78a4,4,0,0,1-1.47-.27,4.05,4.05,0,0,1-2.24-4.52L4.58,6.35A5,5,0,0,1,9.39,2.13h.16S14.72,2,19.23,2c2.62,0,4.5,0,5.61.13A45.21,45.21,0,0,1,39.14,6Z"/></g></g></svg>