<?xml version="1.0" encoding="UTF-8"?>
<svg version="1.1" xmlns="http://www.w3.org/2000/svg" xmlns:xlink="http://www.w3.org/1999/xlink" x="0px" y="0px"
	 viewBox="0 0 209.151 189.128" style="enable-background:new 0 0 209.151 189.128;" xml:space="preserve">
 <!-- Generated by Pixelmator Pro 2.1.2 -->
 <defs>
  <text id="string" transform="matrix(1.0 0.0 0.0 1.0 32.0 5.0)" font-size="144" fill="#843a44" y="127.0" text-decoration="none" font-family="HiraMaruProN-W4, Hiragino Maru Gothic ProN" x="1.3120000000000047">?</text>
 </defs>
 <use id="?" xlink:href="#string"/>
 <path id="Путь" d="M25 50.5 C25 50.5 37.784 63.402 47.087 80.308 56.391 97.213 70.135 128 70.135 128 L72.056 128 C72.056 128 97.27 70.057 111 48 122.52 29.494 146 6.385 146 6.385 L146 4.905 145.04 4 C145.04 4 111.712 26.848 98 44 83.891 61.649 72 90 72 90 72 90 63.942 71.49 52 62 39.888 52.375 25 50.5 25 50.5 Z" fill="#587058" fill-opacity="1" stroke="none"/>
</svg>
