<svg id="Layer_1" data-name="Layer 1" xmlns="http://www.w3.org/2000/svg" viewBox="0 0 63.96 59.96"><defs><style>.cls-1{fill:#676684;}.svg-home-2{fill:#feefad;}</style></defs><g id="home"><path class="cls-1" d="M62.92,30,33.62.65a2.36,2.36,0,0,0-3.24,0L1.07,30a3.52,3.52,0,0,0-.46,4.5A3.42,3.42,0,0,0,3.13,35.9a3.35,3.35,0,0,0,2.23-.61l.09.08.25-.24V56.5A3.44,3.44,0,0,0,9.09,60H54.88a3.44,3.44,0,0,0,3.43-3.44V35.13l.24.23.09-.09A3.42,3.42,0,0,0,62.92,30ZM38.87,57.65H25.14V44a6.87,6.87,0,0,1,13.73,0Z" transform="translate(0 -0.01)"/><path class="svg-home-2" d="M61.31,31.57a1.23,1.23,0,0,1,.16,1.65h0a1.17,1.17,0,0,1-1.64.11l0,0L58,31.48a1.19,1.19,0,0,0-.29-.21L33.55,7.13a2.23,2.23,0,0,0-3.09,0L6.32,31.27a.86.86,0,0,0-.29.21L4.22,33.29a1.14,1.14,0,0,1-.91.33,1.1,1.1,0,0,1-.84-.48,1.25,1.25,0,0,1,.22-1.55L32,2.27Z" transform="translate(0 -0.01)"/><path class="svg-home-2" d="M56,56.5a1.14,1.14,0,0,1-1.13,1.15H41.15V44a9.15,9.15,0,0,0-18.3,0V57.65H9.13A1.15,1.15,0,0,1,8,56.5V32.84l24-24,24,24Z" transform="translate(0 -0.01)"/></g></svg>