<svg id="Layer_1" data-name="Layer 1" xmlns="http://www.w3.org/2000/svg" viewBox="0 0 64 59.93"><defs><style>.cls-1{fill:#676684;}</style></defs><g id="home"><path class="cls-1" d="M62.92,32,33.62,2.68a2.36,2.36,0,0,0-3.24,0L1.07,32a3.52,3.52,0,0,0-.46,4.5,3.43,3.43,0,0,0,2.52,1.43,3.38,3.38,0,0,0,2.23-.61l.09.08.25-.24V58.53A3.43,3.43,0,0,0,9.13,62H54.88a3.44,3.44,0,0,0,3.43-3.44V37.16l.24.23.09-.09A3.42,3.42,0,0,0,62.92,32ZM38.87,59.68H25.14V46a6.87,6.87,0,0,1,13.73,0ZM56,58.53a1.14,1.14,0,0,1-1.14,1.15H41.15V46a9.15,9.15,0,1,0-18.3,0V59.68H9.13A1.15,1.15,0,0,1,8,58.53V34.87l24-24,24,24Zm5.45-23.28a1.16,1.16,0,0,1-1.68.07L58,33.51a1.19,1.19,0,0,0-.29-.21L33.55,9.16a2.23,2.23,0,0,0-3.09,0L6.32,33.3a1,1,0,0,0-.29.21L4.22,35.32a1.14,1.14,0,0,1-.91.33,1.08,1.08,0,0,1-.84-.48,1.24,1.24,0,0,1,.22-1.55L32,4.3,61.31,33.6A1.24,1.24,0,0,1,61.47,35.25Z" transform="translate(0 -2.03)"/></g></svg>