<?xml version="1.0" encoding="iso-8859-1"?>
<!-- Generator: Adobe Illustrator 23.0.3, SVG Export Plug-In . SVG Version: 6.00 Build 0)  -->
<svg version="1.1" xmlns="http://www.w3.org/2000/svg" xmlns:xlink="http://www.w3.org/1999/xlink" x="0px" y="0px"
	 viewBox="0 0 64 64" style="enable-background:new 0 0 64 64;" xml:space="preserve">
<g id="home">
	<path style="fill:#231F20;" d="M62.924,31.984L33.619,2.68c-0.869-0.858-2.368-0.858-3.237,0L1.066,31.996
		c-1.224,1.224-1.418,3.168-0.457,4.507c0.595,0.824,1.51,1.35,2.516,1.43c0.812,0.069,1.59-0.16,2.23-0.618l0.092,0.092
		l0.252-0.252v21.378c0,1.887,1.533,3.431,3.431,3.431h45.753c1.887,0,3.431-1.544,3.431-3.431V37.154l0.229,0.24l0.092-0.092
		c1.395,0.949,3.454,0.744,4.575-0.56C64.365,35.393,64.24,33.3,62.924,31.984z M38.87,59.676H25.144V45.95
		c0-3.786,3.077-6.863,6.863-6.863s6.863,3.077,6.863,6.863V59.676z M56.027,58.532c0,0.629-0.515,1.144-1.144,1.144H41.157V45.95
		c0-5.044-4.106-9.151-9.151-9.151c-5.044,0-9.151,4.106-9.151,9.151v13.726H9.13c-0.629,0-1.144-0.515-1.144-1.144V34.867
		l24.02-24.02l24.02,24.02V58.532z M61.471,35.256c-0.423,0.492-1.224,0.526-1.681,0.069l-1.819-1.819
		c-0.08-0.08-0.172-0.149-0.275-0.206L33.551,9.154c-0.824-0.824-2.265-0.824-3.088,0L6.316,33.3
		c-0.103,0.057-0.206,0.126-0.286,0.206l-1.819,1.819c-0.229,0.24-0.56,0.355-0.904,0.332c-0.332-0.034-0.629-0.206-0.835-0.492
		c-0.32-0.435-0.217-1.109,0.217-1.556L32.007,4.304L61.3,33.597C61.769,34.066,61.849,34.809,61.471,35.256z"/>
	<path style="fill:#429CFF;" d="M56.027,34.867v23.666c0,0.629-0.515,1.144-1.144,1.144H41.157V45.95
		c0-5.044-4.106-9.151-9.151-9.151c-5.044,0-9.151,4.106-9.151,9.151v13.726H9.13c-0.629,0-1.144-0.515-1.144-1.144V34.867
		l24.02-24.02L56.027,34.867z"/>
</g>
<g id="Layer_1">
</g>
</svg>
