<svg xmlns="http://www.w3.org/2000/svg" viewBox="0 0 41.15 44"><defs><style>.cls-1{fill:#3cb65a;}</style></defs><g id="Layer_2" data-name="Layer 2"><g id="Livello_1" data-name="Livello 1"><path d="M37.58,17.83a5.93,5.93,0,0,0-2.22-.42H24.07c.82-4.56,1.49-9.26.07-13.67v0A5.27,5.27,0,0,0,20.56.19,5,5,0,0,0,19.23,0a3.22,3.22,0,0,0-.76.08c-2.91.62-3.21,2.48-3.2,3h0a23.33,23.33,0,0,1-3.52,13l-.39.44a16.15,16.15,0,0,1-8.7,5.26L0,22.46V39.12c3.63,2.28,11.36,4.36,16.15,4.74,1.3.1,3.46.14,5.76.14,4.59,0,9.74-.14,9.74-.14h.12A7.06,7.06,0,0,0,38.53,38L41,24.57A6,6,0,0,0,37.58,17.83Z"/><path class="cls-1" d="M36.84,19.68a4.05,4.05,0,0,1,2.24,4.52L36.57,37.64a5,5,0,0,1-4.81,4.21H31.6c-.05,0-5.17.14-9.68.14-2.62,0-4.5,0-5.61-.14A45.34,45.34,0,0,1,2,38V24l1.18-.31a18.21,18.21,0,0,0,9.69-5.87l.38-.44.11-.12.09-.14A25.32,25.32,0,0,0,17.28,3.06c0-.07.11-.71,1.61-1a1.87,1.87,0,0,1,.34,0,3.25,3.25,0,0,1,.82.12,3.28,3.28,0,0,1,2.19,2.24c1.28,4,.66,8.26-.14,12.7l-.42,2.36H35.37A4,4,0,0,1,36.84,19.68Z"/></g></g></svg>