<svg id="Layer_1" data-name="Layer 1" xmlns="http://www.w3.org/2000/svg" viewBox="0 0 176.31 189.13"><defs><style>.cls-1{fill:#bc5764;}.cls-2{fill:#525d7d;}</style></defs><g id="mirrorY"><path class="cls-1" d="M137.89,102.65c4.11-1,10.35,4.54,14.57,5.53,5.56,1.29,11.43,1.22,17.1,1.46,10.37.44,26.11,3.07,35.52-2.32a2.71,2.71,0,0,0,0-4.62c-5-3.6-11.77-3.78-17.76-4.53-6.81-.85-13.65-1.54-20.49-2.22a42.78,42.78,0,0,1-17.5-5.11c-.82-.43-1.66-.83-2.5-1.19a5.77,5.77,0,0,0,2-.05,10.55,10.55,0,0,0,3.07.09l.36-.06a8.3,8.3,0,0,0,2.82.32c2.82-.3,4.41-3.34,2.49-5.61A5.67,5.67,0,0,0,156,79.89a9.61,9.61,0,0,0-6.19-2.72c-2.51-.18-4.51.89-6.41,2.4-2.32,1.86-2.11,5.69-.46,7.83a5.84,5.84,0,0,0,1.5,1.35,14.8,14.8,0,0,0-10.32.19C125.89,92.36,128.75,104.85,137.89,102.65Z" transform="translate(-32.84 0)"/><path class="cls-1" d="M79.35,45,87,48.32c2,.85,4.27.61,5.46-1.43A4,4,0,0,0,91,41.43l-7.27-3.92a4.43,4.43,0,0,0-5.95,1.56C76.71,40.92,77.19,44.09,79.35,45Z" transform="translate(-32.84 0)"/><path class="cls-1" d="M61.66,81.76c1.58,8.29,6.2,14.51,14.94,15.32,4.81.45,6.56-4.37,5.19-8,13,3.39,28.37,2.16,41.32,1,4.76-.44,12.1-.37,15.79-3.85,3.27-3.08,2.34-8.83,2.39-12.89a2.16,2.16,0,0,0-4.23-.58c-.33,1.14-.91,6.16-1.95,6.93-1.51,1.12-4.6.23-6.46.18-5.08-.14-10.16,0-15.24,0-10.73.15-22,.61-32.42-2.11-4.56-1.18-7.18,3-6.35,6.45-2.1-2.32-2.87-7.88-2.79-10.56a5.35,5.35,0,0,0,1.22,1.13c4.68,3.15,14.57,3.87,18.69-.63a2.23,2.23,0,0,0-1-3.7c-2.18-.62-4.48-.35-6.7-.83a33.73,33.73,0,0,1-6.5-2.58,5,5,0,0,0-3.22-.3,10.37,10.37,0,0,0,.94-2.9c.43-3-.89-5.52-1.29-8.27a3.56,3.56,0,0,0,2.62,1.81c4.91.88,9.9,1.4,14.84,2.06,3.55.48,3.68-4.79.79-5.84C87.86,52,83.47,50.31,79,48.91a3.79,3.79,0,0,0-4.08,1,24.37,24.37,0,0,0,1.85-5.56c.56-4.54-.38-4.85,3-7.88,1.7-1.5,3.16-2.85,3.93-5.08,0-.09.05-.18.08-.27,2,1.55,5.06,1.25,7.06-.23a13,13,0,0,0,11.93,2.4c3-.84,2.49-6-.75-5.58-4.87.62-7.34-5.52-9.13-9.06-1.5-3-5.55-3-7.77-1a10.33,10.33,0,0,0-2,2.51c-.49-1.92-1-3.79-1.35-5.54-.47-2.52-3.72-2.32-5-.64-2.65,3.6-1.35,6.81-1.72,10.9-.4,4.35-3.4,3.92-6,7-3.27,3.89-1.64,8-2.85,12.52-1.09,4.08-3.13,7.16-2.7,11.57.2,2,1.43,4.7.89,6.73C64,64.43,62.2,66.14,61.56,68,60.08,72.37,60.81,77.31,61.66,81.76Z" transform="translate(-32.84 0)"/><path class="cls-1" d="M46,175.44c12,11.83,28.4,12.82,44.38,13.53,15,.66,30.87-.33,42.88-10.4a4.75,4.75,0,0,0,1.77-4.25c9.06-6,14.95-15.26,12.64-28-.31-1.76-3.18-1.73-3.52,0-4.07,20.92-26.77,23.89-44.5,22.32-9.12-.8-18.75-2.34-27.34-5.64a30.5,30.5,0,0,1-6.64-3.49,5.53,5.53,0,0,0-2.23-4.13c-14.11-11.29-8-29.52.19-42.83,1.27-2.06-1.67-4.29-3.33-2.56-4.58,4.76-9.16,9.52-12.52,15A42.34,42.34,0,0,1,59.4,109.06c1.91-1.61-.55-4.44-2.57-3.33C30.84,120,24.07,153.92,46,175.44Z" transform="translate(-32.84 0)"/><path class="cls-1" d="M171.44,95.89c4.8,0,11.6-3.92,10-9.59a1.9,1.9,0,0,0-1.82-1.38c-1.93.15-4.48,1.27-6.33.52a3.89,3.89,0,0,1-1.57-1.39,17.77,17.77,0,0,0-2.84-3.57,5.61,5.61,0,0,0-9.25,2.44C157.44,90.08,164.77,95.94,171.44,95.89Z" transform="translate(-32.84 0)"/><path class="cls-2" d="M40.48,145c0-23.26,13.09-33.76,24.65-43,5.94-4.76,11.55-9.26,15.14-15.11A2.16,2.16,0,1,1,84,89.08c-4,6.5-9.88,11.23-16.12,16.23-11.32,9.08-23,18.48-23,39.66,0,33.54,37.43,37.16,53.52,37.16,31.63,0,52.69-7.06,52.69-41.52,0-13.28-7.49-22-15.42-31.17-4.75-5.51-9.66-11.21-13-18a2.16,2.16,0,1,1,3.89-1.87c3,6.31,7.76,11.79,12.33,17.09,8.1,9.4,16.47,19.11,16.47,34,0,17.48-5.21,29.52-15.94,36.83-9,6.15-22.07,9-41.07,9C61.56,186.45,40.48,171.33,40.48,145Z" transform="translate(-32.84 0)"/><path class="cls-2" d="M128.7,36.88c-4.42-4.71-8.59-9.15-20.46-10.64a2.16,2.16,0,1,1,.54-4.28c13.41,1.68,18.32,6.9,23.07,12,5.64,6,11,11.68,32.1,11.68,4.66,0,9.43-.29,14.05-.57s9.51-.58,14.3-.58c2.26,0,4.34.06,6.37.19a2.16,2.16,0,0,1,2,2.3,2.13,2.13,0,0,1-2.29,2c-1.93-.12-3.92-.18-6.09-.18-4.66,0-9.43.29-14,.57s-9.52.58-14.31.58C141,49.92,134.72,43.29,128.7,36.88Z" transform="translate(-32.84 0)"/><path class="cls-2" d="M206.49,104.3c-9.86-2.37-20.26-3.43-30.32-4.45-6.61-.67-13.44-1.37-20.1-2.43a2.16,2.16,0,0,1-1.81-2.27c.51-8.07,1-17.63,1-27.24,0-5.31-.16-10.15-.48-14.81a2.16,2.16,0,1,1,4.31-.29c.33,4.75.48,9.69.48,15.1,0,9-.45,17.84-.92,25.54,5.93.88,12,1.5,17.92,2.1,10.2,1,20.75,2.11,30.88,4.55a2.16,2.16,0,0,1-.5,4.26A2.2,2.2,0,0,1,206.49,104.3Z" transform="translate(-32.84 0)"/><path class="cls-2" d="M172.79,88.5a6.83,6.83,0,0,1-4.89-2.32,7.85,7.85,0,0,1-1.87-5.9,5.79,5.79,0,0,1,.42-1.8A7.23,7.23,0,0,1,173,74a10.1,10.1,0,0,1,1.8.07c3.06.47,5.6,3.59,5.67,7a7.53,7.53,0,0,1-7.39,7.47Zm.27-10.17a3,3,0,0,0-2.63,1.81,1.51,1.51,0,0,0-.09.47,3.55,3.55,0,0,0,.78,2.7,2.58,2.58,0,0,0,1.84.88,3,3,0,0,0,2.2-.91,3.06,3.06,0,0,0,1-2.16,3,3,0,0,0-2-2.76,4.28,4.28,0,0,0-.56,0Z" transform="translate(-32.84 0)"/><path class="cls-2" d="M141.57,90.62a8.78,8.78,0,0,1-2.19-6.74v-.35c0-6.8,1.11-13.52,2.18-20,.67-4.11,1.37-8.36,1.78-12.57a2.16,2.16,0,0,1,4.3.41c-.42,4.36-1.14,8.68-1.82,12.86-1.09,6.61-2.12,12.86-2.12,19.3V84a4.76,4.76,0,0,0,1,3.62c1.06,1.09,3.19,1.67,6.16,1.67a2.16,2.16,0,1,1,0,4.31C146.6,93.58,143.49,92.58,141.57,90.62Z" transform="translate(-32.84 0)"/><path class="cls-2" d="M70.08,80.85a7,7,0,0,1,3-5.69,12.29,12.29,0,0,1-4.32-9.41c0-4.16,1.58-5.87,3.47-7.29A12.44,12.44,0,0,1,69,50.6a8.35,8.35,0,0,1,7-8.28,10.18,10.18,0,0,1-.45-3.12c0-4,0-8.45,6.47-8.45a48.54,48.54,0,0,1,6.72.78,66.2,66.2,0,0,0,9.63,1c4.51,0,7.68-1.21,10-3.79a2.16,2.16,0,1,1,3.21,2.89c-3.16,3.51-7.48,5.22-13.22,5.22A69.75,69.75,0,0,1,88,35.8,46.94,46.94,0,0,0,82,35.07c-2.11,0-2.15,0-2.15,4.13,0,1.7.46,2.83,1.38,3.34a2.3,2.3,0,0,1,1.11,2.61,2.2,2.2,0,0,1-2.5,1.48,21.42,21.42,0,0,0-2.39-.11,4,4,0,0,0-4.1,4.08c0,2.12,1.42,4.64,3.62,6.44a2.18,2.18,0,0,1,.79,1.72,2.15,2.15,0,0,1-.86,1.68l-1.18.85c-2,1.45-2.6,1.84-2.6,4.45a8,8,0,0,0,5.13,7.5,2.16,2.16,0,0,1,0,4c-3.43,1.37-3.87,2.64-3.87,3.59,0,4.56,17.51,8.13,39.86,8.13a60.74,60.74,0,0,0,16.21-1.92,38.2,38.2,0,0,1,9.67-1.37,24.11,24.11,0,0,1,2.43.12,2.16,2.16,0,1,1-.43,4.3,18.6,18.6,0,0,0-2-.1,34.1,34.1,0,0,0-8.67,1.25,65.12,65.12,0,0,1-17.21,2C101,93.3,70.08,92.09,70.08,80.85Z" transform="translate(-32.84 0)"/><path class="cls-2" d="M82.35,47a2.16,2.16,0,1,1,0-4.32,59,59,0,0,1,8.37.8l-.61,4.27A55.88,55.88,0,0,0,82.35,47Zm8.06-1.39h0Z" transform="translate(-32.84 0)"/><path class="cls-2" d="M76.57,60.46a2.15,2.15,0,1,1,.77-4.24,29.28,29.28,0,0,0,5.13.4c2.39,0,4.75-.19,7.37-.43a2.16,2.16,0,0,1,.4,4.3c-2.63.24-5.2.45-7.77.45A32.24,32.24,0,0,1,76.57,60.46Z" transform="translate(-32.84 0)"/><path class="cls-2" d="M80.35,77a2.16,2.16,0,0,1,1.7-4,7.76,7.76,0,0,0,4.09,0,19.49,19.49,0,0,1,3.13-.33,2.16,2.16,0,1,1,0,4.32,15.69,15.69,0,0,0-2.43.27,18.19,18.19,0,0,1-3.12.33A8.31,8.31,0,0,1,80.35,77Z" transform="translate(-32.84 0)"/><path class="cls-2" d="M82.38,31.38c-1.33-12-2.61-18.29-3.29-21.68-.61-3-.86-4.21.5-5.18s2.54-.21,3.36.27a12.4,12.4,0,0,0,6.74,1.83c3.2,0,5.14-2.29,5.14-3.3s0-2.67,1.61-3.2A2.57,2.57,0,0,1,99.33,1.4a7.26,7.26,0,0,0,6.47,3.25A14,14,0,0,0,110.49,4c1.24-2,2.57-2.9,3.68-2.85a2.38,2.38,0,0,1,2.27,2.47c0,1.11-.87,2.57-2.84,3.69-1.34,2.86-3.37,9.31-4.26,23.06a2.16,2.16,0,0,1-4.31-.27c.64-9.77,1.88-16.65,3.36-21.25A23,23,0,0,1,105.8,9a11.74,11.74,0,0,1-7.62-2.49,10,10,0,0,1-8.49,4.46,17.18,17.18,0,0,1-6.17-1.08c.7,3.51,1.92,10,3.15,21.05a2.16,2.16,0,0,1-1.91,2.38l-.24,0A2.16,2.16,0,0,1,82.38,31.38Z" transform="translate(-32.84 0)"/><path class="cls-2" d="M120.14,140c0-8.06-9.27-8.21-16.72-8.34-5.85-.1-10.32-.34-10.32-2.37,0-4.3,5.41-7.52,10.25-7.52a8.66,8.66,0,0,1,3.73.77,2.16,2.16,0,0,0,1.85-3.9,13,13,0,0,0-5.58-1.19c-7,0-14.57,4.76-14.57,11.84,0,6.44,7.74,6.57,14.57,6.69,8.62.14,12.47.76,12.47,4,0,5.17-4.18,8.25-11.19,8.25A37.47,37.47,0,0,1,88.29,144a2.16,2.16,0,0,0-2,3.81,41.66,41.66,0,0,0,18.37,4.73C116.07,152.58,120.14,145.81,120.14,140Z" transform="translate(-32.84 0)"/><path class="cls-2" d="M100.77,120.21a2.16,2.16,0,0,0,1.57-2.62,8.31,8.31,0,0,1-.23-2.13c0-.45,0-.89,0-1.33s0-1,0-1.51a14.3,14.3,0,0,0-.11-1.92,2.16,2.16,0,1,0-4.28.54,11.29,11.29,0,0,1,.08,1.38c0,.45,0,.9,0,1.35s0,1,0,1.49a12.94,12.94,0,0,0,.36,3.18,2.15,2.15,0,0,0,2.09,1.63A2.46,2.46,0,0,0,100.77,120.21Z" transform="translate(-32.84 0)"/><path class="cls-2" d="M107.37,161.27c0-1.31-.11-2.66-.21-4s-.19-2.55-.19-3.76a15.5,15.5,0,0,1,.08-1.68,2.16,2.16,0,0,0-4.3-.43,19.91,19.91,0,0,0-.1,2.11c0,1.37.11,2.76.21,4.09s.19,2.49.19,3.64a2.16,2.16,0,1,0,4.32,0Z" transform="translate(-32.84 0)"/><path class="cls-2" d="M139.82,144.27a2.16,2.16,0,0,1-1.85-2.43,31.94,31.94,0,0,0,.29-4.28,30.35,30.35,0,0,0-6.93-19.62,2.16,2.16,0,1,1,3.26-2.82,34.65,34.65,0,0,1,8,22.44,35.67,35.67,0,0,1-.33,4.87,2.16,2.16,0,0,1-2.14,1.86Z" transform="translate(-32.84 0)"/><path class="cls-2" d="M78,110.6a2.16,2.16,0,0,1,0-3,37.14,37.14,0,0,0,5.75-8.29l1-1.83a2.16,2.16,0,1,1,3.73,2.18c-.35.59-.69,1.19-1,1.79a41.24,41.24,0,0,1-6.45,9.2,2.14,2.14,0,0,1-3,0Z" transform="translate(-32.84 0)"/></g></svg>