<svg xmlns="http://www.w3.org/2000/svg" viewBox="0 0 48 48">
  <title>Settings, control, options</title>
  <g>
    <path d="M24,17.003A6.9969,6.9969,0,1,0,30.9969,24,7.0053,7.0053,0,0,0,24,17.003Zm0,11.9947A4.9978,4.9978,0,1,1,28.9978,24,5.0037,5.0037,0,0,1,24,28.9977Z" fill="#feefad"/>
    <path d="M40.2233,25.997a2.525,2.525,0,0,1,0-3.9943A4.5213,4.5213,0,0,0,36.884,13.94a2.5232,2.5232,0,0,1-2.824-2.824,4.5214,4.5214,0,0,0-8.0628-3.3394,2.602,2.602,0,0,1-3.9944,0A4.5214,4.5214,0,0,0,13.94,11.1159a2.5232,2.5232,0,0,1-2.824,2.824,4.5213,4.5213,0,0,0-3.3393,8.0628,2.525,2.525,0,0,1,0,3.9943A4.5214,4.5214,0,0,0,11.116,34.06a2.5231,2.5231,0,0,1,2.824,2.8239,4.4218,4.4218,0,0,0,2.7546,4.7528A4.6689,4.6689,0,0,0,18.48,42a4.4228,4.4228,0,0,0,3.5228-1.7766,2.6021,2.6021,0,0,1,3.9944,0A4.5214,4.5214,0,0,0,34.06,36.8838,2.5231,2.5231,0,0,1,36.884,34.06a4.5214,4.5214,0,0,0,3.3393-8.0629Zm-.4344,4.543a2.452,2.452,0,0,1-2.6511,1.5364,4.524,4.524,0,0,0-5.0613,5.0612,2.5226,2.5226,0,0,1-4.498,1.8635,4.66,4.66,0,0,0-7.157,0,2.5226,2.5226,0,0,1-4.498-1.8635,4.5249,4.5249,0,0,0-4.4766-5.0983,4.7289,4.7289,0,0,0-.5847.0371,2.5226,2.5226,0,0,1-1.8634-4.498,4.5227,4.5227,0,0,0,0-7.157,2.5226,2.5226,0,0,1,1.8634-4.498,4.524,4.524,0,0,0,5.0613-5.0613,2.5226,2.5226,0,0,1,4.498-1.8634,4.66,4.66,0,0,0,7.157,0,2.5226,2.5226,0,0,1,4.498,1.8634,4.524,4.524,0,0,0,5.0613,5.0613,2.5226,2.5226,0,0,1,1.8634,4.498,4.5227,4.5227,0,0,0,0,7.157A2.4405,2.4405,0,0,1,39.7889,30.54Z" fill="#feefad"/>
  </g>
</svg>
