<svg id="Layer_1" data-name="Layer 1" xmlns="http://www.w3.org/2000/svg" viewBox="0 0 125.01 125.01"><defs><style>.cls-1{fill:#4d4960;}</style></defs><g id="Layer_1-2" data-name="Layer_1"><g id="_2744712225440" data-name=" 2744712225440"><path class="cls-1" d="M120,62.5a57.5,57.5,0,1,0-16.84,40.68A57.43,57.43,0,0,0,120,62.5ZM104.4,80.11a2.5,2.5,0,0,1-5,0,16.35,16.35,0,0,0-16.3-16.3H29.25L41.75,76a2.48,2.48,0,0,1-3.45,3.57L21.49,63.24a2.55,2.55,0,0,1,0-3.85L38.3,43.11a2.49,2.49,0,0,1,3.45,3.58L29.25,58.82H83.11A21.3,21.3,0,0,1,104.4,80.11Zm2.3-61.8A62.49,62.49,0,1,1,62.5,0,62.3,62.3,0,0,1,106.7,18.31Z"/></g></g></svg>